<svg width="54" height="54" viewBox="0 0 54 54" fill="none" xmlns="http://www.w3.org/2000/svg">
<path d="M53.2086 26.209H40.4725V24.4093H43.9087C44.3456 24.4093 44.6997 24.0551 44.6997 23.6183C44.6997 23.1814 44.3456 22.8273 43.9087 22.8273H40.4725V21.0274H42.8581C43.7469 21.0274 44.5826 20.6814 45.2109 20.0529L50.4133 14.8506C50.7522 15.0194 51.128 15.1093 51.5178 15.1093C52.1808 15.1093 52.804 14.8511 53.2728 14.3824C53.7416 13.9136 53.9998 13.2904 53.9998 12.6274C53.9998 11.9644 53.7416 11.3412 53.2728 10.8724C52.8041 10.4036 52.1808 10.1454 51.5178 10.1454C50.8549 10.1454 50.2316 10.4036 49.7628 10.8723C49.294 11.3411 49.0358 11.9643 49.0358 12.6273C49.0358 13.0171 49.1257 13.3929 49.2946 13.7319L44.0922 18.9342C43.7626 19.2638 43.3243 19.4454 42.858 19.4454H40.4723V17.7001C40.4723 15.3992 38.6004 13.5274 36.2996 13.5274H34.5543V6.5248C35.536 6.19374 36.2452 5.26488 36.2452 4.17286C36.2452 2.8043 35.1317 1.69098 33.7633 1.69098C32.3948 1.69098 31.2814 2.8044 31.2814 4.17286C31.2814 5.26488 31.9906 6.19363 32.9723 6.5248V13.5273H31.1726V10.091C31.1726 9.65415 30.8184 9.29999 30.3816 9.29999C29.9447 9.29999 29.5905 9.65415 29.5905 10.091V13.5273H27.7907V0.79112C27.7907 0.35427 27.4366 0.000106812 26.9997 0.000106812C26.5629 0.000106812 26.2087 0.35427 26.2087 0.79112V13.5273H24.409V10.091C24.409 9.65415 24.0548 9.29999 23.618 9.29999C23.1811 9.29999 22.827 9.65415 22.827 10.091V13.5273H21.0273V11.1417C21.0273 10.2529 20.6811 9.41727 20.0526 8.78889L14.8485 3.58477C15.3082 2.65654 15.1541 1.49913 14.3822 0.7271C13.4144 -0.240572 11.8399 -0.240466 10.8722 0.7271C9.90457 1.69477 9.90457 3.26931 10.8722 4.23709C11.3561 4.72087 11.9917 4.96282 12.6272 4.96282C13.0057 4.96282 13.3834 4.87496 13.7299 4.70336L18.934 9.90759C19.2637 10.2372 19.4452 10.6755 19.4452 11.1417V13.5273H17.6999C17.3471 13.5273 16.9963 13.5716 16.6571 13.6588C16.234 13.7676 15.9793 14.1989 16.0882 14.622C16.197 15.0452 16.6284 15.2999 17.0514 15.1909C17.2618 15.1368 17.4799 15.1093 17.6998 15.1093H36.2996C37.7282 15.1093 38.8903 16.2716 38.8903 17.7V36.2999C38.8903 36.5196 38.8629 36.7376 38.8089 36.9478C38.7002 37.3709 38.955 37.8021 39.378 37.9108C39.444 37.9278 39.5103 37.9359 39.5755 37.9359C39.9279 37.9359 40.2493 37.6987 40.341 37.3416C40.4282 37.0028 40.4723 36.6523 40.4723 36.2998V34.5545H47.4748C47.8059 35.5362 48.7347 36.2454 49.8268 36.2454C51.1953 36.2454 52.3086 35.132 52.3086 33.7635C52.3086 32.3949 51.1952 31.2816 49.8268 31.2816C48.7347 31.2816 47.806 31.9908 47.4748 32.9725H40.4723V31.1727H43.9086C44.3455 31.1727 44.6996 30.8185 44.6996 30.3816C44.6996 29.9448 44.3455 29.5906 43.9086 29.5906H40.4723V27.791H53.2086C53.6454 27.791 53.9996 27.4369 53.9996 27C53.9996 26.5632 53.6454 26.209 53.2086 26.209ZM50.8814 11.9911C51.0514 11.8211 51.2774 11.7276 51.5177 11.7276C51.7581 11.7276 51.984 11.8211 52.154 11.9911C52.324 12.1611 52.4176 12.387 52.4176 12.6274C52.4176 12.8678 52.324 13.0937 52.154 13.2637C51.984 13.4337 51.7581 13.5273 51.5177 13.5273C51.2774 13.5273 51.0514 13.4337 50.8814 13.2637C50.7114 13.0937 50.6179 12.8678 50.6179 12.6274C50.6179 12.387 50.7114 12.161 50.8814 11.9911ZM13.2634 3.11849C12.9126 3.46917 12.3417 3.46928 11.9907 3.11838C11.6398 2.76749 11.6398 2.19659 11.9907 1.8458C12.1662 1.6703 12.3966 1.58266 12.6271 1.58266C12.8576 1.58266 13.088 1.67041 13.2634 1.8458C13.6143 2.1967 13.6143 2.7676 13.2634 3.11849ZM33.7633 5.07271C33.2672 5.07271 32.8634 4.66898 32.8634 4.17286C32.8634 3.67673 33.2671 3.273 33.7633 3.273C34.2595 3.273 34.6631 3.67673 34.6631 4.17286C34.6631 4.66898 34.2594 5.07271 33.7633 5.07271ZM49.8269 32.8637C50.3231 32.8637 50.7267 33.2675 50.7267 33.7636C50.7267 34.2598 50.323 34.6634 49.8269 34.6634C49.3307 34.6634 48.927 34.2597 48.927 33.7636C48.9269 33.2674 49.3306 32.8637 49.8269 32.8637Z" fill="white"/>
<path d="M43.1275 49.763C42.3556 48.991 41.198 48.8369 40.2698 49.2966L35.0657 44.0924C34.736 43.7628 34.5545 43.3245 34.5545 42.8583V40.4727H36.2998C36.6526 40.4727 37.0034 40.4284 37.3424 40.3412C37.7655 40.2324 38.0202 39.8011 37.9113 39.378C37.8025 38.955 37.3714 38.7002 36.9481 38.8091C36.7378 38.8632 36.5197 38.8906 36.2998 38.8906H17.7C16.2714 38.8906 15.1093 37.7284 15.1093 36.2999V17.7001C15.1093 17.4802 15.1367 17.2621 15.1908 17.0519C15.2998 16.6289 15.0451 16.1976 14.622 16.0887C14.1989 15.9797 13.7676 16.2344 13.6588 16.6575C13.5715 16.9964 13.5273 17.3472 13.5273 17.7001V19.4454H6.52469C6.19363 18.4637 5.26477 17.7545 4.17275 17.7545C2.80419 17.7545 1.69087 18.8679 1.69087 20.2364C1.69087 21.605 2.8043 22.7183 4.17275 22.7183C5.26477 22.7183 6.19352 22.0091 6.52469 21.0274H13.5272V22.8273H10.0909C9.65404 22.8273 9.29988 23.1814 9.29988 23.6183C9.29988 24.0551 9.65404 24.4093 10.0909 24.4093H13.5272V26.209H0.791013C0.354163 26.209 0 26.5632 0 27C0 27.4369 0.354163 27.791 0.791013 27.791H13.5272V29.5907H10.0909C9.65404 29.5907 9.29988 29.9449 9.29988 30.3817C9.29988 30.8186 9.65404 31.1728 10.0909 31.1728H13.5272V32.9726H11.1415C10.2527 32.9726 9.41706 33.3186 8.78868 33.9471L3.58635 39.1494C3.24737 38.9806 2.87159 38.8907 2.48178 38.8907C1.8188 38.8907 1.19559 39.1489 0.726782 39.6176C0.258186 40.0864 0 40.7097 0 41.3726C0 42.0355 0.258186 42.6588 0.726993 43.1276C1.19569 43.5964 1.81901 43.8545 2.48199 43.8545C3.14496 43.8545 3.76817 43.5963 4.23698 43.1276C4.70579 42.6588 4.96397 42.0356 4.96397 41.3726C4.96397 40.9828 4.87411 40.607 4.70526 40.268L9.90759 35.0657C10.2372 34.7361 10.6755 34.5545 11.1418 34.5545H13.5275V36.2998C13.5275 38.6007 15.3994 40.4725 17.7002 40.4725H19.4455V47.475C18.4638 47.8061 17.7546 48.7349 17.7546 49.8269C17.7546 51.1955 18.8681 52.3088 20.2365 52.3088C21.605 52.3088 22.7184 51.1954 22.7184 49.8269C22.7184 48.7349 22.0092 47.8062 21.0275 47.475V40.4725H22.8272V43.9088C22.8272 44.3456 23.1814 44.6998 23.6183 44.6998C24.0551 44.6998 24.4093 44.3456 24.4093 43.9088V40.4725H26.2089V53.2089C26.2089 53.6457 26.563 53.9999 26.9999 53.9999C27.4367 53.9999 27.7909 53.6457 27.7909 53.2089V40.4727H29.5906V43.909C29.5906 44.3459 29.9448 44.7 30.3816 44.7C30.8185 44.7 31.1726 44.3459 31.1726 43.909V40.4727H32.9724V42.8583C32.9724 43.7471 33.3185 44.5827 33.947 45.2111L39.1511 50.4152C38.6914 51.3435 38.8455 52.5009 39.6175 53.2729C40.1013 53.7568 40.7369 53.9986 41.3725 53.9986C42.008 53.9986 42.6437 53.7568 43.1275 53.2729C44.0951 52.3052 44.0951 50.7307 43.1275 49.763ZM4.17275 21.1363C3.67652 21.1363 3.27289 20.7325 3.27289 20.2364C3.27289 19.7402 3.67663 19.3366 4.17275 19.3366C4.66887 19.3366 5.07261 19.7403 5.07261 20.2364C5.07271 20.7327 4.66898 21.1363 4.17275 21.1363ZM3.11817 42.0089C2.94816 42.1789 2.72224 42.2725 2.48188 42.2725C2.24152 42.2725 2.01561 42.1789 1.84559 42.0089C1.67558 41.8389 1.58203 41.613 1.58203 41.3726C1.58203 41.1322 1.67558 40.9063 1.84559 40.7363C2.01561 40.5663 2.24152 40.4727 2.48188 40.4727C2.72224 40.4727 2.94816 40.5663 3.11817 40.7363C3.28819 40.9063 3.38174 41.1322 3.38174 41.3726C3.38174 41.613 3.28819 41.839 3.11817 42.0089ZM21.1362 49.8272C21.1362 50.3233 20.7325 50.727 20.2363 50.727C19.7401 50.727 19.3365 50.3233 19.3365 49.8272C19.3365 49.331 19.7402 48.9273 20.2363 48.9273C20.7324 48.9273 21.1362 49.331 21.1362 49.8272ZM42.0089 52.1543C41.658 52.5052 41.0871 52.5051 40.7362 52.1543C40.3853 51.8034 40.3853 51.2325 40.7362 50.8817C40.9117 50.7063 41.1421 50.6186 41.3726 50.6186C41.603 50.6186 41.8335 50.7063 42.0089 50.8817C42.3597 51.2325 42.3597 51.8034 42.0089 52.1543Z" fill="white"/>
<path d="M35.3999 24.8865C35.3999 23.1948 34.1626 21.7618 32.4687 21.2962C32.5188 21.0893 32.5466 20.8766 32.5466 20.6592C32.5466 19.0576 31.125 17.7545 29.3778 17.7545C28.4313 17.7545 27.5812 18.1373 27 18.7423C26.4189 18.1373 25.5686 17.7545 24.6222 17.7545C22.8749 17.7545 21.4534 19.0576 21.4534 20.6592C21.4534 20.8766 21.4813 21.0893 21.5314 21.2962C19.8375 21.7617 18.6001 23.1947 18.6001 24.8865C18.6001 25.7133 18.8927 26.4933 19.4332 27.1375C18.9047 27.8217 18.6001 28.6523 18.6001 29.5365C18.5999 30.8814 19.3185 32.1373 20.5022 32.9162C20.5022 32.9169 20.5022 32.9175 20.5022 32.9181C20.5022 34.7529 22.1371 36.2456 24.1467 36.2456C25.3016 36.2456 26.3319 35.7521 27 34.9845C27.6682 35.7521 28.6985 36.2456 29.8534 36.2456C31.7873 36.2456 33.3735 34.8629 33.4901 33.1235C34.6647 32.442 35.3999 31.2482 35.3999 29.9591C35.3999 29.011 34.9957 28.1065 34.2999 27.4228C34.9956 26.7392 35.3999 25.8346 35.3999 24.8865ZM32.6004 28.1223C33.3626 28.5245 33.8176 29.2113 33.8176 29.9591C33.8176 30.5167 33.5585 31.0486 33.1208 31.4463C32.7049 30.6763 31.9699 30.0633 31.0413 29.7716C30.6247 29.6407 30.1805 29.8724 30.0495 30.2891C29.9185 30.7059 30.1504 31.15 30.5671 31.2809C31.3735 31.5343 31.9154 32.1923 31.9154 32.9182C31.9154 33.8806 30.9902 34.6636 29.8529 34.6636C28.7158 34.6636 27.7906 33.8806 27.7906 32.9182V27.8455C27.7906 26.8831 28.7158 26.1002 29.8529 26.1002C30.2898 26.1002 30.644 25.7461 30.644 25.3092C30.644 24.8724 30.2898 24.5182 29.8529 24.5182C29.0879 24.5182 28.3774 24.7351 27.7906 25.1043V24.0939C27.7906 23.6571 27.4364 23.3029 26.9996 23.3029C26.5627 23.3029 26.2086 23.6571 26.2086 24.0939V28.4853C25.9424 28.3182 25.6504 28.18 25.3347 28.0807C24.9177 27.9497 24.4738 28.1816 24.343 28.5982C24.212 29.015 24.4437 29.459 24.8604 29.59C25.6668 29.8434 26.2086 30.5014 26.2086 31.2273V32.9181C26.2086 33.8805 25.2834 34.6635 24.1463 34.6635C23.009 34.6635 22.0838 33.8805 22.0838 32.9181C22.0838 32.5057 22.2587 32.1047 22.5762 31.7891C22.886 31.4811 22.8875 30.9803 22.5795 30.6704C22.2716 30.3605 21.7708 30.3591 21.4609 30.667C21.2714 30.8555 21.1082 31.0614 20.9726 31.2802C20.4731 30.8077 20.1815 30.1861 20.1815 29.5363C20.1815 28.3643 21.1013 27.3348 22.4183 27.0326C22.844 26.9349 23.11 26.5105 23.0124 26.0847C22.9147 25.6589 22.4902 25.393 22.0645 25.4906C21.5343 25.6122 21.0462 25.8153 20.6134 26.0818C20.3327 25.7293 20.1816 25.3165 20.1816 24.8863C20.1819 23.6965 21.3098 22.7279 22.7002 22.7187C22.7072 22.7189 22.7143 22.7199 22.7213 22.7199C22.9018 22.7199 23.0833 22.6584 23.232 22.5326C23.5352 22.2759 23.596 21.8403 23.3925 21.5126C23.3865 21.5029 23.381 21.493 23.3747 21.4836C23.3714 21.4788 23.3675 21.4743 23.3641 21.4696C23.3519 21.4524 23.3393 21.4355 23.3257 21.4192C23.3253 21.4187 23.325 21.4182 23.3246 21.4178C23.1926 21.2618 23.0351 21.0036 23.0351 20.6591C23.0351 19.9298 23.7471 19.3365 24.6219 19.3365C25.4968 19.3365 26.2087 19.9298 26.2087 20.6591C26.2087 21.096 26.5629 21.4502 26.9997 21.4502C27.4366 21.4502 27.7907 21.096 27.7907 20.6591C27.7907 19.9298 28.5026 19.3365 29.3775 19.3365C30.2523 19.3365 30.9643 19.9298 30.9643 20.6591C30.9643 20.854 30.9132 21.0203 30.8456 21.1569C30.3957 21.1995 29.9605 21.3082 29.5474 21.4824C29.1448 21.6521 28.9561 22.1161 29.1258 22.5187C29.2955 22.9211 29.7595 23.11 30.1621 22.9402C30.504 22.796 30.8719 22.7219 31.2556 22.7189C31.2632 22.7191 31.2706 22.7199 31.2782 22.7199C31.2853 22.7199 31.2923 22.7189 31.2993 22.7187C32.6897 22.7278 33.8176 23.6965 33.8176 24.8863C33.8176 25.6342 33.3626 26.3208 32.6004 26.7231C32.3409 26.86 32.1785 27.1293 32.1785 27.4227C32.1785 27.7161 32.3409 27.9854 32.6004 28.1223Z" fill="white"/>
</svg>
