<svg width="283" height="231" viewBox="0 0 283 231" fill="none" xmlns="http://www.w3.org/2000/svg">
<g clip-path="url(#clip0)">
<path opacity="0.1" d="M276.119 133.91C276.119 134.085 276.119 134.261 276.119 134.433C276.088 137.459 275.908 140.478 275.58 143.489C275.582 143.507 275.582 143.525 275.58 143.543C275.554 143.794 275.525 144.041 275.497 144.291C275.448 144.714 275.396 145.134 275.338 145.557C274.667 150.704 273.556 155.785 272.019 160.743C269.958 167.442 267.046 173.85 263.352 179.809C262.216 181.631 261.005 183.394 259.721 185.099C259.036 186.002 258.336 186.885 257.614 187.754C257.107 188.362 256.59 188.96 256.065 189.549L255.736 189.911C252.969 192.947 249.986 195.779 246.811 198.386C241.628 202.678 236.048 206.412 230.379 209.875C230.056 210.074 229.731 210.269 229.405 210.45C229.383 210.467 229.359 210.481 229.333 210.494C221.629 215.148 213.639 219.348 205.407 222.71C196.395 226.401 187.089 229.085 177.541 230.259C164.233 231.893 150.764 230.564 137.537 228.28C126.536 226.391 115.668 223.797 105.001 220.513L103.245 219.963C102.335 219.674 101.426 219.378 100.518 219.077C95.034 217.265 89.6114 215.251 84.2502 213.036C70.7853 207.496 57.9222 200.595 45.861 192.443C44.3254 191.411 42.8119 190.356 41.3204 189.279C39.2358 187.779 37.1762 186.235 35.1415 184.647L33.8861 183.675C28.5614 179.509 23.5726 174.932 18.9658 169.985C12.7696 163.248 7.47464 155.648 3.99361 146.972C3.44463 145.609 2.94172 144.219 2.48488 142.804L2.44169 142.663C2.21135 141.944 1.99828 141.225 1.80249 140.477C1.51457 139.407 1.26215 138.323 1.04525 137.226C0.999179 137.016 0.95887 136.806 0.921439 136.594C0.233262 132.902 -0.0706797 129.149 0.0144706 125.395C0.0864825 122.106 0.472128 118.831 1.16618 115.614C1.87655 112.28 2.97126 109.04 4.42838 105.958C5.74519 103.186 7.42298 100.601 9.41815 98.2685C10.8201 96.638 12.3968 95.166 14.12 93.8788C17.244 91.5545 20.7077 89.935 24.2982 88.6549C25.9854 88.0508 27.6957 87.5215 29.4146 87.0296C30.6326 86.6787 31.8563 86.345 33.0742 86.0171L36.6675 85.0477C38.9709 84.4206 41.2743 83.7762 43.5432 83.0801C49.7278 81.193 55.7887 78.909 61.3946 75.5031C62.2814 74.9652 63.1855 74.3754 64.0896 73.7426C65.2413 72.9429 66.3758 72.0742 67.4987 71.1364C68.6331 70.1871 69.7445 69.1717 70.8041 68.0958C70.9682 67.929 71.1294 67.7621 71.2906 67.5924C72.1544 66.6834 72.9923 65.7312 73.7697 64.7417C74.1498 64.2584 74.5183 63.7665 74.8696 63.266C75.3562 62.5727 75.8169 61.868 76.243 61.1431C78.3794 57.5185 79.6981 53.5201 79.5426 49.3058C79.5199 48.6115 79.4574 47.919 79.3555 47.2318C78.9812 44.6918 78.6213 42.2121 78.3564 39.7871C77.245 29.7564 77.7143 20.6606 85.2493 12.1142C94.6185 1.4909 109.323 -0.675184 122.709 0.173415C161.409 2.61853 196.639 24.6936 227.6 50.9743C230.278 53.2449 232.923 55.5461 235.535 57.8781C236.194 58.4649 236.853 59.0556 237.513 59.6501C242.408 64.0542 247.228 68.6222 251.717 73.5153C252.08 73.9123 252.442 74.3093 252.799 74.7091C253.018 74.9565 253.24 75.201 253.456 75.4513C254.855 77.0334 256.213 78.6539 257.53 80.3128C261.057 84.7166 264.173 89.4349 266.836 94.4081C270.914 102.213 273.675 110.637 275.007 119.34C275.508 122.5 275.838 125.685 275.995 128.881C276.044 129.822 276.075 130.766 276.093 131.706C276.093 132.008 276.093 132.307 276.093 132.609C276.121 133.047 276.121 133.472 276.119 133.91Z" fill="#6C63FF"/>
<path d="M113.437 129.085L108.83 211.008L113.437 211.068L117.18 127.934L113.437 129.085Z" fill="#3F3D56"/>
<path d="M96.4496 170.591H39.4402V182.961H96.4496V170.591Z" fill="#4578FC"/>
<path d="M100.193 181.52V189.286H41.303C39.2185 187.787 37.1588 186.243 35.1241 184.655V181.52H100.193Z" fill="#3F3D56"/>
<path d="M111.952 163.843C111.79 164.588 111.58 165.324 111.358 166.058C110.705 168.178 109.919 170.269 109.766 172.473C109.562 175.384 110.342 178.769 108.327 180.884C107.808 181.43 107.132 181.839 106.668 182.423C106.597 182.514 106.531 182.61 106.472 182.71C106.058 183.395 106.009 184.229 106.003 185.012C106.008 186.68 106.116 188.347 106.328 190.003C107.011 195.698 108.358 201.405 106.587 206.782C106.267 207.714 105.893 208.628 105.467 209.518C104.604 211.416 103.662 213.289 103.38 215.345C103.173 216.87 103.236 218.441 103.224 219.991C102.315 219.702 101.406 219.406 100.498 219.105C95.0138 217.293 89.5912 215.279 84.23 213.064C84.2444 212.987 84.2588 212.906 84.2703 212.828C84.682 210.268 84.1177 207.651 83.4324 205.154C81.9928 199.864 79.9543 194.625 78.7479 189.298C78.262 187.217 77.9433 185.101 77.7948 182.969C77.7603 182.492 77.7401 182.011 77.7372 181.531C77.7228 180.904 77.7372 180.277 77.7632 179.644C77.8236 178.381 77.8783 176.882 76.8677 176.114C76.312 175.697 75.5778 175.625 74.93 175.372C73.6804 174.886 72.8252 173.758 71.8347 172.855C71.3623 172.397 70.7854 172.061 70.1538 171.876C69.5223 171.69 68.8551 171.661 68.2098 171.791C61.7372 173.272 56.9806 178.758 50.9572 181.531C50.724 181.64 50.4908 181.744 50.2547 181.842C49.4755 182.127 48.7339 182.505 48.0463 182.969C47.5631 183.304 47.2126 183.798 47.0558 184.364C46.9032 184.974 47.0356 185.613 47.1105 186.24C47.2317 187.26 47.1879 188.292 46.9809 189.298C46.9029 189.688 46.8 190.072 46.6729 190.448C46.4425 191.13 46.1344 191.798 45.8408 192.462C44.3051 191.43 42.7916 190.376 41.3002 189.298C39.2156 187.798 37.1559 186.254 35.1212 184.667L33.886 183.674C28.5613 179.508 23.5725 174.931 18.9657 169.984C19.579 168.258 20.4658 166.653 20.8919 164.884C21.1338 163.869 21.223 162.813 21.557 161.826C21.9422 160.803 22.4779 159.844 23.1464 158.978C25.5948 155.567 28.5844 152.578 31.9972 150.13C35.5647 147.576 39.6849 145.527 42.8953 142.628C44.1981 141.488 45.3212 140.159 46.2266 138.684C46.2813 138.595 46.3331 138.5 46.3792 138.396C46.6298 137.876 46.8034 137.321 46.8946 136.751C47.1249 135.462 47.0903 134.047 47.2055 132.81C51.1164 133.486 55.1034 133.606 59.0479 133.167C63.6404 132.652 68.132 131.377 72.7244 130.883C73.07 130.842 73.4183 130.811 73.7667 130.782C75.238 130.664 76.7122 130.638 78.1893 130.655C79.4245 130.655 80.6597 130.71 81.8949 130.75L95.4937 131.211C96.9995 131.262 98.537 131.32 99.9392 131.869C101.603 132.522 102.937 133.823 104.005 135.252C104.14 135.436 104.275 135.62 104.402 135.81C105.281 137.091 105.986 138.483 106.498 139.95C106.553 140.099 106.605 140.237 106.654 140.401C106.783 140.801 106.896 141.204 106.996 141.612C107.074 141.932 107.143 142.251 107.207 142.573C107.523 144.167 107.71 145.795 108.211 147.334C108.246 147.446 108.283 147.558 108.324 147.668C108.925 149.353 109.925 150.864 110.679 152.483C111.223 153.655 111.638 154.883 111.917 156.145C112.481 158.679 112.493 161.304 111.952 163.843Z" fill="#35323E"/>
<path d="M70.6168 60.8977C69.4018 59.9312 67.6396 60.6388 66.2173 61.2631C65.0247 61.7893 63.7972 62.2324 62.5433 62.5892C62.2868 62.6878 62.0085 62.7166 61.7372 62.6726C61.1613 62.5345 60.9195 61.8528 60.4904 61.4385C59.7447 60.7223 58.5239 60.892 57.5622 61.2803C56.6005 61.6687 55.6504 62.2296 54.6196 62.1433C53.5197 62.057 52.5638 61.2458 51.4524 61.2199C49.4945 61.1739 47.8505 63.5845 45.9991 62.9459C44.8704 62.5575 43.9836 61.0905 42.8722 61.5076C42.0084 61.8355 41.9307 63.0293 41.4095 63.8089C40.7963 64.7179 39.6014 64.9739 38.5792 65.3766C35.3573 66.6481 33.2238 70.2352 33.6442 73.6699C33.8774 75.5655 34.7959 77.303 35.4034 79.1124C37.2058 84.3737 36.5868 90.3081 38.8585 95.3825C39.1464 95.1121 39.3077 95.0114 39.587 94.7439C38.8687 96.2322 38.7301 97.9343 39.1983 99.519C39.4373 100.316 39.826 101.058 40.1196 101.838C40.4247 102.712 40.671 103.606 40.8567 104.513L43.3617 115.553C44.3406 119.868 45.3225 124.183 45.4923 128.602C45.5981 131.475 45.3779 134.35 44.8359 137.174C49.3736 136.423 53.5255 134.412 58.1237 134.438C59.8109 134.438 61.4838 134.726 63.1566 134.956C68.0339 135.638 72.9536 135.971 77.8783 135.954C78.6443 135.998 79.4113 135.89 80.1357 135.638C80.7691 135.367 81.2874 134.887 81.8863 134.539C83.0581 133.848 84.4776 133.676 85.828 133.676C91.9867 133.564 97.9209 135.816 104.039 136.61C106.455 131.544 106.599 125.475 104.745 120.179C104.195 118.605 103.455 117.072 103.236 115.418C103.148 114.401 103.125 113.38 103.167 112.36C103.157 109.75 102.687 107.161 101.776 104.714C101.419 103.756 100.99 102.781 101.028 101.76C101.065 100.739 101.569 99.7866 102.064 98.8833C103.069 97.0423 104.08 95.184 105.499 93.6306C106.953 92.0255 108.773 90.8029 110.572 89.6034L115.015 86.6232C114.408 82.7887 113.624 78.7499 111.998 75.2232C110.371 71.6965 107.938 68.4546 104.647 66.392C103.537 65.7252 102.376 65.148 101.174 64.6661C99.493 63.9584 97.7424 63.3342 95.9198 63.2278C93.8467 63.1098 91.8053 63.665 89.7582 64.0102C83.3144 65.0947 75.7304 64.9624 70.6168 60.8977Z" fill="#0D3BB2"/>
<path d="M119.196 127.439L117.082 130.106L113.097 135.131L108.491 140.939L107.204 142.562H104.707L42.8924 142.634L4.18067 142.677H2.45311C2.22277 141.958 2.00971 141.238 1.81392 140.49C1.52599 139.42 1.27357 138.337 1.05667 137.24C1.0106 137.03 0.970292 136.82 0.932861 136.607L14.9779 127.434L20.2585 127.405L36.4112 127.313L45.4319 127.261H47.0788H48.1125L54.1244 127.229L99.945 126.968L102.289 126.953H103.305L105.997 126.939L116.014 126.881L117.938 126.151L118.079 126.3L119.196 127.439Z" fill="#3F3D56"/>
<path d="M118.332 126.001L118.093 126.289L116.521 128.138L113.285 131.956L106.498 139.95L46.3791 138.416L1.04513 137.266C0.999057 137.056 0.958748 136.846 0.921317 136.633C0.23314 132.941 -0.0708018 129.188 0.0143485 125.434L5.04154 122.863L6.19325 122.27L15.1564 117.668L23.0225 113.64L43.5402 116.304L48.0837 116.894L50.1395 117.158L53.1483 117.55L53.4017 117.584L100.584 123.697L105.799 124.373L108.859 124.77L118.292 125.995L118.332 126.001Z" fill="#504F60"/>
<path d="M108.542 139.809L108.493 140.939L108.206 147.322L106.657 182.417L106.328 190.003L105.464 209.518L104.978 220.541L103.222 219.991C102.312 219.702 101.403 219.406 100.495 219.105L104.707 142.588L104.796 140.982L106.651 140.407L108.542 139.809Z" fill="#3F3D56"/>
<path d="M4.31309 139.725L4.18352 142.68L3.99349 146.995C3.44451 145.631 2.9416 144.242 2.48475 142.826L2.44157 142.685C2.21122 141.966 1.99816 141.247 1.80237 140.499L4.31309 139.725Z" fill="#3F3D56"/>
<path d="M79.6059 96.2311C86.9207 96.2311 92.8505 88.2461 92.8505 78.3961C92.8505 68.5461 86.9207 60.5612 79.6059 60.5612C72.2911 60.5612 66.3613 68.5461 66.3613 78.3961C66.3613 88.2461 72.2911 96.2311 79.6059 96.2311Z" fill="#A1616A"/>
<path opacity="0.1" d="M79.6059 96.2311C86.9207 96.2311 92.8505 88.2461 92.8505 78.3961C92.8505 68.5461 86.9207 60.5612 79.6059 60.5612C72.2911 60.5612 66.3613 68.5461 66.3613 78.3961C66.3613 88.2461 72.2911 96.2311 79.6059 96.2311Z" fill="black"/>
<path d="M81.4775 86.0191C91.6546 86.0191 99.9048 77.7766 99.9048 67.6088C99.9048 57.4411 91.6546 49.1986 81.4775 49.1986C71.3004 49.1986 63.0502 57.4411 63.0502 67.6088C63.0502 77.7766 71.3004 86.0191 81.4775 86.0191Z" fill="#A1616A"/>
<path d="M81.8431 39.234C80.7181 39.3236 79.6009 39.4938 78.5003 39.7432C75.5865 40.4508 73.0671 42.0214 70.614 43.5633C69.5141 44.2566 68.3826 44.9786 67.7002 45.9969C66.4736 47.8236 66.9487 50.1479 66.2605 52.1759C65.9035 53.2172 65.247 54.1521 64.6913 55.1215C63.1625 57.7795 62.362 60.6992 61.576 63.5902C61.4147 64.1886 61.3687 64.9998 62.0223 65.2299C62.3986 65.308 62.7901 65.2636 63.1394 65.1033C65.2039 64.4216 67.8269 64.226 69.3586 65.6096C70.8904 66.9933 70.7608 69.447 72.5834 70.4998C74.6709 71.7167 77.9302 70.2467 79.8248 71.6821C80.6367 72.2977 80.9304 73.2844 81.5955 74.0266C83.1445 75.7525 86.1246 75.6691 88.6036 75.321C90.026 75.1197 91.7708 74.9845 92.6346 75.9827C93.0492 76.4544 93.1673 77.1017 93.6481 77.5274C94.5119 78.2983 96.0926 77.9071 96.9362 77.116C97.7798 76.325 98.1829 75.2549 98.8855 74.366C100.253 72.64 102.657 71.6994 104.068 69.9936C105.249 68.5553 105.606 66.7545 105.928 65.017L107.129 58.5763C107.615 55.9644 108.059 53.1108 106.588 50.8095C106.063 49.981 105.312 49.2676 104.86 48.4104C104.558 47.8351 104.388 47.2281 104.036 46.6844C103.62 46.118 103.122 45.616 102.559 45.1943L99.7176 42.8442C98.7459 41.9945 97.707 41.2248 96.6109 40.5429C92.554 38.1812 86.4787 38.8025 81.8431 39.234Z" fill="#464353"/>
<path d="M21.1482 86.6577C20.4659 87.3826 19.8353 88.1651 19.104 88.8439C18.4606 89.4156 17.7879 89.9533 17.0885 90.4548C15.9598 91.2987 14.8561 92.1722 13.7773 93.0754C12.6519 93.9644 11.6335 94.9809 10.7426 96.1045C9.20505 98.167 8.4766 100.733 7.03697 102.865C5.76433 104.754 3.97055 106.247 2.67776 108.123C2.11061 108.912 1.68935 109.795 1.43392 110.732C1.24325 111.639 1.15727 112.564 1.17766 113.491C1.15175 115.01 1.12871 116.546 1.43968 118.033C1.75064 119.52 2.43302 120.981 3.602 121.957C4.68748 122.863 6.08969 123.28 7.4631 123.625C8.1714 123.8 8.93728 123.964 9.61102 123.685C10.104 123.437 10.532 123.076 10.8606 122.633L14.3647 118.605C16.7084 115.901 19.1443 113.14 22.3604 111.558C23.3682 111.066 24.4306 110.695 25.4412 110.217C29.7256 108.155 32.7546 103.932 33.9293 99.3292C34.2172 98.2044 34.4015 97.0567 34.5886 95.9089L35.0954 92.7619C35.1343 92.6041 35.1343 92.4393 35.0954 92.2815C35.016 92.1041 34.8883 91.9526 34.7269 91.8442C32.2861 89.875 30.0009 87.7207 27.8915 85.4006C27.3905 84.8483 26.9212 84.0918 26.3424 83.6287C25.6169 83.0533 25.6716 83.0965 24.7991 83.6287C23.4571 84.4776 22.23 85.4957 21.1482 86.6577Z" fill="#A1616A"/>
<path d="M45.1181 107.599C45.0889 107.533 45.0466 107.472 44.9935 107.422C44.9405 107.372 44.8779 107.333 44.8095 107.308C44.7411 107.283 44.6682 107.272 44.5954 107.275C44.5225 107.279 44.4511 107.297 44.3855 107.329C44.3199 107.361 44.2614 107.405 44.2135 107.46C44.1656 107.515 44.1293 107.579 44.1068 107.649C44.0844 107.718 44.0761 107.791 44.0827 107.864C44.0892 107.936 44.1104 108.007 44.1449 108.071L43.8569 108.212L52.4429 125.794L53.9948 125.037L45.4089 107.444L45.1181 107.599Z" fill="#3F3D56"/>
<path opacity="0.04" d="M21.1482 86.6577C20.4659 87.3826 19.8353 88.1651 19.104 88.8439C18.4606 89.4156 17.7879 89.9533 17.0885 90.4548C15.9598 91.2987 14.8561 92.1722 13.7773 93.0754C12.6519 93.9644 11.6335 94.9809 10.7426 96.1045C9.20505 98.167 8.4766 100.733 7.03697 102.865C5.76433 104.754 3.97055 106.247 2.67776 108.123C2.11061 108.912 1.68935 109.795 1.43392 110.732C1.24325 111.639 1.15727 112.564 1.17766 113.491C1.15175 115.01 1.12871 116.546 1.43968 118.033C1.75064 119.52 2.43302 120.981 3.602 121.957C4.68748 122.863 6.08969 123.28 7.4631 123.625C8.1714 123.8 8.93728 123.964 9.61102 123.685C10.104 123.437 10.532 123.076 10.8606 122.633L14.3647 118.605C16.7084 115.901 19.1443 113.14 22.3604 111.558C23.3682 111.066 24.4306 110.695 25.4412 110.217C29.7256 108.155 32.7546 103.932 33.9293 99.3292C34.2172 98.2044 34.4015 97.0567 34.5886 95.9089L35.0954 92.7619C35.1343 92.6041 35.1343 92.4393 35.0954 92.2815C35.016 92.1041 34.8883 91.9526 34.7269 91.8442C32.2861 89.875 30.0009 87.7207 27.8915 85.4006C27.3905 84.8483 26.9212 84.0918 26.3424 83.6287C25.6169 83.0533 25.6716 83.0965 24.7991 83.6287C23.4571 84.4776 22.23 85.4957 21.1482 86.6577Z" fill="black"/>
<path d="M120.408 119.06C120.379 120.895 120.307 122.785 119.544 124.459C119.216 125.184 118.706 125.898 117.943 126.136C117.482 126.243 117.004 126.26 116.535 126.188C110.887 125.692 105.194 126.143 99.6946 127.523C101.163 124.589 100.319 121.071 100.725 117.814C100.838 116.925 101.042 116.051 101.12 115.159C101.408 111.995 100.052 108.923 99.4297 105.799C98.8898 103.094 98.8898 100.31 99.4297 97.6061C99.5356 96.91 99.7751 96.2409 100.135 95.6356C100.557 95.0466 101.111 94.5648 101.753 94.2289C104.085 92.9028 106.835 92.7504 109.455 92.9258C111.22 93.0438 114.759 92.8769 116.23 93.9614C117.84 95.1495 118.349 99.1393 118.784 100.983C119.435 103.811 119.878 106.683 120.109 109.576C120.391 112.728 120.451 115.896 120.408 119.06Z" fill="#A1616A"/>
<path d="M17.2699 125.429L27.6352 132.332L74.2793 130.606L43.4712 125.429H17.2699Z" fill="white"/>
<path d="M30.9377 70.5746C29.2361 72.0733 27.7936 73.8396 26.1812 75.4361C23.9699 77.6281 21.4563 79.4921 18.9542 81.3475C19.8513 81.598 20.6679 82.077 21.3241 82.7376C21.9802 83.3982 22.4534 84.2177 22.6973 85.1159C22.8067 85.5387 22.8614 85.9788 22.9852 86.3931C23.2731 87.374 23.9066 88.2197 24.5861 88.982C27.5056 92.27 31.5913 94.7036 33.3131 98.7625C33.3693 98.96 33.4912 99.1324 33.6586 99.2515C33.7987 99.3134 33.9543 99.3315 34.1049 99.3033C35.6626 99.1393 36.8546 97.8851 37.848 96.6654C39.921 94.0765 41.7206 91.2171 42.7427 88.0586C43.7648 84.9001 43.929 81.4079 42.8147 78.2782C42.259 76.719 41.401 75.2865 40.5487 73.8683C39.802 72.6276 39.0572 71.3887 38.3144 70.1518C37.9257 69.4988 37.4305 68.1727 36.6675 67.8505C35.0205 67.1428 31.9944 69.5189 30.9377 70.5746Z" fill="#0D3BB2"/>
<path d="M115.744 89.1661L118.194 94.9193C115.526 93.9882 112.676 93.7047 109.877 94.0924C107.078 94.48 104.412 95.5277 102.099 97.1487C100.702 98.1469 99.421 99.4011 98.7905 100.995C98.4792 101.054 98.1576 101.024 97.8627 100.908C97.5677 100.793 97.3115 100.596 97.1234 100.342C96.7548 99.8253 96.5411 99.2146 96.5072 98.5812C96.2797 96.372 97.1176 94.2059 97.9468 92.1405C98.3327 91.174 98.73 90.1873 99.4153 89.402C100.101 88.6167 101.01 88.0989 101.92 87.6099C104.823 86.006 107.863 84.6641 111.004 83.5999C112.329 83.1713 113.717 83.1799 114.459 84.4168C115.32 85.8925 115.07 87.5955 115.744 89.1661Z" fill="#0D3BB2"/>
<path d="M17.3303 106.429C17.9436 106.918 18.482 107.496 19.1125 107.962C19.7794 108.424 20.489 108.822 21.2317 109.15L24.0706 110.513C24.9504 110.97 25.871 111.344 26.8203 111.63C28.0354 111.955 29.3109 111.986 30.5317 112.288C32.0721 112.668 33.4801 113.459 34.9974 113.916C36.5148 114.374 38.2913 114.449 39.5582 113.496C40.35 112.901 40.9489 111.917 41.9307 111.77C42.5641 111.687 43.1746 111.992 43.7389 112.288L51.1271 116.169C52.1233 116.692 53.1771 117.273 53.6983 118.272C54.2194 119.27 53.8681 120.786 52.7711 121.045C52.3888 121.089 52.0043 121.111 51.6194 121.111C51.2394 121.157 50.8248 121.381 50.7729 121.764C50.771 122.001 50.8337 122.235 50.9543 122.44C51.2854 123.199 51.3833 124.108 50.9975 124.845C50.6117 125.581 49.6644 126.038 48.9072 125.708C49.0367 126.821 47.8246 127.6 46.7448 127.897C44.0211 128.642 41.1332 128.184 38.3489 127.713C37.2548 127.529 36.1434 127.339 35.1472 126.85C34.6692 126.617 34.2258 126.317 33.7421 126.102C32.4147 125.512 30.906 125.59 29.4549 125.616C22.7433 125.734 16.0893 124.491 9.49004 123.254C8.26635 123.024 7.00811 122.779 5.96294 122.103C3.94746 120.792 3.19885 118.099 3.52996 115.717C3.86108 113.335 5.07037 111.178 6.2595 109.084L7.79991 106.371C8.00128 105.956 8.28313 105.584 8.62914 105.278C10.8951 103.549 15.3897 104.87 17.3303 106.429Z" fill="#A1616A"/>
<path opacity="0.04" d="M17.3303 106.429C17.9436 106.918 18.482 107.496 19.1125 107.962C19.7794 108.424 20.489 108.822 21.2317 109.15L24.0706 110.513C24.9504 110.97 25.871 111.344 26.8203 111.63C28.0354 111.955 29.3109 111.986 30.5317 112.288C32.0721 112.668 33.4801 113.459 34.9974 113.916C36.5148 114.374 38.2913 114.449 39.5582 113.496C40.35 112.901 40.9489 111.917 41.9307 111.77C42.5641 111.687 43.1746 111.992 43.7389 112.288L51.1271 116.169C52.1233 116.692 53.1771 117.273 53.6983 118.272C54.2194 119.27 53.8681 120.786 52.7711 121.045C52.3888 121.089 52.0043 121.111 51.6194 121.111C51.2394 121.157 50.8248 121.381 50.7729 121.764C50.771 122.001 50.8337 122.235 50.9543 122.44C51.2854 123.199 51.3833 124.108 50.9975 124.845C50.6117 125.581 49.6644 126.038 48.9072 125.708C49.0367 126.821 47.8246 127.6 46.7448 127.897C44.0211 128.642 41.1332 128.184 38.3489 127.713C37.2548 127.529 36.1434 127.339 35.1472 126.85C34.6692 126.617 34.2258 126.317 33.7421 126.102C32.4147 125.512 30.906 125.59 29.4549 125.616C22.7433 125.734 16.0893 124.491 9.49004 123.254C8.26635 123.024 7.00811 122.779 5.96294 122.103C3.94746 120.792 3.19885 118.099 3.52996 115.717C3.86108 113.335 5.07037 111.178 6.2595 109.084L7.79991 106.371C8.00128 105.956 8.28313 105.584 8.62914 105.278C10.8951 103.549 15.3897 104.87 17.3303 106.429Z" fill="black"/>
<path d="M105.223 111.399C103.723 112.107 102.001 112.176 100.434 112.72C98.8682 113.263 97.5379 114.241 96.1012 115.038C92.3581 117.127 88.0392 117.915 83.7981 118.666C81.2269 119.126 78.6154 119.586 76.0241 119.477C72.5171 119.327 69.1484 118.159 65.7508 117.279C62.3533 116.399 58.7283 115.806 55.3625 116.796C53.6048 117.331 51.998 118.272 50.6724 119.542C49.3467 120.813 48.3395 122.379 47.7324 124.111C47.027 126.179 46.9291 128.409 47.0644 130.589C47.7727 131.11 48.7632 130.388 49.149 129.597C49.5348 128.806 49.745 127.836 50.4936 127.376C51.7922 127.816 52.1089 129.545 53.18 130.399C53.848 130.934 54.7405 131.075 55.5899 131.196L59.9664 131.818C61.0202 131.967 62.2439 132.068 63.0069 131.326C63.3783 130.966 63.5828 130.463 63.9225 130.077C64.6193 129.306 65.7825 129.174 66.8191 129.277C70.0553 129.6 73.0901 131.697 76.3034 131.199C77.409 131.029 78.4369 130.558 79.4907 130.186C85.7358 127.983 92.6749 129.324 99.1734 128.061C101.652 127.58 104.039 126.729 106.397 125.831C107.679 125.345 108.974 124.836 110.068 124.013C111.105 123.217 111.922 122.171 112.444 120.973C112.966 119.775 113.175 118.465 113.051 117.164C112.81 115.182 111.821 113.367 110.284 112.09C109.778 111.658 109.113 110.833 108.505 110.562C107.345 110.053 106.207 110.936 105.223 111.399Z" fill="#A1616A"/>
<g opacity="0.1">
<path opacity="0.1" d="M96.8095 74.6508C96.3287 74.225 96.2106 73.5778 95.796 73.106C94.9322 72.1079 93.1874 72.2431 91.765 72.4444C89.286 72.7925 86.2944 72.873 84.7569 71.15C84.0918 70.4078 83.7981 69.424 82.9861 68.8055C81.0916 67.3672 77.8323 68.84 75.7448 67.6232C73.9222 66.5618 74.0403 64.0994 72.52 62.733C70.9998 61.3666 68.3652 61.545 66.3008 62.2267C65.9515 62.387 65.56 62.4314 65.1837 62.3533C64.5301 62.1232 64.5761 61.312 64.7374 60.7136C65.5234 57.8226 66.3238 54.9029 67.8527 52.2449C68.4084 51.2755 69.0649 50.3406 69.4219 49.2993C70.0467 47.4755 69.7271 45.413 70.5477 43.687C69.6667 44.2623 68.8202 44.8894 68.276 45.7006C67.0494 47.5273 67.5245 49.8516 66.8363 51.8796C66.4793 52.9209 65.8229 53.8558 65.2672 54.8252C63.7383 57.4832 62.9378 60.403 62.1518 63.2939C61.9905 63.8923 61.9445 64.7035 62.5981 64.9336C62.9744 65.0117 63.3659 64.9674 63.7152 64.807C65.7797 64.1253 68.4027 63.9297 69.9344 65.3133C71.4662 66.697 71.3366 69.1507 73.1592 70.2036C75.2467 71.4204 78.506 69.9504 80.4006 71.3858C81.2125 72.0014 81.5062 72.9881 82.1713 73.7303C83.7204 75.4562 86.7004 75.3728 89.1794 75.0247C90.6018 74.8234 92.3466 74.6882 93.2104 75.6864C93.625 76.1581 93.7431 76.8054 94.2239 77.2311C95.0877 78.002 96.6684 77.6108 97.512 76.8197C98.053 76.257 98.5159 75.6242 98.8883 74.9384C98.1397 75.1657 97.3422 75.1312 96.8095 74.6508Z" fill="black"/>
<path opacity="0.1" d="M102.055 71.4865C101.87 71.7251 101.698 71.9739 101.54 72.2315C102.646 71.4433 103.818 70.7069 104.644 69.703C104.858 69.4432 105.051 69.1661 105.22 68.8745C104.071 69.6973 102.873 70.4538 102.055 71.4865Z" fill="black"/>
</g>
<path d="M160.225 128.449L161.089 211.008L165.12 210.432L164.256 128.449H160.225Z" fill="#3F3D56"/>
<path d="M184.411 143.407L185.275 225.966L189.306 225.391L188.442 143.407H184.411Z" fill="#3F3D56"/>
<path d="M259.713 185.112L259.695 183.527V182.584L259.543 168.063L259.304 145.361L259.263 143.402H255.232L255.253 145.289L255.379 157.448L255.434 162.712L255.48 166.975L255.555 174.345L255.601 178.692V179.152L255.661 184.865L255.713 189.902L256.041 189.539C256.569 188.951 257.086 188.352 257.591 187.744L259.713 185.112Z" fill="#3F3D56"/>
<path d="M179.948 156.784L177.645 160.224L179.948 175.899L199.527 181.252H231.199L250.202 182.4L259.255 176.209L257.688 165.577L250.778 156.784H179.948Z" fill="#FFB620"/>
<path d="M177.645 160.224L176.493 169.78C176.493 169.78 170.447 188.515 219.106 187.368C267.766 186.22 259.416 182.397 259.416 182.397L259.128 171.31C259.128 171.31 260.824 176.557 236.094 175.847C211.364 175.136 188.298 172.841 188.298 172.841C188.298 172.841 179.66 174.368 177.645 160.224Z" fill="#3F3D56"/>
<path d="M218.185 74.5702C215.409 75.833 213.307 78.281 211.899 80.9879C210.491 83.6948 209.7 86.6663 208.919 89.6177C208.096 92.7302 207.269 95.8513 206.843 99.0415C206.083 104.714 206.653 110.677 209.262 115.772C211.871 120.866 216.69 124.977 222.334 125.958C224.513 126.34 226.753 126.263 228.956 126.036C232.937 125.614 236.859 124.751 240.649 123.461C244.608 122.123 248.728 120.064 250.49 116.269C251.512 114.069 251.599 111.56 251.55 109.138C251.414 102.537 250.416 95.9813 248.581 89.6379C248.049 87.7969 247.429 85.9414 246.301 84.3909C245.172 82.8405 243.629 81.7042 242.054 80.6514C235.319 76.1207 226.468 70.8076 218.185 74.5702Z" fill="#FBBEBE"/>
<path opacity="0.05" d="M218.185 74.5702C215.409 75.833 213.307 78.281 211.899 80.9879C210.491 83.6948 209.7 86.6663 208.919 89.6177C208.096 92.7302 207.269 95.8513 206.843 99.0415C206.083 104.714 206.653 110.677 209.262 115.772C211.871 120.866 216.69 124.977 222.334 125.958C224.513 126.34 226.753 126.263 228.956 126.036C232.937 125.614 236.859 124.751 240.649 123.461C244.608 122.123 248.728 120.064 250.49 116.269C251.512 114.069 251.599 111.56 251.55 109.138C251.414 102.537 250.416 95.9813 248.581 89.6379C248.049 87.7969 247.429 85.9414 246.301 84.3909C245.172 82.8405 243.629 81.7042 242.054 80.6514C235.319 76.1207 226.468 70.8076 218.185 74.5702Z" fill="black"/>
<path d="M215.067 110.778C215.87 111.881 216.842 112.852 217.946 113.655C220.687 115.547 224.205 115.803 227.534 115.907C230.206 115.988 233.269 115.835 234.945 113.752C235.699 112.815 236.039 111.618 236.344 110.453C238.228 103.299 239.566 96.0129 240.347 88.657L247.971 88.6828C251.271 102.798 251 117.472 250.712 131.967L250.294 153.104L245.382 152.584C233.719 151.35 222.037 150.116 210.31 149.903C203.439 149.777 196.566 150.003 189.718 150.582L200.414 118.807C201.802 114.676 203.204 110.49 203.529 106.15C203.999 99.8527 202.231 93.2049 204.681 87.3797C204.877 86.9109 205.125 86.4247 205.571 86.1802C206.017 85.9357 206.581 85.9961 207.094 86.0623C208.061 86.1917 211.018 86.0623 211.721 86.6807C212.758 87.5782 212.072 87.7134 211.707 89.1604C211.053 91.7493 210.434 94.1455 210.443 96.8438C210.451 101.743 211.971 106.915 215.067 110.778Z" fill="#FFB620"/>
<path d="M259.713 185.112C260.997 183.409 262.207 181.646 263.343 179.822C262.767 178.591 262.134 177.389 261.63 176.132C260.858 174.204 260.415 172.162 259.977 170.134C259.828 169.444 259.679 168.753 259.531 168.063C257.919 160.552 256.404 152.935 256.09 145.32C256.062 144.687 256.043 144.055 256.036 143.422C256.036 143.33 256.036 143.241 256.036 143.134C256.036 142.441 256.036 141.748 256.036 141.057C256.07 139.331 256.18 137.591 256.378 135.859C256.416 135.52 256.459 135.18 256.505 134.841C256.505 134.766 256.522 134.694 256.534 134.619L276.113 133.906L277.76 133.846C278.891 133.805 280.089 133.742 281.022 133.101C282.591 132.025 282.775 129.818 282.75 127.923C282.654 123.131 282.111 118.359 281.126 113.669C280.383 110.142 279.323 106.538 276.945 103.828C274.993 101.602 272.165 99.9822 271.149 97.212C270.772 96.1822 270.677 95.0517 270.187 94.0679C269.698 93.0841 268.889 92.362 268.126 91.6026C265.44 88.9442 263.213 85.8612 261.532 82.478C260.366 80.1307 259.102 77.5418 257.579 75.9194C257.504 75.8359 257.429 75.7583 257.352 75.6835C256.056 74.4034 254.573 73.8425 252.817 74.7141C252.501 74.8724 252.2 75.0592 251.918 75.2721C251.292 75.7499 250.72 76.2939 250.211 76.8945C248.437 78.9326 246.88 81.15 245.567 83.5107C244.643 85.1728 243.85 86.904 243.194 88.6886C242.677 90.0985 242.249 91.5397 241.913 93.0035C241.665 94.088 241.47 95.184 241.314 96.2828C240.738 100.414 240.738 104.625 240.819 108.808C240.905 112.651 241.075 116.502 241.423 120.331C241.51 121.258 241.606 122.183 241.711 123.107C241.923 124.935 242.184 126.757 242.495 128.573C242.618 129.266 242.745 129.959 242.886 130.65C242.921 130.834 242.958 131.018 242.996 131.199L243.013 131.277C243.393 132.881 243.688 134.505 243.897 136.141C243.92 136.346 243.937 136.551 243.949 136.754C243.997 137.694 243.989 138.636 243.926 139.576C243.859 140.686 243.756 141.794 243.704 142.904C243.704 143.1 243.704 143.292 243.684 143.479C243.669 144.04 243.684 144.601 243.684 145.162C243.742 146.504 243.902 147.84 244.162 149.158C244.647 151.609 245.486 153.977 246.652 156.188C246.762 156.395 246.874 156.599 246.986 156.801C248.446 159.407 250.289 161.798 251.639 164.464C252.804 166.864 253.674 169.395 254.23 172.004C254.422 172.865 254.605 173.728 254.777 174.593C255.045 175.973 255.284 177.366 255.529 178.758C255.552 178.896 255.578 179.046 255.604 179.172C255.929 181.019 256.272 182.857 256.712 184.661C256.969 185.711 257.257 186.746 257.593 187.765L259.713 185.112Z" fill="#464353"/>
<path d="M255.866 162.439C255.866 162.698 255.849 162.957 255.837 163.219C255.786 164.481 255.669 165.74 255.489 166.99C255.25 168.696 254.832 170.373 254.242 171.992C253.851 173.057 253.353 174.079 252.756 175.044C252.227 175.901 251.607 176.699 250.908 177.423C249.18 179.218 246.693 179.791 244.285 180.547C243.178 180.868 242.108 181.304 241.092 181.85C240.911 181.951 240.732 182.06 240.56 182.175L237.548 184.169C236.609 184.787 235.651 185.429 235.006 186.346C234.9 186.503 234.804 186.665 234.718 186.833C234.31 187.677 234.012 188.571 233.831 189.491C232.265 196.009 230.695 202.533 229.621 209.149C229.549 209.587 229.48 210.027 229.405 210.467L229.38 210.605C229.367 210.572 229.351 210.54 229.333 210.51C221.629 215.164 213.639 219.364 205.407 222.727L203.619 207.769C203.432 206.553 203.371 205.321 203.434 204.092C203.604 202.156 204.393 200.321 204.606 198.391C204.808 196.501 204.451 194.594 203.578 192.905C203.239 192.249 202.813 191.605 202.735 190.871C202.657 190.138 203.08 189.468 203.817 189.393C204.393 188.754 204.439 187.883 204.269 187.02C204.179 186.569 204.044 186.129 203.866 185.705C203.377 184.503 202.758 183.194 203.178 181.965C203.289 181.743 203.339 181.494 203.322 181.246C203.325 181.231 203.325 181.215 203.322 181.2C203.224 180.878 202.841 180.737 202.643 180.464C202.268 179.955 202.643 179.261 202.873 178.675C203.097 178.044 203.227 177.384 203.259 176.716C203.29 176.345 203.314 175.971 203.354 175.602C203.41 175.104 203.499 174.61 203.622 174.124C204.321 171.368 206.003 168.962 208.352 167.358C209.472 166.604 210.719 166.055 211.862 165.344C213.033 164.556 214.151 163.691 215.208 162.755C217.743 160.646 220.38 158.657 223.117 156.789C226.06 154.781 229.109 152.932 232.25 151.249C232.922 150.887 233.594 150.534 234.266 150.19C234.997 149.807 235.733 149.443 236.474 149.1C238.847 147.97 241.539 148.393 244.162 149.146C245.262 149.46 246.347 149.834 247.395 150.173C248.419 150.506 249.403 150.947 250.332 151.491C252.655 152.854 254.576 154.868 255.374 157.411C255.375 157.427 255.375 157.443 255.374 157.46C255.88 159.053 255.912 160.762 255.866 162.439Z" fill="#F86D70"/>
<path opacity="0.1" d="M255.866 162.439C255.866 162.698 255.849 162.957 255.837 163.219C255.786 164.481 255.669 165.74 255.489 166.99C255.25 168.696 254.832 170.373 254.242 171.992C253.851 173.057 253.353 174.079 252.756 175.044C252.227 175.901 251.607 176.699 250.908 177.423C249.18 179.218 246.693 179.791 244.285 180.547C243.178 180.868 242.108 181.304 241.092 181.85C240.911 181.951 240.732 182.06 240.56 182.175L237.548 184.169C236.609 184.787 235.651 185.429 235.006 186.346C234.9 186.503 234.804 186.665 234.718 186.833C234.31 187.677 234.012 188.571 233.831 189.491C232.265 196.009 230.695 202.533 229.621 209.149C229.549 209.587 229.48 210.027 229.405 210.467L229.38 210.605C229.367 210.572 229.351 210.54 229.333 210.51C221.629 215.164 213.639 219.364 205.407 222.727L203.619 207.769C203.432 206.553 203.371 205.321 203.434 204.092C203.604 202.156 204.393 200.321 204.606 198.391C204.808 196.501 204.451 194.594 203.578 192.905C203.239 192.249 202.813 191.605 202.735 190.871C202.657 190.138 203.08 189.468 203.817 189.393C204.393 188.754 204.439 187.883 204.269 187.02C204.179 186.569 204.044 186.129 203.866 185.705C203.377 184.503 202.758 183.194 203.178 181.965C203.289 181.743 203.339 181.494 203.322 181.246C203.325 181.231 203.325 181.215 203.322 181.2C203.224 180.878 202.841 180.737 202.643 180.464C202.268 179.955 202.643 179.261 202.873 178.675C203.097 178.044 203.227 177.384 203.259 176.716C203.29 176.345 203.314 175.971 203.354 175.602C203.41 175.104 203.499 174.61 203.622 174.124C204.321 171.368 206.003 168.962 208.352 167.358C209.472 166.604 210.719 166.055 211.862 165.344C213.033 164.556 214.151 163.691 215.208 162.755C217.743 160.646 220.38 158.657 223.117 156.789C226.06 154.781 229.109 152.932 232.25 151.249C232.922 150.887 233.594 150.534 234.266 150.19C234.997 149.807 235.733 149.443 236.474 149.1C238.847 147.97 241.539 148.393 244.162 149.146C245.262 149.46 246.347 149.834 247.395 150.173C248.419 150.506 249.403 150.947 250.332 151.491C252.655 152.854 254.576 154.868 255.374 157.411C255.375 157.427 255.375 157.443 255.374 157.46C255.88 159.053 255.912 160.762 255.866 162.439Z" fill="black"/>
<path d="M228.527 114.791C228.498 114.724 228.456 114.664 228.403 114.614C228.35 114.564 228.287 114.525 228.219 114.5C228.15 114.474 228.077 114.463 228.004 114.467C227.932 114.47 227.86 114.489 227.795 114.52C227.729 114.552 227.67 114.597 227.623 114.652C227.575 114.707 227.538 114.771 227.516 114.84C227.493 114.91 227.485 114.983 227.492 115.055C227.498 115.128 227.519 115.198 227.554 115.263L227.266 115.404L235.852 132.985L237.404 132.229L228.818 114.636L228.527 114.791Z" fill="#3F3D56"/>
<path d="M239.261 96.3749C249.438 96.3749 257.688 88.1323 257.688 77.9646C257.688 67.7969 249.438 59.5543 239.261 59.5543C229.084 59.5543 220.834 67.7969 220.834 77.9646C220.834 88.1323 229.084 96.3749 239.261 96.3749Z" fill="#FBBEBE"/>
<path d="M263.582 66.5675C263.496 65.104 263.278 63.6512 262.932 62.2267C261.849 57.5752 259.871 52.9957 256.465 49.656C256.255 48.8394 256.004 48.0339 255.713 47.2425C255.708 47.2229 255.701 47.2037 255.693 47.185C254.677 44.3969 253.208 41.7952 251.345 39.4843C250.266 38.1438 248.866 36.8205 247.145 36.7688C246.661 36.7515 246.148 36.8349 245.705 36.6134C245.379 36.4028 245.104 36.1216 244.902 35.7907C244.049 34.7142 242.918 33.891 241.631 33.4098C240.344 32.9287 238.95 32.808 237.6 33.0608L237.421 33.0982C237.32 33.1184 237.22 33.1414 237.133 33.1673C237.047 33.1931 236.891 33.2363 236.771 33.2737C236.903 33.4923 237.033 33.7138 237.159 33.9382C237.501 34.5461 237.818 35.1675 238.109 35.8022C238.351 36.3315 238.575 36.8694 238.78 37.416C235.832 37.7526 233.431 39.8439 231.237 41.8345L226.071 46.5176C226.062 46.5255 226.053 46.5341 226.045 46.5435L225.896 46.6873C225.858 46.7247 225.821 46.7621 225.786 46.8024C225.772 46.8144 225.76 46.8279 225.749 46.8426C225.706 46.8887 225.665 46.9376 225.625 46.9865C225.553 47.0771 225.489 47.1733 225.432 47.2741C225.404 47.3173 225.379 47.3625 225.357 47.4093C225.349 47.4231 225.342 47.4376 225.337 47.4525C225.318 47.4917 225.302 47.5321 225.288 47.5733C225.287 47.579 225.287 47.5849 225.288 47.5905C225.28 47.6141 225.273 47.6381 225.268 47.6625C225.209 47.8649 225.226 48.0818 225.317 48.2723L228.723 48.3097H229.123C229.14 48.7642 229.155 49.2216 229.172 49.6761C228.632 50.0803 228.113 50.5123 227.617 50.9706C227.077 51.4701 226.57 52.0044 226.1 52.57C223.028 56.2779 221.424 61.0674 221.263 65.8886C221.263 66.0382 221.263 66.1763 221.263 66.3316C221.263 66.7717 221.263 67.2119 221.263 67.6491C221.263 67.9368 221.289 68.2244 221.312 68.5121C221.313 68.8868 221.412 69.2546 221.6 69.5793C221.624 69.6156 221.651 69.6502 221.68 69.6829C221.853 69.8702 222.06 70.0226 222.291 70.1316L222.538 70.2524C222.662 70.3129 222.78 70.3704 222.895 70.4366C223.981 71.0493 224.623 72.2316 225.611 72.991C225.668 73.0341 225.726 73.0773 225.783 73.1147L225.913 73.201L225.993 73.2528L226.103 73.316C226.175 73.3593 226.249 73.3986 226.325 73.434L226.463 73.503H226.486C226.601 73.5548 226.716 73.6037 226.834 73.6468L226.998 73.7044L227.047 73.7216C227.093 73.736 227.142 73.7533 227.191 73.7648C227.289 73.7936 227.385 73.8194 227.479 73.8425L227.767 73.9057C227.879 73.9259 227.995 73.946 228.11 73.9604L228.28 73.9834L228.452 74.0007C228.727 74.0256 229.003 74.04 229.282 74.0438C230.155 74.0384 231.027 73.9779 231.893 73.8626L239.241 72.9996C240.908 72.8069 242.61 72.6141 244.254 72.9536C245.647 73.2412 246.931 73.9029 248.285 74.3717C248.59 74.4782 248.895 74.576 249.203 74.6594C249.315 74.691 249.431 74.7256 249.546 74.7543L249.704 74.7946L250.073 74.8838C250.205 74.9154 250.338 74.9471 250.47 74.973C250.657 75.0132 250.842 75.0477 251.029 75.0823C251.155 75.1082 251.285 75.1283 251.414 75.1513H251.44L251.809 75.2088H251.898L252.172 75.2462C252.304 75.2664 252.437 75.2836 252.572 75.298C252.866 75.3344 253.159 75.3661 253.453 75.3929C253.928 75.439 254.406 75.4735 254.893 75.5023L255.371 75.531L255.849 75.554L257.288 75.6173H257.352H257.553C258.152 75.659 258.753 75.6281 259.344 75.5253C259.448 75.5051 259.548 75.4821 259.649 75.4534C259.75 75.4246 259.833 75.3958 259.937 75.3613C261.017 74.9471 261.806 73.9949 262.353 72.9766C262.468 72.7608 262.575 72.5451 262.672 72.3236C262.77 72.1021 262.86 71.8777 262.94 71.6534C263.041 71.3657 263.127 71.0924 263.202 70.8048C263.225 70.7271 263.245 70.6494 263.263 70.5689C263.28 70.4883 263.32 70.3301 263.343 70.2093C263.415 69.8785 263.47 69.5448 263.51 69.2082C263.51 69.1018 263.536 68.9925 263.548 68.8861C263.574 68.5984 263.594 68.3309 263.605 68.049C263.605 67.8361 263.605 67.6203 263.605 67.4046C263.602 67.1716 263.582 66.8638 263.582 66.5675ZM256.2 49.3942C255.967 49.1756 255.728 48.9656 255.486 48.7671C255.755 48.9368 255.995 49.1485 256.197 49.3942H256.2Z" fill="#464353"/>
<path d="M203.895 76.9521C201.727 76.6845 199.576 75.7353 197.437 76.2013C196.098 76.4889 194.946 77.3203 193.875 78.1746C189.889 81.3664 186.5 85.2376 183.864 89.6091C183.417 90.2627 183.103 90.9977 182.94 91.7723C182.802 92.6698 183.046 93.5817 183.337 94.4418C185.307 100.255 189.519 105.111 191.436 110.942C193.452 117.075 192.752 123.777 191.267 130.06C189.425 137.816 186.432 145.253 182.387 152.123C181.838 153.145 181.15 154.086 180.343 154.92C179.295 155.926 177.887 156.645 177.265 157.963C176.977 158.538 176.893 159.194 176.689 159.81C176.113 161.536 174.719 163.014 174.584 164.835C174.483 166.225 175.143 167.539 175.543 168.862C176.218 171.136 176.146 173.565 175.339 175.795C173.879 179.794 170.061 183.43 171.169 187.54C173.643 186.83 176.384 185.906 177.55 183.614C177.962 182.802 178.166 181.836 178.86 181.243C180.245 180.067 182.603 181.131 184.074 180.05C185.186 179.227 185.226 177.541 184.731 176.247C184.235 174.952 183.383 173.813 183.003 172.481C182.341 170.079 183.4 167.539 183.205 165.057C183.113 163.906 182.758 162.804 182.732 161.659C182.684 159.436 183.916 157.344 185.554 155.834C187.192 154.324 189.217 153.323 191.209 152.336L198.741 148.597C201.474 147.245 204.468 145.596 205.363 142.685C205.703 141.595 205.706 140.433 205.723 139.294C205.98 121.887 210.345 104.832 214.684 87.9723C215.357 85.3604 216.043 82.7369 217.045 80.2285C218.047 77.7201 220.007 75.7065 221.007 73.3764C215.211 72.6976 209.916 77.7057 203.895 76.9521Z" fill="#464353"/>
<path d="M245.417 186.151C246.082 190.178 246.488 194.292 246.805 198.385C241.622 202.677 236.042 206.411 230.373 209.874C230.05 210.073 229.725 210.268 229.4 210.45L229.374 210.588C229.361 210.555 229.345 210.523 229.328 210.493C228.888 209.543 228.119 208.785 227.162 208.358C225.038 203.899 222.915 199.441 220.794 194.982C219.642 192.574 218.49 190.144 217.914 187.546C217.914 187.491 217.888 187.434 217.88 187.379C217.442 185.366 217.341 183.274 217.05 181.235C216.903 180.067 216.64 178.916 216.264 177.8C215.919 176.808 215.444 175.844 215.023 174.875C214.505 173.678 214.07 172.467 214.05 171.175C214.05 170.764 214.076 170.312 213.875 169.967C213.659 169.67 213.393 169.413 213.089 169.208C212.709 168.871 212.42 168.443 212.251 167.965C212.082 167.486 212.037 166.973 212.121 166.472C210.394 166.561 209.42 168.417 208.727 169.99C208.096 171.529 207.267 172.979 206.262 174.305C205.529 175.252 204.597 176.027 203.532 176.575C203.437 176.621 203.342 176.667 203.244 176.707C200.84 177.766 198.033 177.392 195.427 176.914C193.15 176.497 190.794 175.979 188.963 174.564L188.767 174.409C188.225 173.958 187.742 173.442 187.328 172.872C185.793 170.778 185.114 168.02 184.736 165.393C184.702 165.146 184.667 164.898 184.636 164.651C184.374 162.795 184.302 160.918 184.42 159.047C184.454 158.587 184.503 158.127 184.564 157.67C184.604 157.382 184.647 157.071 184.696 156.772C184.695 156.763 184.695 156.755 184.696 156.746C184.771 156.272 184.852 155.794 184.932 155.308C185.22 153.677 185.508 152.003 186.372 150.599C186.94 149.725 187.658 148.958 188.491 148.332C188.802 148.088 189.122 147.855 189.444 147.63C189.968 147.268 190.507 146.923 191.054 146.598C192.43 145.774 193.875 145.072 195.372 144.498C195.73 144.36 196.092 144.23 196.455 144.106C197.865 143.605 199.383 143.485 200.855 143.758C202.159 143.947 203.476 144.024 204.793 143.988C208.171 143.922 211.563 143.278 214.934 142.861C219.616 142.285 224.646 142.216 228.729 144.587C228.925 144.699 229.115 144.817 229.305 144.941C231.32 146.258 232.944 148.105 234.254 150.167C234.542 150.602 234.793 151.048 235.04 151.499C235.611 152.536 236.127 153.602 236.586 154.692C236.858 155.228 237.005 155.818 237.015 156.418C237.009 156.532 236.993 156.646 236.969 156.758C236.891 157.166 236.736 157.563 236.681 157.977C236.5 159.545 237.833 160.854 238.331 162.347C238.654 163.319 238.619 164.361 238.8 165.385C239.062 166.823 239.768 168.117 240.401 169.412C241.402 171.496 242.259 173.646 242.964 175.847C243.465 177.38 243.894 178.936 244.271 180.507C244.394 181.011 244.51 181.517 244.619 182.023C244.933 183.415 245.19 184.779 245.417 186.151Z" fill="#F86D70"/>
<path d="M276.116 143.551V145.565L275.744 145.559L275.33 145.553L270.7 145.496L259.292 145.346L256.09 145.306L255.261 145.294L250.456 145.234L243.684 145.145L229.316 144.958L204.385 144.636L195.387 144.521L191.776 144.475L188.454 144.431L186.383 144.403L184.423 144.377L169.885 144.19L165.854 144.138L164.976 144.127L164.406 142.657L160.263 131.981L159.505 130.031L160.081 127.73L162.673 129.456L164.268 129.654L190.53 132.916L195.459 133.529L205.911 134.829L216.149 136.101L220.163 136.598L243.914 139.55L250.551 140.375L256.044 141.057L275.577 143.485L276.116 143.551Z" fill="#3F3D56"/>
<path d="M160.081 127.73L165.264 141.25L276.116 143.551V128.881L160.081 127.73Z" fill="#504F60"/>
<path d="M165.84 142.688L166.704 225.247L170.735 224.671L169.871 142.688H165.84Z" fill="#3F3D56"/>
<path d="M275.744 145.556H275.33C274.658 150.703 273.548 155.784 272.01 160.742L270.7 145.496L270.645 144.846L275.488 144.288L275.649 144.27L275.744 145.556Z" fill="#3F3D56"/>
<path d="M259.992 135.784L217.811 136.647L204.71 132.332L239.837 130.319L259.992 135.784Z" fill="white"/>
<path d="M207.08 119.008C206.632 119.179 206.236 119.462 205.928 119.828C205.687 120.225 205.54 120.671 205.499 121.134L204.791 125.354C204.683 125.74 204.702 126.15 204.845 126.525C205.03 126.878 205.565 127.063 205.833 126.769C205.798 127.595 205.87 128.475 206.351 129.148C206.832 129.821 207.84 130.175 208.519 129.706C208.626 129.88 208.769 130.028 208.938 130.141C209.108 130.253 209.3 130.328 209.501 130.359C209.703 130.39 209.908 130.377 210.104 130.321C210.3 130.265 210.481 130.167 210.635 130.034C210.227 130.172 210.198 130.796 210.489 131.113C210.814 131.4 211.229 131.566 211.663 131.582C216.723 132.294 221.881 131.646 226.607 129.703C227.053 129.519 225.878 124.022 225.76 123.458C225.472 122.132 225.328 120.513 224.208 119.621C221.531 117.486 216.774 117.066 213.512 117.319C211.283 117.488 209.103 118.06 207.08 119.008Z" fill="#FBBEBE"/>
<path opacity="0.1" d="M249.998 119.647C239.584 119.845 228.953 120.015 219.014 116.899C219.964 120.575 219.898 124.439 218.824 128.081L267.518 132.108C269.583 132.278 278.143 133.244 280.155 132.758C282.168 132.272 263.268 126.053 264.031 124.128C266.13 118.827 273.162 115.72 268.097 115.522C261.705 115.268 256.439 119.526 249.998 119.647Z" fill="black"/>
<path d="M250.286 120.222C239.872 120.42 229.241 120.59 219.302 117.475C220.252 121.151 220.186 125.015 219.112 128.656L267.806 132.683C269.871 132.853 278.431 133.834 280.443 133.334C282.456 132.833 281.984 130.368 282.747 128.443C284.846 123.142 273.45 116.295 268.385 116.097C261.993 115.844 256.727 120.101 250.286 120.222Z" fill="#464353"/>
<path d="M233.727 121.022C234.174 121.193 234.571 121.475 234.879 121.841C235.119 122.239 235.267 122.685 235.311 123.147L236.019 127.367C236.126 127.754 236.106 128.164 235.964 128.538C235.78 128.892 235.242 129.076 234.977 128.783C235.008 129.608 234.939 130.489 234.458 131.162C233.978 131.835 232.97 132.189 232.287 131.72C232.181 131.893 232.038 132.041 231.868 132.154C231.699 132.267 231.507 132.342 231.305 132.373C231.104 132.404 230.898 132.391 230.702 132.335C230.507 132.279 230.325 132.181 230.171 132.048C230.58 132.186 230.612 132.81 230.321 133.126C229.994 133.414 229.578 133.579 229.143 133.595C224.085 134.308 218.927 133.659 214.203 131.717C213.757 131.533 214.928 126.036 215.049 125.472C215.337 124.146 215.481 122.526 216.601 121.634C219.276 119.5 224.035 119.08 227.298 119.333C229.526 119.502 231.704 120.074 233.727 121.022Z" fill="#FBBEBE"/>
<path d="M164.913 111.86C163.957 113.091 162.998 114.348 162.382 115.783C161.204 118.522 161.377 121.623 161.573 124.597C161.627 125.46 161.697 126.34 162.149 127.057C162.539 127.598 163.055 128.037 163.652 128.337C166.145 129.752 169.065 130.175 171.915 130.491C176.28 130.975 180.66 131.269 185.056 131.375C195.945 131.639 207.002 130.75 217.609 133.216C216.296 131.222 216.299 128.584 217.033 126.312C217.767 124.039 219.181 122.06 220.566 120.113C215.712 118.577 210.506 120.976 205.421 120.737C200.201 120.492 195.37 117.478 190.144 117.481C189.021 117.481 187.878 117.621 186.787 117.351C185.695 117.081 184.639 116.258 184.538 115.139C185.931 115.453 187.253 114.262 187.829 112.956C188.405 111.65 188.508 110.174 189.067 108.859C190.458 105.589 194.215 104.073 196.553 101.38C196.922 100.954 197.27 100.451 197.258 99.8872C197.203 99.4096 197.002 98.9606 196.683 98.6014C194.739 96.0124 191.811 94.5741 189.378 92.5605C188.531 91.8586 186.824 89.2121 185.874 88.9676C184.112 88.516 182.617 91.0589 181.471 92.2987C175.686 98.5793 170.166 105.1 164.913 111.86Z" fill="#464353"/>
<path opacity="0.07" d="M222.809 111.129C223.539 111.67 224.187 112.312 224.735 113.036C225.008 113.4 225.203 113.816 225.306 114.259C225.41 114.702 225.42 115.161 225.337 115.608C225.248 114.774 225.434 113.934 225.867 113.216C226.3 112.498 226.956 111.94 227.735 111.63L222.809 111.129Z" fill="black"/>
<g opacity="0.1">
<path opacity="0.1" d="M238.777 35.6929C238.439 34.7938 238.048 33.915 237.608 33.0608C237.324 33.1154 237.043 33.1875 236.768 33.2766C237.262 34.0963 237.707 34.9445 238.101 35.8166C238.322 35.7591 238.547 35.7188 238.777 35.6929Z" fill="black"/>
<path opacity="0.1" d="M255.483 47.0354C255.561 47.0986 255.635 47.1706 255.71 47.2367C255.705 47.2181 255.698 47.1998 255.69 47.1821C255.625 47.1341 255.556 47.0852 255.483 47.0354Z" fill="black"/>
<path opacity="0.1" d="M228.717 48.3011C228.867 48.1831 229.005 48.0594 229.166 47.9444L229.12 46.578L226.045 46.5463C225.547 47.0037 225.017 47.6596 225.311 48.2723L228.717 48.3011Z" fill="black"/>
<path opacity="0.1" d="M262.335 71.3024C261.788 72.3207 260.999 73.2758 259.92 73.6871C259.088 74.0035 258.172 73.9748 257.282 73.9345C254.248 73.8108 251.161 73.6756 248.293 72.6717C246.952 72.1999 245.667 71.5412 244.262 71.2506C242.618 70.9112 240.917 71.1039 239.249 71.2995L231.902 72.1625C229.734 72.4156 227.318 72.6055 225.587 71.2765C224.597 70.5171 223.958 69.3348 222.872 68.725C222.414 68.4661 221.87 68.2992 221.574 67.862C221.386 67.5373 221.287 67.1695 221.286 66.7947C221.263 66.4927 221.248 66.1907 221.237 65.8886C221.206 66.7662 221.222 67.6449 221.286 68.5207C221.287 68.8954 221.386 69.2633 221.574 69.5879C221.862 70.0223 222.414 70.1891 222.872 70.4509C223.958 71.0608 224.6 72.243 225.587 73.0025C227.315 74.3315 229.734 74.1531 231.902 73.8885L239.249 73.0255C240.917 72.8299 242.618 72.6371 244.262 72.9766C245.656 73.2642 246.94 73.9259 248.293 74.3976C251.173 75.4016 254.248 75.5483 257.282 75.6605C258.172 75.6979 259.088 75.7295 259.92 75.4131C260.999 75.0017 261.788 74.0467 262.335 73.0284C263.395 71.0579 263.692 68.8228 263.579 66.5704C263.518 68.2198 263.093 69.8355 262.335 71.3024Z" fill="black"/>
</g>
<path opacity="0.1" d="M238.694 37.5426L242.725 41.2822C242.725 41.2822 239.27 39.8439 238.694 37.5426Z" fill="black"/>
</g>
<defs>
<clipPath id="clip0">
<rect width="283" height="231" fill="white"/>
</clipPath>
</defs>
</svg>
