<svg width="263" height="197" viewBox="0 0 263 197" fill="none" xmlns="http://www.w3.org/2000/svg">
<g clip-path="url(#clip0)">
<path opacity="0.1" d="M136.812 197C182.996 197 220.435 194.971 220.435 192.469C220.435 189.966 182.996 187.938 136.812 187.938C90.6289 187.938 53.1898 189.966 53.1898 192.469C53.1898 194.971 90.6289 197 136.812 197Z" fill="#6C63FF"/>
<path d="M184.179 174.704L183.46 175.76L179.013 182.384L175.237 183.524L172.421 180.764L172.557 178.943L173.26 169.485C173.26 169.485 155.832 159.22 154.274 157.3C152.715 155.38 146.722 153.64 146.722 153.64C146.722 153.64 137.553 149.38 134.137 141.94C130.721 134.5 139.83 133.36 139.83 133.36L174.051 166.125L184.179 174.704Z" fill="#FFC1C7"/>
<path d="M188.374 178.544L177.527 188.684C177.527 188.684 171.294 189.884 165.72 189.044C162.158 188.507 162.844 186.551 163.781 185.204L163.798 185.18C164.359 184.41 165.18 183.87 166.109 183.659C170.721 182.545 172.313 179.202 172.313 179.202L175.669 182.082L181.482 175.3L185.781 177.32L188.374 178.544Z" fill="#575988"/>
<path opacity="0.1" d="M185.78 177.325L183.227 176.125L183.467 175.76L184.186 174.704L174.051 166.125L139.83 133.365C139.83 133.365 130.721 134.5 134.137 141.94C137.553 149.38 146.722 153.64 146.722 153.64C146.722 153.64 152.715 155.38 154.274 157.3C155.832 159.22 173.272 169.48 173.272 169.48L172.569 178.938L172.536 179.389L172.313 179.2C172.313 179.2 170.721 182.543 166.109 183.656C165.18 183.867 164.359 184.408 163.798 185.178L163.781 185.202C162.822 186.546 162.158 188.502 165.72 189.042C171.294 189.882 177.527 188.682 177.527 188.682L188.374 178.542L185.78 177.325Z" fill="black"/>
<path opacity="0.1" d="M2.84076 103.193C7.00235 121.001 15.8122 136.394 29.7329 143.86C58.6698 159.369 123.925 151.37 172.625 142.18C197.234 137.554 219.572 124.769 236.041 105.886L2.84076 103.193Z" fill="#6C63FF"/>
<path opacity="0.1" d="M258.23 19.3724H231.508C230.908 19.3531 230.339 19.101 229.922 18.6694C229.505 18.2379 229.271 17.6608 229.271 17.0601C229.271 16.4594 229.505 15.8822 229.922 15.4507C230.339 15.0191 230.908 14.767 231.508 14.7477H236.127C235.515 14.7477 234.928 14.5042 234.495 14.0708C234.062 13.6374 233.819 13.0495 233.819 12.4366C233.819 11.8236 234.062 11.2357 234.495 10.8023C234.928 10.3689 235.515 10.1254 236.127 10.1254H232.829C232.229 10.1061 231.66 9.85396 231.243 9.42242C230.825 8.99088 230.592 8.41374 230.592 7.81305C230.592 7.21235 230.825 6.63521 231.243 6.20367C231.66 5.77213 232.229 5.52004 232.829 5.50069H246.776C243.681 4.06072 240.063 3.03594 235.895 2.49835C197.865 -2.39035 184.287 0.842387 179.497 4.17832C173.588 8.28224 166.996 11.3014 159.95 12.7557C136.486 17.6012 92.605 23.4307 52.8326 10.8886C33.065 4.64871 18.3748 15.1893 9.56738 32.7953H262.868C262.537 27.6786 261.547 22.9555 259.73 18.818C259.312 19.1763 258.78 19.373 258.23 19.3724Z" fill="#6C63FF"/>
<path opacity="0.1" d="M0.572925 66.0227C-0.453448 76.3796 -0.105219 86.827 1.60853 97.0924L236.221 105.682C242.752 98.1615 248.236 89.7894 252.522 80.7944L0.572925 66.0227ZM93.3649 88.1814H88.7454C89.055 88.1714 89.3634 88.2239 89.6524 88.3356C89.9413 88.4473 90.2048 88.616 90.4274 88.8317C90.6499 89.0474 90.8268 89.3057 90.9477 89.5912C91.0685 89.8768 91.1308 90.1837 91.1308 90.4938C91.1308 90.8039 91.0685 91.1108 90.9477 91.3963C90.8268 91.6818 90.6499 91.9401 90.4274 92.1558C90.2048 92.3715 89.9413 92.5403 89.6524 92.652C89.3634 92.7637 89.055 92.8161 88.7454 92.8061H62.0235C61.4238 92.7868 60.8551 92.5347 60.4377 92.1031C60.0203 91.6716 59.787 91.0945 59.787 90.4938C59.787 89.8931 60.0203 89.3159 60.4377 88.8844C60.8551 88.4529 61.4238 88.2008 62.0235 88.1814H66.643C66.0307 88.1814 65.4435 87.9379 65.0106 87.5045C64.5776 87.0711 64.3344 86.4832 64.3344 85.8703C64.3344 85.2573 64.5776 84.6695 65.0106 84.236C65.4435 83.8026 66.0307 83.5591 66.643 83.5591H63.3444C62.7447 83.5398 62.176 83.2877 61.7586 82.8561C61.3412 82.4246 61.1079 81.8475 61.1079 81.2468C61.1079 80.6461 61.3412 80.0689 61.7586 79.6374C62.176 79.2058 62.7447 78.9537 63.3444 78.9344H90.0663C90.666 78.9537 91.2346 79.2058 91.652 79.6374C92.0694 80.0689 92.3028 80.6461 92.3028 81.2468C92.3028 81.8475 92.0694 82.4246 91.652 82.8561C91.2346 83.2877 90.666 83.5398 90.0663 83.5591H93.3649C93.9771 83.5591 94.5643 83.8026 94.9972 84.236C95.4302 84.6695 95.6734 85.2573 95.6734 85.8703C95.6734 86.4832 95.4302 87.0711 94.9972 87.5045C94.5643 87.9379 93.9771 88.1814 93.3649 88.1814Z" fill="#6C63FF"/>
<path opacity="0.1" d="M262.88 32.9489L6.74098 39.1888C3.62458 47.207 1.57016 56.2621 0.611267 65.6675H258.392C260.075 60.148 261.32 54.5042 262.115 48.7886C262.882 43.2663 263.189 37.924 262.88 32.9489ZM52.612 53.3821H47.9925C48.3021 53.3721 48.6105 53.4246 48.8994 53.5363C49.1884 53.648 49.4519 53.8167 49.6745 54.0324C49.897 54.2481 50.0739 54.5064 50.1947 54.7919C50.3156 55.0774 50.3778 55.3844 50.3778 55.6945C50.3778 56.0046 50.3156 56.3115 50.1947 56.597C50.0739 56.8825 49.897 57.1408 49.6745 57.3565C49.4519 57.5722 49.1884 57.741 48.8994 57.8527C48.6105 57.9644 48.3021 58.0168 47.9925 58.0068H21.2706C20.6709 57.9875 20.1022 57.7354 19.6848 57.3038C19.2674 56.8723 19.0341 56.2952 19.0341 55.6945C19.0341 55.0938 19.2674 54.5166 19.6848 54.0851C20.1022 53.6536 20.6709 53.4015 21.2706 53.3821H25.89C25.2778 53.3821 24.6906 53.1386 24.2577 52.7052C23.8247 52.2718 23.5815 51.6839 23.5815 51.071C23.5815 50.458 23.8247 49.8702 24.2577 49.4367C24.6906 49.0033 25.2778 48.7598 25.89 48.7598H22.5915C21.9918 48.7405 21.4231 48.4884 21.0057 48.0568C20.5883 47.6253 20.3549 47.0481 20.3549 46.4475C20.3549 45.8468 20.5883 45.2696 21.0057 44.8381C21.4231 44.4065 21.9918 44.1544 22.5915 44.1351H49.3134C49.9131 44.1544 50.4817 44.4065 50.8991 44.8381C51.3165 45.2696 51.5499 45.8468 51.5499 46.4475C51.5499 47.0481 51.3165 47.6253 50.8991 48.0568C50.4817 48.4884 49.9131 48.7405 49.3134 48.7598H52.612C53.2242 48.7598 53.8114 49.0033 54.2443 49.4367C54.6773 49.8702 54.9205 50.458 54.9205 51.071C54.9205 51.6839 54.6773 52.2718 54.2443 52.7052C53.8114 53.1386 53.2242 53.3821 52.612 53.3821Z" fill="#6C63FF"/>
<g opacity="0.1">
<path opacity="0.1" d="M191.134 118.466C191.134 118.466 197.894 101.787 210.518 95.5997C215.829 93.0388 220.168 88.8212 222.88 83.5807C224.149 81.0834 225.186 78.4749 225.98 75.7881" stroke="#535461" stroke-width="2" stroke-miterlimit="10"/>
<path opacity="0.1" d="M233.912 71.8425C232.596 73.4985 225.786 75.9225 225.786 75.9225C225.786 75.9225 226.605 68.7346 227.921 67.0786C228.222 66.6495 228.606 66.2864 229.052 66.0117C229.498 65.737 229.995 65.5565 230.513 65.4813C231.031 65.4061 231.558 65.4378 232.064 65.5745C232.569 65.7111 233.041 65.9499 233.45 66.276C233.86 66.602 234.199 67.0086 234.445 67.4706C234.692 67.9326 234.842 68.4403 234.885 68.9624C234.929 69.4846 234.865 70.0101 234.698 70.5066C234.531 71.0032 234.265 71.4602 233.915 71.8497L233.912 71.8425Z" fill="#6C63FF"/>
<path opacity="0.1" d="M231.575 84.9583C229.571 85.6327 222.542 83.9551 222.542 83.9551C222.542 83.9551 227.133 78.368 229.137 77.6936C229.622 77.4944 230.143 77.3971 230.668 77.4076C231.192 77.418 231.709 77.5361 232.186 77.7545C232.663 77.9729 233.091 78.287 233.442 78.6773C233.793 79.0676 234.06 79.5259 234.227 80.0238C234.394 80.5216 234.458 81.0485 234.413 81.5719C234.369 82.0952 234.218 82.6039 233.969 83.0664C233.72 83.5289 233.38 83.9354 232.968 84.2608C232.556 84.5862 232.082 84.8236 231.575 84.9583Z" fill="#6C63FF"/>
<path opacity="0.1" d="M218.903 100.464C216.834 100.032 211.611 95.0333 211.611 95.0333C211.611 95.0333 218.392 92.5301 220.461 92.9597C221.403 93.2175 222.211 93.825 222.72 94.6584C223.23 95.4918 223.403 96.4883 223.205 97.4451C223.006 98.4018 222.45 99.2468 221.651 99.8077C220.852 100.369 219.869 100.604 218.903 100.464Z" fill="#6C63FF"/>
<path opacity="0.1" d="M206.677 110.033C204.565 109.961 198.572 105.915 198.572 105.915C198.572 105.915 204.834 102.3 206.946 102.375C207.471 102.358 207.993 102.45 208.481 102.644C208.969 102.838 209.412 103.13 209.783 103.503C210.153 103.875 210.444 104.32 210.636 104.809C210.828 105.299 210.917 105.822 210.899 106.347C210.88 106.873 210.754 107.389 210.529 107.863C210.303 108.338 209.982 108.761 209.586 109.107C209.191 109.452 208.728 109.713 208.228 109.872C207.727 110.031 207.2 110.086 206.677 110.033Z" fill="#6C63FF"/>
<path opacity="0.1" d="M215.998 79.268C216.266 81.3679 220.845 86.9646 220.845 86.9646C220.845 86.9646 223.86 80.3888 223.59 78.2912C223.402 77.3348 222.858 76.4856 222.069 75.9157C221.279 75.3457 220.302 75.0977 219.337 75.222C218.371 75.3462 217.489 75.8333 216.869 76.5847C216.249 77.336 215.937 78.2952 215.998 79.268Z" fill="#6C63FF"/>
<path opacity="0.1" d="M201.839 90.6414C202.724 92.5613 208.768 96.5332 208.768 96.5332C208.768 96.5332 209.676 89.3574 208.791 87.435C208.326 86.5791 207.554 85.9322 206.63 85.6253C205.707 85.3183 204.701 85.3744 203.817 85.782C202.933 86.1897 202.237 86.9185 201.87 87.8208C201.503 88.7231 201.492 89.7313 201.839 90.6414Z" fill="#6C63FF"/>
<path opacity="0.1" d="M189.595 103.587C190.143 105.631 195.427 110.566 195.427 110.566C195.427 110.566 197.537 103.647 196.99 101.602C196.68 100.675 196.028 99.9018 195.168 99.4395C194.307 98.9772 193.303 98.8607 192.36 99.1138C191.417 99.3669 190.606 99.9705 190.092 100.802C189.578 101.633 189.4 102.629 189.595 103.587Z" fill="#6C63FF"/>
<path opacity="0.25" d="M233.912 71.8425C232.596 73.4985 225.786 75.9225 225.786 75.9225C225.786 75.9225 226.605 68.7346 227.921 67.0786C228.222 66.6495 228.606 66.2864 229.052 66.0117C229.498 65.737 229.995 65.5565 230.513 65.4813C231.031 65.4061 231.558 65.4378 232.064 65.5745C232.569 65.7111 233.041 65.9499 233.45 66.276C233.86 66.602 234.199 67.0086 234.445 67.4706C234.692 67.9326 234.842 68.4403 234.885 68.9624C234.929 69.4846 234.865 70.0101 234.698 70.5066C234.531 71.0032 234.265 71.4602 233.915 71.8497L233.912 71.8425Z" fill="black"/>
<path opacity="0.25" d="M231.575 84.9583C229.571 85.6327 222.542 83.9551 222.542 83.9551C222.542 83.9551 227.133 78.368 229.137 77.6936C229.622 77.4944 230.143 77.3971 230.668 77.4076C231.192 77.418 231.709 77.5361 232.186 77.7545C232.663 77.9729 233.091 78.287 233.442 78.6773C233.793 79.0676 234.06 79.5259 234.227 80.0238C234.394 80.5216 234.458 81.0485 234.413 81.5719C234.369 82.0952 234.218 82.6039 233.969 83.0664C233.72 83.5289 233.38 83.9354 232.968 84.2608C232.556 84.5862 232.082 84.8236 231.575 84.9583Z" fill="black"/>
<path opacity="0.25" d="M218.903 100.464C216.834 100.032 211.611 95.0333 211.611 95.0333C211.611 95.0333 218.392 92.5301 220.461 92.9597C221.403 93.2175 222.211 93.825 222.72 94.6584C223.23 95.4918 223.403 96.4883 223.205 97.4451C223.006 98.4018 222.45 99.2468 221.651 99.8077C220.852 100.369 219.869 100.604 218.903 100.464Z" fill="black"/>
<path opacity="0.25" d="M206.677 110.033C204.565 109.961 198.572 105.915 198.572 105.915C198.572 105.915 204.834 102.3 206.946 102.375C207.471 102.358 207.993 102.45 208.481 102.644C208.969 102.838 209.412 103.13 209.783 103.503C210.153 103.875 210.444 104.32 210.636 104.809C210.828 105.299 210.917 105.822 210.899 106.347C210.88 106.873 210.754 107.389 210.529 107.863C210.303 108.338 209.982 108.761 209.586 109.107C209.191 109.452 208.728 109.713 208.228 109.872C207.727 110.031 207.2 110.086 206.677 110.033Z" fill="black"/>
<path opacity="0.25" d="M215.998 79.268C216.266 81.3679 220.845 86.9646 220.845 86.9646C220.845 86.9646 223.86 80.3888 223.59 78.2912C223.402 77.3348 222.858 76.4856 222.069 75.9157C221.279 75.3457 220.302 75.0977 219.337 75.222C218.371 75.3462 217.489 75.8333 216.869 76.5847C216.249 77.336 215.937 78.2952 215.998 79.268Z" fill="black"/>
<path opacity="0.25" d="M201.839 90.6414C202.724 92.5613 208.768 96.5332 208.768 96.5332C208.768 96.5332 209.676 89.3574 208.791 87.435C208.326 86.5791 207.554 85.9322 206.63 85.6253C205.707 85.3183 204.701 85.3744 203.817 85.782C202.933 86.1897 202.237 86.9185 201.87 87.8208C201.503 88.7231 201.492 89.7313 201.839 90.6414Z" fill="black"/>
<path opacity="0.25" d="M189.595 103.587C190.143 105.631 195.427 110.566 195.427 110.566C195.427 110.566 197.537 103.647 196.99 101.602C196.68 100.675 196.028 99.9018 195.168 99.4395C194.307 98.9772 193.303 98.8607 192.36 99.1138C191.417 99.3669 190.606 99.9705 190.092 100.802C189.578 101.633 189.4 102.629 189.595 103.587Z" fill="black"/>
</g>
<g opacity="0.1">
<path opacity="0.1" d="M180.37 91.7813C180.37 91.7813 181.223 73.8009 191.083 63.7715C195.246 59.5922 197.941 54.174 198.766 48.3302C199.134 45.5504 199.246 42.7427 199.102 39.9424" stroke="#535461" stroke-width="2" stroke-miterlimit="10"/>
<path opacity="0.1" d="M205.284 33.5825C204.592 35.5841 198.968 40.1248 198.968 40.1248C198.968 40.1248 197.361 33.0713 198.052 31.0722C198.43 30.1737 199.136 29.4531 200.026 29.0563C200.915 28.6596 201.922 28.6166 202.843 28.936C203.763 29.2554 204.527 29.9133 204.981 30.7762C205.434 31.6391 205.543 32.6424 205.284 33.5825Z" fill="#6C63FF"/>
<path opacity="0.1" d="M207.425 46.7343C205.747 48.035 198.57 48.7886 198.57 48.7886C198.57 48.7886 201.051 41.992 202.717 40.6912C203.522 40.1419 204.506 39.9201 205.469 40.0709C206.432 40.2217 207.301 40.7337 207.901 41.503C208.5 42.2723 208.785 43.2412 208.696 44.2128C208.608 45.1844 208.153 46.086 207.425 46.7343Z" fill="#6C63FF"/>
<path opacity="0.1" d="M200.607 65.5691C198.512 65.8499 191.927 62.8667 191.927 62.8667C191.927 62.8667 197.496 58.254 199.598 57.9732C200.57 57.9066 201.531 58.2128 202.286 58.8296C203.04 59.4464 203.532 60.3276 203.662 61.2943C203.791 62.261 203.548 63.2408 202.982 64.0347C202.416 64.8286 201.57 65.3772 200.614 65.5691H200.607Z" fill="#6C63FF"/>
<path opacity="0.1" d="M192.241 78.656C190.225 79.2896 183.232 77.456 183.232 77.456C183.232 77.456 187.94 71.9697 189.959 71.3386C190.449 71.1469 190.973 71.0582 191.499 71.0781C192.025 71.0979 192.541 71.2259 193.015 71.4539C193.489 71.682 193.912 72.0053 194.256 72.4038C194.6 72.8023 194.859 73.2673 195.015 73.7701C195.172 74.2729 195.224 74.8026 195.168 75.3264C195.112 75.8501 194.948 76.3566 194.688 76.8144C194.428 77.2723 194.076 77.6716 193.655 77.9876C193.234 78.3036 192.753 78.5295 192.241 78.6512V78.656Z" fill="#6C63FF"/>
<path opacity="0.1" d="M190.843 46.5375C191.802 48.4286 197.968 52.1893 197.968 52.1893C197.968 52.1893 198.632 44.9895 197.683 43.0959C197.189 42.2555 196.395 41.6344 195.461 41.3586C194.527 41.0828 193.524 41.173 192.654 41.6108C191.784 42.0485 191.112 42.8012 190.776 43.7161C190.44 44.631 190.464 45.6396 190.843 46.5375Z" fill="#6C63FF"/>
<path opacity="0.1" d="M181.254 61.9691C182.726 63.4883 189.741 65.2283 189.741 65.2283C189.741 65.2283 188.223 58.1532 186.751 56.634C186.03 55.9769 185.085 55.6198 184.11 55.6354C183.134 55.6509 182.201 56.038 181.501 56.7178C180.8 57.3976 180.385 58.3191 180.339 59.2946C180.294 60.2702 180.621 61.2266 181.254 61.9691Z" fill="#6C63FF"/>
<path opacity="0.1" d="M173.991 78.2456C175.189 79.9928 181.806 82.8943 181.806 82.8943C181.806 82.8943 181.501 75.6657 180.31 73.9185C179.707 73.1573 178.839 72.6529 177.88 72.507C176.921 72.3611 175.942 72.5845 175.141 73.1322C174.34 73.68 173.776 74.5113 173.562 75.4588C173.349 76.4063 173.502 77.3995 173.991 78.2384V78.2456Z" fill="#6C63FF"/>
</g>
<path opacity="0.1" d="M103.323 20.5196C103.323 20.5196 97.6103 20.1764 98.2888 24.1843C98.254 24.3877 98.2845 24.5968 98.3758 24.7818C98.4671 24.9667 98.6145 25.118 98.797 25.2139C98.797 25.2139 98.797 24.9163 99.3819 25.0171C99.5868 25.0528 99.7953 25.0633 100.003 25.0483C100.283 25.0288 100.55 24.9185 100.763 24.7339C100.763 24.7339 102.369 24.0691 102.992 21.4412C102.992 21.4412 103.455 20.8676 103.436 20.7212L102.477 21.134C102.477 21.134 102.805 21.83 102.546 22.4084C102.546 22.4084 102.515 21.158 102.331 21.1868C102.292 21.1868 101.829 21.4268 101.829 21.4268C101.829 21.4268 102.398 22.6411 101.969 23.5219C101.969 23.5219 102.132 22.0268 101.652 21.5156L100.974 21.9116C100.974 21.9116 101.635 23.1643 101.187 24.1867C101.187 24.1867 101.302 22.6195 100.832 22.0076L100.216 22.4876C100.216 22.4876 100.839 23.7235 100.456 24.5707C100.456 24.5707 100.408 22.7443 100.079 22.6075C99.8469 22.8048 99.6393 23.0296 99.461 23.2771C99.461 23.2771 99.8853 24.1747 99.6216 24.6475C99.6216 24.6475 99.461 23.4307 99.3268 23.4259C99.3268 23.4259 98.7898 24.2323 98.7347 24.7843C98.7604 24.2721 98.92 23.7756 99.1973 23.3443C98.8879 23.4031 98.6022 23.5507 98.3751 23.7691C98.3751 23.7691 98.459 23.2003 99.334 23.1499C99.334 23.1499 99.7774 22.538 99.8949 22.502C99.8949 22.502 99.0295 22.4276 98.5069 22.6627C98.5069 22.6627 98.9672 22.1252 100.053 22.3676L100.662 21.8732C100.662 21.8732 99.5233 21.7172 99.0391 21.8876C99.0391 21.8876 99.5953 21.4076 100.825 21.7604L101.487 21.3644C100.978 21.2516 100.456 21.2064 99.9357 21.23C99.9357 21.23 100.547 20.9012 101.681 21.2564L102.16 21.0452C102.16 21.0452 101.441 20.906 101.24 20.882C101.038 20.858 101.022 20.8028 101.022 20.8028C101.472 20.7276 101.934 20.7791 102.357 20.9516C102.357 20.9516 103.342 20.5844 103.323 20.5196Z" fill="#6C63FF"/>
<path opacity="0.1" d="M88.3211 40.024C88.3211 40.024 86.3697 45.4119 90.3995 45.9039C90.5847 45.9947 90.7939 46.0246 90.9971 45.9892C91.2003 45.9539 91.3872 45.8551 91.531 45.7071C91.531 45.7071 91.2481 45.6135 91.5094 45.0903C91.5984 44.903 91.6644 44.7055 91.706 44.5023C91.7673 44.2276 91.7379 43.9404 91.6221 43.6839C91.6221 43.6839 91.4423 41.9535 89.1026 40.6096C89.1026 40.6096 88.6831 40.0024 88.5368 39.9784L88.6591 41.02C88.6591 41.02 89.419 40.9024 89.9009 41.3152C89.9009 41.3152 88.7022 40.9912 88.6687 41.176C88.6687 41.2144 88.7574 41.7256 88.7574 41.7256C88.7574 41.7256 90.0806 41.5264 90.8046 42.1863C90.8046 42.1863 89.419 41.608 88.7933 41.9199L88.9803 42.6855C88.9803 42.6855 90.3683 42.4047 91.2193 43.1271C91.2193 43.1271 89.7498 42.5703 89.0307 42.8487L89.3159 43.5687C89.3159 43.5687 90.6752 43.3287 91.3799 43.9263C91.3799 43.9263 89.618 43.4463 89.3926 43.7319C89.5155 44.0118 89.6725 44.2754 89.8601 44.5167C89.8601 44.5167 90.8382 44.3631 91.2169 44.7567C91.2169 44.7567 90.0063 44.5671 89.9632 44.6943C89.9632 44.6943 90.5817 45.4383 91.0947 45.6543C90.6137 45.4846 90.1855 45.1917 89.8529 44.8047C89.8238 45.1145 89.8846 45.4262 90.0279 45.7023C90.0279 45.7023 89.5077 45.4623 89.7067 44.6127C89.7067 44.6127 89.2464 44.0127 89.244 43.8927C89.244 43.8927 88.93 44.7039 89.0043 45.2727C89.0043 45.2727 88.6207 44.6775 89.1625 43.7031L88.8605 42.9831C88.8605 42.9831 88.381 44.0319 88.4146 44.5431C88.4146 44.5431 88.1173 43.8759 88.7981 42.7935L88.6064 42.0471C88.3561 42.5008 88.1651 42.9847 88.0382 43.4871C88.0382 43.4871 87.8968 42.8055 88.5608 41.8216L88.4913 41.3056C88.4913 41.3056 88.1557 41.9487 88.0742 42.1431C87.9927 42.3375 87.9351 42.3303 87.9351 42.3303C87.9919 41.8765 88.1727 41.4471 88.4577 41.0896C88.4577 41.0896 88.3882 40.0264 88.3211 40.024Z" fill="#6C63FF"/>
<path opacity="0.1" d="M126.207 35.4857C126.207 35.4857 124.253 40.8712 128.285 41.3632C128.47 41.4541 128.679 41.4843 128.881 41.4493C129.084 41.4144 129.271 41.3162 129.414 41.1688C129.414 41.1688 129.134 41.0752 129.393 40.5496C129.485 40.3626 129.554 40.1652 129.599 39.9616C129.661 39.6875 129.631 39.4006 129.513 39.1456C129.513 39.1456 129.333 37.4152 126.993 36.0689C126.993 36.0689 126.576 35.4617 126.43 35.4377L126.55 36.4817C126.55 36.4817 127.312 36.3617 127.791 36.7745C127.791 36.7745 126.593 36.4505 126.562 36.6377C126.562 36.6737 126.65 37.1872 126.65 37.1872C126.65 37.1872 127.974 36.9857 128.695 37.648C128.695 37.648 127.312 37.0673 126.684 37.3816L126.871 38.1448C126.871 38.1448 128.259 37.864 129.112 38.5864C129.112 38.5864 127.643 38.0296 126.924 38.3104L127.209 39.0304C127.209 39.0304 128.568 38.7904 129.273 39.388C129.273 39.388 127.511 38.908 127.286 39.1912C127.408 39.4707 127.565 39.7342 127.751 39.976C127.751 39.976 128.731 39.8224 129.11 40.216C129.11 40.216 127.897 40.0264 127.856 40.1512C127.856 40.1512 128.475 40.8952 128.988 41.1112C128.506 40.9405 128.077 40.6468 127.744 40.2592C127.712 40.573 127.773 40.8892 127.919 41.1688C127.919 41.1688 127.396 40.9288 127.595 40.0768C127.595 40.0768 127.137 39.4792 127.135 39.3568C127.135 39.3568 126.818 40.1656 126.895 40.7368C126.895 40.7368 126.511 40.1392 127.056 39.1672L126.751 38.4472C126.751 38.4472 126.272 39.496 126.308 40.0096C126.308 40.0096 126.01 39.34 126.691 38.2576L126.499 37.5112C126.249 37.9646 126.058 38.4486 125.931 38.9512C125.931 38.9512 125.787 38.272 126.451 37.2856L126.382 36.7721C126.382 36.7721 126.046 37.4152 125.967 37.6072C125.888 37.7992 125.828 37.7968 125.828 37.7968C125.884 37.3426 126.065 36.9129 126.351 36.5561C126.351 36.5561 126.272 35.4857 126.207 35.4857Z" fill="#6C63FF"/>
<path opacity="0.1" d="M64.3033 28.737C64.3033 28.737 62.3496 34.1249 66.3817 34.6145C66.5662 34.7062 66.775 34.7368 66.9779 34.7018C67.1809 34.6669 67.3675 34.5682 67.5108 34.4201C67.5108 34.4201 67.2303 34.3265 67.4892 33.8033C67.5803 33.6159 67.6495 33.4186 67.6954 33.2153C67.756 32.9404 67.7257 32.6532 67.6091 32.3969C67.6091 32.3969 67.4293 30.6666 65.0896 29.3202C65.0896 29.3202 64.6725 28.7154 64.5262 28.6914L64.6461 29.733C64.6461 29.733 65.406 29.6154 65.8879 30.0282C65.8879 30.0282 64.6893 29.7018 64.6581 29.889C64.6581 29.9274 64.7468 30.4386 64.7468 30.4386C64.7468 30.4386 66.0701 30.2394 66.7916 30.8994C66.7916 30.8994 65.406 30.3186 64.7803 30.633L64.9673 31.3986C64.9673 31.3986 66.3553 31.1178 67.2063 31.8402C67.2063 31.8402 65.7392 31.2834 65.0201 31.5618L65.3053 32.2818C65.3053 32.2818 66.6646 32.0418 67.3694 32.6393C67.3694 32.6393 65.605 32.1594 65.382 32.4425C65.5047 32.7228 65.6609 32.9871 65.8471 33.2297C65.8471 33.2297 66.8276 33.0737 67.2039 33.4697C67.2039 33.4697 65.9933 33.2801 65.9502 33.4073C65.9502 33.4073 66.5711 34.1489 67.0841 34.3673C66.6018 34.1976 66.1727 33.9038 65.8399 33.5153C65.8082 33.8291 65.869 34.1454 66.0149 34.4249C66.0149 34.4249 65.4923 34.1849 65.6913 33.3353C65.6913 33.3353 65.231 32.7353 65.231 32.6153C65.231 32.6153 64.9146 33.4265 64.9913 33.9953C64.9913 33.9953 64.6077 33.4001 65.1495 32.4257L64.8475 31.7058C64.8475 31.7058 64.368 32.7569 64.4016 33.2681C64.4016 33.2681 64.1043 32.6009 64.7851 31.5186L64.5958 30.7698C64.3449 31.2231 64.1539 31.7072 64.0276 32.2098C64.0276 32.2098 63.8838 31.5306 64.5478 30.5442L64.4783 30.0306C64.4783 30.0306 64.1427 30.6738 64.0636 30.8682C63.9845 31.0626 63.9245 31.0554 63.9245 31.0554C63.9797 30.6015 64.1598 30.1719 64.4447 29.8146C64.4447 29.8146 64.3776 28.7394 64.3033 28.737Z" fill="#6C63FF"/>
<path opacity="0.1" d="M124.32 65.2835C124.32 65.2835 125.828 70.8034 129.405 68.8834C129.608 68.851 129.796 68.7551 129.941 68.6094C130.087 68.4637 130.183 68.2757 130.215 68.0722C130.215 68.0722 129.932 68.1562 129.841 67.5778C129.809 67.3725 129.751 67.1719 129.671 66.9802C129.563 66.721 129.373 66.5038 129.132 66.361C129.132 66.361 127.988 65.0531 125.296 65.3027C125.296 65.3027 124.606 65.0483 124.471 65.1131L125.171 65.8955C125.171 65.8955 125.723 65.3603 126.353 65.4155C126.353 65.4155 125.181 65.8451 125.27 66.0107C125.286 66.0443 125.658 66.409 125.658 66.409C125.658 66.409 126.617 65.4827 127.595 65.6051C127.595 65.6051 126.13 65.9315 125.797 66.5482L126.392 67.0666C126.392 67.0666 127.365 66.0347 128.475 66.1331C128.475 66.1331 126.955 66.5266 126.528 67.1698L127.18 67.5994C127.18 67.5994 128.139 66.613 129.072 66.6994C129.072 66.6994 127.362 67.333 127.336 67.6858C127.598 67.8439 127.878 67.9697 128.17 68.0602C128.17 68.0602 128.889 67.369 129.412 67.4674C129.412 67.4674 128.314 68.0098 128.352 68.1394C128.352 68.1394 129.285 68.3794 129.827 68.2642C129.336 68.4034 128.816 68.4108 128.321 68.2858C128.475 68.5603 128.706 68.7839 128.985 68.929C128.985 68.929 128.42 69.0322 128.094 68.2234C128.094 68.2234 127.374 68.0002 127.3 67.8994C127.3 67.8994 127.509 68.7418 127.899 69.1642C127.899 69.1642 127.243 68.9002 127.125 67.7914L126.466 67.381C126.466 67.381 126.682 68.5114 127 68.9146C127 68.9146 126.372 68.5402 126.305 67.2634L125.718 66.7642C125.776 67.2821 125.901 67.7903 126.089 68.2762C126.089 68.2762 125.581 67.7962 125.557 66.613L125.202 66.2338C125.202 66.2338 125.298 66.9538 125.346 67.1578C125.394 67.3618 125.346 67.3978 125.346 67.3978C125.13 66.9948 125.029 66.5395 125.056 66.0827C125.056 66.0827 124.375 65.2451 124.32 65.2835Z" fill="#6C63FF"/>
<path d="M195.492 96.4204C196.014 97.0254 196.591 97.5813 197.215 98.0812L201.885 102.065C202.717 102.773 203.563 103.505 204.618 103.839C205.242 104.035 205.903 104.086 206.55 103.986C207.196 103.887 207.812 103.64 208.348 103.265L208.269 103.239L208.348 103.186C207.559 102.932 206.751 102.668 206.102 102.156C205.834 101.956 205.609 101.704 205.44 101.416C205.27 101.127 205.159 100.808 205.114 100.476C205.114 100.443 205.114 100.412 205.114 100.378C205.116 100.287 205.125 100.196 205.141 100.107C206.147 100.021 207.114 99.6798 207.952 99.1156L207.871 99.0868L207.952 99.0364C205.464 98.2372 203.741 95.8996 202.959 93.4253C202.178 90.9509 202.175 88.3158 202.091 85.7262C202.007 83.1367 201.816 80.4752 200.698 78.1328C200.279 77.2544 199.74 76.4192 199.536 75.4689C199.48 75.1868 199.453 74.8996 199.457 74.6121C199.473 73.6881 199.742 72.7593 199.989 71.8569C200.538 69.8416 200.976 67.7978 201.303 65.7347C201.431 65.0013 201.502 64.2591 201.516 63.5147C201.538 62.7882 201.422 62.064 201.173 61.3811C200.075 58.5252 196.259 57.1788 195.676 54.1813C195.608 53.7779 195.579 53.3688 195.59 52.9597C195.59 52.7341 195.59 52.5109 195.59 52.2877C195.59 52.0645 195.59 51.8077 195.571 51.587C195.405 49.4774 194.101 47.6462 192.843 45.9351C191.328 43.8759 189.726 41.7352 187.399 40.6384C185.591 39.7816 183.175 39.4984 181.02 39.6904C180.052 38.8551 178.992 38.1343 177.86 37.5424C176.213 36.6257 174.504 35.7233 172.68 35.5217C170.366 35.2673 168.079 36.1553 165.759 36.3041C162.604 36.5081 159.507 35.3441 156.352 35.1041C153.197 34.8641 149.566 35.9273 148.156 39.1072C147.826 39.8793 147.625 40.7007 147.561 41.5384C147.547 41.6992 147.537 41.8575 147.53 42.0183V42.0351C147.507 42.6844 147.525 43.3346 147.585 43.9815V44.0559C147.585 44.1855 147.609 44.3151 147.624 44.4447C147.624 44.4831 147.624 44.5191 147.636 44.5575C147.636 44.6775 147.662 44.7975 147.677 44.9175L147.691 45.0303C147.71 45.1815 147.732 45.3327 147.751 45.4839C147.787 45.7952 147.854 46.1023 147.95 46.4007C148.009 46.5731 148.094 46.7351 148.204 46.8806C148.547 47.3174 149.062 47.447 149.594 47.5286L150.014 47.5886C149.971 47.675 149.925 47.7614 149.884 47.8502C148.933 49.8578 148.442 52.0528 148.446 54.2749C148.446 61.8251 154.029 68.0842 161.324 69.2218L161.763 69.769C164.452 73.1433 167.828 77.648 169.434 80.8904C167.578 83.1967 165.406 87.2862 164.788 94.1453L163.87 96.2908C161.945 99.0628 161.449 103.061 161.945 106.781C161.403 108.792 160.785 111.319 160.355 113.41C157.165 112.702 146.274 110.95 143.7 109.248L136.148 105.687C136.148 105.687 126.32 98.8132 121.031 101.108C119.01 98.6212 115.961 96.0172 114.648 95.0333C112.394 93.3413 106.789 86.7318 106.789 86.7318L98.0084 75.0633C97.9844 73.7121 97.8405 72.5577 97.4714 72.0609C96.4358 70.6738 90.9533 67.5946 89.8578 68.2594C88.7622 68.9242 87.8465 66.8194 87.8465 66.8194L87.7626 66.7738C87.5564 66.6538 86.9715 66.3227 86.1588 65.8859C86.1161 64.9118 86.1401 63.9359 86.2308 62.9651C86.2475 62.8019 86.2691 62.6387 86.2931 62.4851C89.2038 62.3799 92.0005 61.3257 94.2577 59.4827C96.5148 57.6398 98.1088 55.1091 98.797 52.2757C98.8354 52.1245 98.8618 51.9685 98.8929 51.8149C99.2859 51.9063 99.6957 51.8952 100.083 51.7825C100.471 51.6699 100.823 51.4596 101.106 51.1718C101.873 50.3462 101.906 49.0766 101.662 47.9822C101.417 46.8878 100.943 45.8391 100.823 44.7207C100.672 43.1967 101.209 41.6008 100.715 40.1608C100.3 38.932 99.207 38.0392 98.0419 37.456C96.8769 36.8729 95.6015 36.5321 94.4101 36.0017C93.2738 35.4977 92.2166 34.8209 91.0372 34.4225C89.5078 33.9065 87.8633 33.8873 86.2427 33.9257C85.2263 33.5153 84.1907 33.1241 83.1024 33.0017C81.9038 32.8649 80.5853 33.0977 79.6719 33.8969C78.9528 34.5353 78.3679 35.5601 77.3922 35.5937C76.9127 35.6105 76.4812 35.3729 76.0545 35.1689C74.8439 34.5881 73.3121 34.2593 72.219 35.0297C71.3416 35.6441 71.0203 36.7745 70.8693 37.828C70.7183 38.8816 70.6919 39.988 70.1837 40.9312C69.8697 41.512 69.3926 41.9847 68.9971 42.5127C67.9959 43.853 67.5239 45.516 67.6714 47.183V47.231C67.6139 46.991 67.5587 46.7679 67.518 46.5327C67.518 46.7103 67.518 46.8854 67.542 47.063C67.6462 47.8864 67.8251 48.6986 68.0765 49.4894L69.069 52.9693C69.5724 54.7357 70.0878 56.5285 71.0467 58.1004C71.4208 58.7197 71.8727 59.2884 72.3916 59.7924C73.2087 60.6514 74.2543 61.2584 75.4049 61.5419C75.809 61.6327 76.225 61.6578 76.6371 61.6163C76.6371 61.6667 76.6251 61.7147 76.6155 61.7651C76.5268 61.7483 76.4357 61.7291 76.3518 61.7171C75.9623 61.6359 75.5593 61.6465 75.1747 61.7483C73.2809 62.4227 72.7056 64.4747 72.5378 65.2811C72.4994 65.4875 72.4874 65.6123 72.4874 65.6123C72.4874 65.6123 72.5186 65.7323 72.5546 65.9363L72.5378 66.0059C72.4994 66.2099 72.4874 66.3371 72.4874 66.3371C72.4874 66.3371 72.5186 66.457 72.5546 66.6658L72.0607 66.6778L63.8023 67.7578C61.9157 67.6282 60.1201 67.597 59.1589 67.8274C59.0775 67.8454 58.9974 67.8686 58.9191 67.897C57.7205 68.3122 52.2285 72.1065 47.2998 75.5985C47.2998 75.5025 47.2998 75.4089 47.2854 75.3177L45.883 76.316C45.883 76.4096 45.883 76.508 45.883 76.6064C45.533 76.8464 45.1854 77.1008 44.8498 77.3432C43.3419 78.4232 41.9731 79.3976 40.9543 80.144C39.7125 81.0368 38.943 81.6007 38.943 81.6007C38.943 81.6007 38.4875 81.7495 38.1855 82.4527C37.7971 83.3527 37.6629 85.1623 39.0653 88.7238C41.5632 95.0621 42.1098 99.3484 42.1098 99.3484C41.4321 99.4192 40.7669 99.5807 40.132 99.8284C39.2666 100.174 38.3629 100.76 37.9865 101.748C37.7449 102.439 37.739 103.19 37.9697 103.884C39.1252 107.988 58.2527 131.292 58.2527 131.292L58.4924 131.313C59.4734 131.4 60.46 131.4 61.441 131.313C62.3352 131.22 63.1718 131.006 63.5554 130.555C63.5554 130.555 67.7961 136.005 74.0241 132.293C73.9809 137.236 73.8563 140.863 74.6402 142.689C75.8603 145.526 75.8603 151.984 75.8603 151.984L77.0206 152.025C76.9583 152.265 76.8888 152.505 76.8144 152.745C76.2799 154.514 75.4912 156.652 74.6569 157.163C73.2522 158.027 73.9186 172.878 73.9761 174.16C73.9761 174.21 73.9761 174.236 73.9761 174.236L73.8946 180.236V180.716C73.7205 180.482 73.5642 180.235 73.4272 179.977C73.4272 179.977 71.169 182.137 71.1282 186.697C71.0875 191.257 71.169 191.41 71.169 191.41C71.169 191.41 80.2784 191.058 81.9877 191.686C83.6969 192.315 97.9916 191.139 97.9916 191.139C97.9916 191.139 98.5214 189.762 96.9967 188.703C99.4275 188.528 102.079 188.063 103.632 186.935C107.048 184.465 96.7402 182.54 96.021 182.149C95.3019 181.758 91.7396 178.612 90.2677 177.433C89.8228 177.108 89.2969 176.912 88.7479 176.867L88.9324 171.488C91.1259 169.014 93.5016 155.37 93.5016 155.37C94.2783 154.722 94.6163 153.146 94.7553 152.183C95.0391 152.089 95.2872 151.91 95.4659 151.67C95.6447 151.43 95.7456 151.141 95.755 150.842C98.2649 150.926 101.422 150.907 102.028 150.304C103.064 149.277 102.942 145.775 102.942 145.775L101.48 108.711L101.384 108.569C101.625 106.872 101.63 105.15 101.398 103.452C104.682 104.391 107.238 105.029 107.238 105.029C107.238 105.029 112.181 105.941 115.65 106.709C115.082 107.313 114.653 108.034 114.393 108.821C111.277 117.701 128.952 117.334 128.952 117.334L137.297 121.198L156.939 127.625C150.628 125.76 143.417 123.566 138.51 122.062C138.026 121.914 137.535 121.794 137.038 121.704C132.536 120.888 127.859 122.53 124.992 126.151C124.958 126.197 124.927 126.237 124.891 126.281C124.204 127.175 123.822 128.266 123.799 129.393C123.777 130.521 124.116 131.626 124.766 132.547C125.517 133.61 126.521 135.024 127.698 136.668C125.207 137.421 121.086 139.521 123.592 144.921C127.063 152.406 136.381 156.681 136.381 156.681C136.381 156.681 142.472 158.433 144.052 160.365C144.495 160.907 146.209 162.109 148.451 163.559C149.889 165.083 151.016 166.079 151.685 166.3C154.355 167.181 159.555 171.407 163.213 174.577L162.664 182.151L162.628 182.607L162.403 182.415C162.403 182.415 160.785 185.775 156.096 186.901C155.155 187.113 154.322 187.656 153.749 188.432L153.732 188.454L153.593 188.655L153.487 188.576C152.529 189.927 152.083 191.895 155.702 192.438C161.367 193.282 167.689 192.075 167.689 192.075L173.336 186.848C173.964 187.377 174.701 187.76 175.494 187.969C179.716 188.929 191.572 193.522 191.572 193.522C191.572 192.234 202.05 175.655 202.05 175.655C216.194 148.852 200.814 128.822 199.114 126.737L198.963 126.554L198.831 124.327L198.802 123.816C198.802 123.816 206.435 120.437 203.51 118.829C200.586 117.221 198.956 109.491 196.201 106.272C194.044 103.762 194.168 97.9348 193.941 92.9693C194.188 94.1953 194.719 95.3462 195.492 96.3292C195.508 96.3508 195.528 96.3676 195.544 96.3892L195.341 96.2116C195.391 96.2884 195.439 96.3556 195.492 96.4204ZM101.441 94.3613C102.424 95.4197 104.14 96.7732 105.277 97.6324C103.915 96.9676 102.856 96.406 102.038 95.9524C101.846 95.4197 101.645 94.8869 101.441 94.3613ZM72.3652 69.2458C72.1303 69.9504 71.7026 70.5749 71.1306 71.0481L70.6512 68.977C71.2792 69.0778 71.8642 69.1714 72.3652 69.2458ZM168.178 126.151C168.367 125.743 168.564 125.342 168.763 124.951C169.603 124.677 170.344 124.161 170.894 123.468C171.311 124.92 171.621 126.4 171.819 127.898C171.819 127.968 171.819 128.006 171.819 128.006C171.809 128.61 171.718 129.21 171.548 129.789C171.328 130.49 170.925 131.15 170.194 131.229C169.889 131.261 168.391 130.898 166.15 130.286C165.5 130.109 164.786 129.909 164.023 129.693C165.219 129.614 166.883 128.94 168.178 126.151ZM186.936 75.5121C186.488 74.7921 185.553 74.3313 184.409 74.0601C184.201 73.9209 183.877 73.7001 183.465 73.4001C181.451 71.9241 177.431 68.6002 175.587 64.3547C176.101 64.2113 176.603 64.0275 177.088 63.8051C177.841 63.4595 178.552 63.0287 179.207 62.5211C179.428 62.3483 179.644 62.1683 179.85 61.9811C180.378 61.5041 180.86 60.9777 181.288 60.4092C181.458 60.1692 181.624 59.9412 181.768 59.6892C182.003 59.3198 182.216 58.9367 182.405 58.542C182.842 57.6206 183.178 56.6552 183.41 55.6621C183.503 55.2637 183.585 54.8581 183.649 54.4501C183.714 54.0421 183.776 53.6317 183.822 53.2189C183.971 51.7624 184.028 50.2979 183.992 48.8342C183.992 48.7646 183.992 48.6926 183.992 48.623C183.992 48.5966 183.992 48.5702 183.992 48.5462C183.985 47.0624 183.825 45.5833 183.513 44.1327C183.621 44.1735 183.728 44.2143 183.832 44.2623C184.005 44.3473 184.17 44.4477 184.325 44.5623C184.287 44.5071 184.244 44.4519 184.203 44.3967C184.898 44.8479 185.416 45.5511 185.881 46.2519C188.012 49.5769 189.372 53.3369 189.863 57.2566C190.354 61.1762 189.964 65.1562 188.719 68.905C188.37 69.9346 187.95 70.9594 187.857 72.0417C187.518 75.9081 191.213 78.8576 192.586 82.4911C193.274 84.3127 193.382 86.331 193.473 88.3278C192.438 83.2711 188.652 78.2936 186.943 75.5217L186.936 75.5121Z" fill="url(#paint0_linear)"/>
<path d="M95.3019 151.965C95.3019 151.965 95.1221 154.965 93.9834 155.925C93.9834 155.925 91.6461 169.485 89.4886 171.945L89.129 173.324L80.1394 172.305L81.9373 160.305L83.6154 149.265L95.3019 151.965Z" fill="#FFC1C8"/>
<path opacity="0.03" d="M95.3019 151.965C95.3019 151.965 95.1221 154.965 93.9834 155.925C93.9834 155.925 91.6461 169.485 89.4886 171.945L89.129 173.324L80.1394 172.305L81.9373 160.305L83.6154 149.265L95.3019 151.965Z" fill="black"/>
<path d="M85.6147 172.112L89.4886 171.942L89.2824 178.048L86.317 180.037L80.976 178.866L82.925 170.706L85.6147 172.112Z" fill="#FF748F"/>
<path opacity="0.03" d="M85.6147 172.112L89.4886 171.942L89.2824 178.048L86.317 180.037L80.976 178.866L82.925 170.706L85.6147 172.112Z" fill="black"/>
<path d="M86.3171 177.58C86.3171 177.58 89.3591 176.682 90.8023 177.853C92.2454 179.024 95.755 182.147 96.4573 182.538C97.1597 182.929 107.288 184.842 103.944 187.299C100.6 189.757 92.0129 189.056 92.0129 189.056C92.0129 189.056 86.3962 187.415 86.2403 187.338C86.0845 187.261 82.6445 185.581 82.5366 185.463C82.4287 185.346 83.5099 177.544 83.5099 177.544L86.3171 177.58Z" fill="#5D618C"/>
<path opacity="0.03" d="M86.3171 177.58C86.3171 177.58 89.3591 176.682 90.8023 177.853C92.2454 179.024 95.755 182.147 96.4573 182.538C97.1597 182.929 107.288 184.842 103.944 187.299C100.6 189.757 92.0129 189.056 92.0129 189.056C92.0129 189.056 86.3962 187.415 86.2403 187.338C86.0845 187.261 82.6445 185.581 82.5366 185.463C82.4287 185.346 83.5099 177.544 83.5099 177.544L86.3171 177.58Z" fill="black"/>
<path d="M77.5024 96.466L77.3227 107.621L76.9151 131.417L76.6754 131.625C69.5436 137.805 64.5095 131.265 64.5095 131.265C64.1307 131.714 63.3109 131.928 62.4287 132.019C61.4637 132.105 60.493 132.105 59.528 132.019L59.2883 131.997C59.2883 131.997 40.4653 108.821 39.3266 104.741C39.1007 104.051 39.1066 103.306 39.3434 102.62C39.7149 101.645 40.6043 101.064 41.4553 100.721C42.0796 100.474 42.7344 100.313 43.4019 100.241C43.4019 100.241 42.8625 95.9813 40.4053 89.6814C39.0245 86.1415 39.1588 84.3439 39.5399 83.4415C39.8372 82.7431 40.2855 82.5943 40.2855 82.5943C40.2855 82.5943 41.043 82.0351 42.2632 81.1543C43.2772 80.4128 44.6125 79.4432 46.0987 78.3704L47.4772 77.3816C52.5617 73.7289 58.689 69.4282 59.9427 68.9818C60.021 68.9532 60.1011 68.9299 60.1825 68.9122C62.7547 68.2906 71.3871 69.5818 71.3871 69.5818L77.5024 96.466Z" fill="#6C63FF"/>
<path opacity="0.1" d="M77.5024 96.466L77.3226 107.621C68.7957 105.103 60.8681 88.4214 59.8229 87.1062C58.9287 85.9639 59.8468 73.2417 60.1848 68.917C62.7571 68.2954 71.3895 69.5866 71.3895 69.5866L77.5024 96.466Z" fill="black"/>
<path d="M175.369 74.7417C175.369 74.7417 168.717 78.1616 167.878 91.6013C167.878 91.6013 166.799 98.4412 166.2 99.6412C165.601 100.841 162.724 112.181 163.083 113.561C163.083 113.561 162.484 114.941 160.267 114.341C158.049 113.741 146.063 111.881 143.366 110.081L135.935 106.541C135.935 106.541 121.432 96.2812 118.375 105.101C115.319 113.921 132.699 113.566 132.699 113.566L140.909 117.406L165.78 125.621C165.78 125.621 169.077 127.121 171.294 122.321C172.713 119.297 174.397 116.406 176.328 113.681C176.328 113.681 181.362 99.5212 181.302 97.1212C181.242 94.7213 186.696 89.0214 186.696 89.0214C186.696 89.0214 187.775 73.9017 178.905 74.2017L175.369 74.7417Z" fill="#FFC1C7"/>
<path opacity="0.03" d="M175.369 74.7417C175.369 74.7417 168.717 78.1616 167.878 91.6013C167.878 91.6013 166.799 98.4412 166.2 99.6412C165.601 100.841 162.724 112.181 163.083 113.561C163.083 113.561 162.484 114.941 160.267 114.341C158.049 113.741 146.063 111.881 143.366 110.081L135.935 106.541C135.935 106.541 121.432 96.2812 118.375 105.101C115.319 113.921 132.699 113.566 132.699 113.566L140.909 117.406L165.78 125.621C165.78 125.621 169.077 127.121 171.294 122.321C172.713 119.297 174.397 116.406 176.328 113.681C176.328 113.681 181.362 99.5212 181.302 97.1212C181.242 94.7213 186.696 89.0214 186.696 89.0214C186.696 89.0214 187.775 73.9017 178.905 74.2017L175.369 74.7417Z" fill="black"/>
<path d="M105.011 86.415C105.37 86.835 107.048 87.7014 107.048 87.7014C107.048 87.7014 112.562 94.2701 114.779 95.9501C116.997 97.63 124.248 104.05 122.781 106.481C121.314 108.912 119.665 108.37 119.665 108.37L106.689 99.37C106.689 99.37 102.134 96.1013 101.206 94.5413C100.278 92.9813 99.1374 89.715 99.1374 89.715L105.011 86.415Z" fill="#FFC1C8"/>
<path opacity="0.03" d="M105.011 86.415C105.37 86.835 107.048 87.7014 107.048 87.7014C107.048 87.7014 112.562 94.2701 114.779 95.9501C116.997 97.63 124.248 104.05 122.781 106.481C121.314 108.912 119.665 108.37 119.665 108.37L106.689 99.37C106.689 99.37 102.134 96.1013 101.206 94.5413C100.278 92.9813 99.1374 89.715 99.1374 89.715L105.011 86.415Z" fill="black"/>
<path d="M97.7303 75.1953L107.048 87.7038L98.658 90.975L95.182 80.504L97.7303 75.1953Z" fill="#DCE6F2"/>
<path opacity="0.03" d="M97.7303 75.1953L107.048 87.7038L98.658 90.975L95.182 80.504L97.7303 75.1953Z" fill="black"/>
<path d="M100.156 107.086L101.834 109.546L103.273 146.385C103.273 146.385 103.392 149.865 102.374 150.885C101.355 151.905 93.0245 151.245 93.0245 151.245C93.0245 151.245 93.3241 113.686 93.444 112.966C93.5639 112.246 100.156 107.086 100.156 107.086Z" fill="#575988"/>
<path opacity="0.1" d="M100.156 107.086L101.834 109.546L103.273 146.385C103.273 146.385 103.392 149.865 102.374 150.885C101.355 151.905 93.0245 151.245 93.0245 151.245C93.0245 151.245 93.3241 113.686 93.444 112.966C93.5639 112.246 100.156 107.086 100.156 107.086Z" fill="black"/>
<path d="M88.9348 153.654C88.3891 154.998 87.7482 156.3 87.017 157.552C87.017 157.552 85.4588 166.453 84.7948 167.274C84.3154 167.874 84.0948 172.352 84.0157 174.688C83.9869 175.532 83.975 176.096 83.975 176.096L74.8127 180.469L74.772 174.69C74.772 174.69 74.772 174.664 74.772 174.613C74.7145 173.339 74.0528 158.579 75.4408 157.72C76.2559 157.214 77.0326 155.08 77.5576 153.33C77.9579 151.979 78.2096 150.849 78.2096 150.849C78.2096 150.849 88.3882 150.187 89.2369 151.279C89.5485 151.667 89.3328 152.613 88.9348 153.654Z" fill="#FFC1C8"/>
<path opacity="0.1" d="M88.9348 153.654C84.8068 153.568 79.6336 153.393 77.5432 153.318C77.9436 151.967 78.1953 150.837 78.1953 150.837C78.1953 150.837 88.3739 150.175 89.2225 151.267C89.5485 151.667 89.3328 152.613 88.9348 153.654Z" fill="black"/>
<path d="M76.9031 99.046C76.9031 99.046 74.0864 114.046 74.6258 123.705C75.1651 133.365 74.2062 140.5 75.4049 143.325C76.6035 146.15 76.6035 152.565 76.6035 152.565C76.6035 152.565 92.9046 153.165 94.5827 152.925C96.2608 152.685 96.2008 151.425 96.2008 151.425C96.2008 151.425 95.0621 141.46 96.1409 138.34C97.2196 135.22 97.0399 125.681 97.0399 125.681L101.595 110.321C101.595 110.321 102.973 103.421 100.096 100.601C97.2196 97.7812 76.9031 99.046 76.9031 99.046Z" fill="#575988"/>
<path d="M173.631 178.304L172.912 179.36L168.465 185.984L164.69 187.124L161.873 184.364L162.01 182.543L162.712 173.084C162.712 173.084 145.284 162.82 143.726 160.9C142.168 158.98 136.175 157.24 136.175 157.24C136.175 157.24 127.005 152.98 123.589 145.54C120.173 138.1 129.283 136.96 129.283 136.96L163.503 169.725L173.631 178.304Z" fill="#FFC1C7"/>
<path opacity="0.1" d="M172.924 179.358L168.477 185.982L164.702 187.122L161.885 184.362L162.022 182.54L165.121 185.202L170.934 178.422L172.924 179.358Z" fill="black"/>
<path d="M177.826 182.144L166.979 192.284C166.979 192.284 160.746 193.484 155.173 192.644C151.61 192.106 152.296 190.151 153.233 188.804L153.25 188.78C153.811 188.01 154.632 187.47 155.561 187.259C160.173 186.145 161.765 182.802 161.765 182.802L165.121 185.682L170.934 178.9L175.233 180.92L177.826 182.144Z" fill="#575988"/>
<path d="M177.826 182.26L166.979 192.404C166.979 192.404 160.746 193.604 155.173 192.764C151.61 192.227 152.056 190.271 152.994 188.924C154.071 189.78 155.365 190.319 156.731 190.482C159.787 190.782 164.402 190.482 164.402 190.482L175.233 181.043L177.826 182.26Z" fill="white"/>
<path d="M88.2707 60.726C87.3886 61.1676 86.9834 62.5307 86.8204 64.0859C86.5447 66.7402 86.9906 69.937 86.9906 69.937C86.9906 69.937 75.0045 66.6563 76.2846 66.0155C77.0205 65.6483 77.4113 62.9747 77.6103 60.774C77.7589 59.1468 77.802 57.7764 77.802 57.7764C77.802 57.7764 90.668 59.526 88.2707 60.726Z" fill="#FFC1C8"/>
<path d="M183.68 75.2865C183.68 75.2865 169.137 89.0454 169.616 85.0471C169.683 84.4903 169.491 83.7199 169.113 82.8103C167.768 79.5656 164.05 74.5281 161.142 70.8442C159.008 68.1418 157.306 66.1667 157.306 66.1667C157.306 66.1667 175.369 50.9678 173.931 59.6076C173.631 61.5776 173.905 63.5924 174.72 65.4107C176.52 69.6538 180.509 72.9921 182.501 74.4657C183.22 74.9961 183.68 75.2865 183.68 75.2865Z" fill="#FFC1C7"/>
<path opacity="0.1" d="M171.934 62.2451C171.673 62.5691 170.704 63.7067 170.417 64.0067C167.684 66.8555 167.319 70.9666 163.064 70.9666C162.423 70.967 161.783 70.9261 161.147 70.8442C159.013 68.1418 157.311 66.1667 157.311 66.1667C157.311 66.1667 175.369 50.9678 173.931 59.6076C173.591 61.6572 171.174 60.45 171.934 62.2451Z" fill="black"/>
<path d="M178.085 55.4461C178.086 58.421 177.205 61.3293 175.554 63.803C173.904 66.2768 171.557 68.2049 168.812 69.3436C166.067 70.4823 163.046 70.7803 160.132 70.2001C157.217 69.6198 154.54 68.1873 152.439 66.0837C150.338 63.9801 148.907 61.2999 148.327 58.3821C147.747 55.4643 148.045 52.44 149.183 49.6916C150.32 46.9432 152.246 44.5942 154.717 42.9418C157.188 41.2893 160.093 40.4075 163.064 40.408C165.039 40.4004 166.996 40.7841 168.822 41.5372C170.647 42.2902 172.306 43.3976 173.703 44.7956C175.099 46.1935 176.205 47.8543 176.957 49.6822C177.71 51.5102 178.093 53.4691 178.085 55.4461Z" fill="#FFC1C7"/>
<path opacity="0.1" d="M183.68 75.2865C183.68 75.2865 169.137 89.0454 169.616 85.0471C169.683 84.4903 169.491 83.7199 169.113 82.8103L171.215 77.8472C173.791 75.5883 177.094 74.3356 180.519 74.3193C181.142 74.3187 181.764 74.3612 182.381 74.4465L182.501 74.4657C183.22 74.9961 183.68 75.2865 183.68 75.2865Z" fill="black"/>
<path d="M200.78 176.084C200.78 176.084 190.472 192.562 190.472 193.844C190.472 193.844 178.805 189.284 174.65 188.324C170.496 187.364 166.579 178.645 166.579 178.645C166.579 178.645 155.551 168.244 151.236 166.804C147.576 165.582 129.985 140.74 124.745 133.245C124.103 132.328 123.769 131.23 123.792 130.111C123.814 128.992 124.192 127.908 124.869 127.017L124.968 126.89C126.354 125.143 128.191 123.809 130.279 123.03C132.368 122.251 134.629 122.057 136.819 122.47C137.306 122.559 137.786 122.678 138.258 122.825C145.804 125.16 158.874 129.173 165.466 130.985C167.672 131.592 169.146 131.945 169.446 131.923C170.165 131.849 170.56 131.203 170.779 130.495C170.945 129.919 171.035 129.323 171.045 128.724C171.045 128.724 171.045 128.685 171.045 128.616C170.843 127.09 170.525 125.582 170.095 124.104C169.326 121.464 167.993 118.366 165.78 116.885C163.944 115.658 162.484 112.954 161.719 109.81C160.691 105.564 160.928 100.512 163.223 97.2052L165.44 91.9685L169.148 83.2087L171.215 78.3272C173.791 76.0683 177.094 74.8156 180.519 74.7993C181.142 74.7987 181.764 74.8412 182.381 74.9265C183.971 75.1473 185.344 75.6249 185.917 76.5657C187.674 79.4456 191.67 84.7255 192.469 90.0054C193.267 95.2853 192.31 103.925 195.027 107.127C197.743 110.328 199.342 118.006 202.218 119.606C205.095 121.207 197.584 124.565 197.584 124.565L197.613 125.071L197.743 127.286C197.743 127.286 197.795 127.346 197.891 127.466C199.565 129.54 214.684 149.447 200.78 176.084Z" fill="#FFB620"/>
<path d="M197.903 127.466C194.753 128.126 187.864 129.564 184.79 130.195L184.251 130.305C184.071 130.341 183.87 130.375 183.652 130.406C180.564 130.831 173.866 130.622 170.8 130.497C170.967 129.921 171.056 129.326 171.066 128.726C171.066 128.726 171.066 128.688 171.066 128.618C173.399 128.467 178.927 128.025 183.664 127.051C184.05 126.972 184.431 126.888 184.802 126.811C185.339 126.686 185.862 126.554 186.361 126.415C190.608 125.215 195.094 125.057 197.628 125.081L197.757 127.296C197.757 127.296 197.795 127.346 197.903 127.466Z" fill="#575988"/>
<path d="M184.778 126.801V130.195L184.239 130.305C184.059 130.341 183.858 130.375 183.64 130.406V127.061C184.026 126.972 184.407 126.888 184.778 126.801Z" fill="#FF6584"/>
<path opacity="0.1" d="M187.715 133.3C187.715 133.3 181.302 148 177.407 149.44C173.511 150.88 163.803 155.98 163.803 155.98C163.803 155.98 169.376 160.9 175.189 155.5C181.003 150.1 189.393 135.7 187.715 133.3Z" fill="black"/>
<path opacity="0.1" d="M194.727 131.325C194.727 131.325 195.326 136.905 194.487 137.925C193.648 138.945 194.727 131.325 194.727 131.325Z" fill="black"/>
<path opacity="0.1" d="M198.203 134.98C198.203 134.98 201.439 168.94 185.378 169.12C185.378 169.125 200.42 154.18 198.203 134.98Z" fill="black"/>
<path opacity="0.1" d="M202.278 143.14C202.278 143.14 206.893 160.96 200.84 163C200.84 163.005 204.016 153.765 202.278 143.14Z" fill="black"/>
<path opacity="0.1" d="M173.571 138.58C173.272 138.58 161.106 140.68 163.743 142.36C166.38 144.04 173.571 138.58 173.571 138.58Z" fill="black"/>
<path opacity="0.1" d="M181.962 114.526C181.962 114.526 191.91 123.345 189.992 124.305L181.962 114.526Z" fill="black"/>
<path opacity="0.1" d="M181.123 117.346C181.123 117.346 186.876 124.425 186.217 124.845L181.123 117.346Z" fill="black"/>
<path opacity="0.1" d="M193.408 116.261C193.408 116.261 196.045 119.561 195.626 120.281L193.408 116.261Z" fill="black"/>
<path opacity="0.1" d="M196.045 114.526C196.045 114.526 199.821 117.461 198.982 118.606L196.045 114.526Z" fill="black"/>
<path d="M175.07 78.7664C175.07 78.7664 187.355 79.7264 186.816 89.6262C186.277 99.526 177.107 102.046 177.107 102.046L165.181 98.626C165.181 98.626 170.515 79.4264 175.07 78.7664Z" fill="#FFC1C7"/>
<path opacity="0.1" d="M138.267 122.825C145.814 125.16 158.884 129.173 165.476 130.985C165.044 131.205 164.571 131.333 164.086 131.36C163.602 131.386 163.118 131.312 162.664 131.141L137.793 122.926L136.819 122.47C137.309 122.559 137.792 122.677 138.267 122.825Z" fill="black"/>
<path opacity="0.1" d="M180.355 98.3548C179.188 99.9148 178.16 101.595 178.198 102.646C178.217 103.402 177.719 105.329 177.052 107.611C175.335 113.344 173.005 118.873 170.1 124.104C169.331 121.464 167.998 118.366 165.785 116.885C163.949 115.658 162.489 112.954 161.724 109.81C162.307 107.535 162.861 105.622 163.088 105.166C163.688 103.966 164.766 97.126 164.766 97.126C164.868 95.3927 165.094 93.669 165.445 91.9685C166.315 87.8094 167.794 85.0087 169.153 83.2087C170.793 81.02 172.27 80.2664 172.27 80.2664L175.806 79.7264C179.881 79.5896 181.847 82.6927 182.793 86.0935C183.954 90.3198 182.983 94.8413 180.355 98.3548Z" fill="black"/>
<path d="M171.534 79.3016C171.534 79.3016 164.881 82.7215 164.042 96.1613C164.042 96.1613 162.964 103.001 162.364 104.201C161.765 105.401 158.888 116.741 159.248 118.121C159.248 118.121 158.649 119.501 156.431 118.901C154.214 118.301 142.228 116.441 139.531 114.641L132.099 111.101C132.099 111.101 117.596 100.841 114.54 109.661C111.483 118.481 128.863 118.126 128.863 118.126L137.074 121.966L161.945 130.181C161.945 130.181 165.241 131.681 167.458 126.881C168.012 125.681 168.604 124.541 169.182 123.504C172.174 118.169 174.57 112.521 176.328 106.661C177.007 104.379 177.493 102.452 177.474 101.696C177.448 100.644 178.479 98.962 179.632 97.4044C182.269 93.8909 183.227 89.3694 182.053 85.1407C181.106 81.7399 179.131 78.6368 175.065 78.776L171.534 79.3016Z" fill="#FFC1C7"/>
<path opacity="0.1" d="M88.2708 60.726C87.3886 61.1676 86.9835 62.5307 86.8205 64.0859C86.6646 64.0859 86.5088 64.0859 86.353 64.0859C83.1301 64.092 80.0178 62.9096 77.6103 60.7644C77.7589 59.1372 77.8021 57.7668 77.8021 57.7668C77.8021 57.7668 90.668 59.526 88.2708 60.726Z" fill="black"/>
<path d="M99.5377 50.4062C99.5377 53.0168 98.7644 55.5689 97.3157 57.7396C95.8669 59.9102 93.8078 61.6021 91.3986 62.6011C88.9894 63.6002 86.3383 63.8616 83.7808 63.3523C81.2232 62.843 78.8739 61.5858 77.0299 59.7398C75.186 57.8938 73.9303 55.5418 73.4216 52.9813C72.9128 50.4208 73.1739 47.7668 74.1718 45.3549C75.1698 42.9429 76.8597 40.8814 79.0279 39.431C81.1961 37.9806 83.7453 37.2064 86.353 37.2064C89.8474 37.2141 93.1966 38.6072 95.6676 41.081C98.1386 43.5547 99.5301 46.9077 99.5377 50.4062Z" fill="#FFC1C8"/>
<path opacity="0.1" d="M103.992 102.101C103.992 102.101 97.0997 104.861 94.9422 105.821C92.7847 106.781 80.439 104.561 80.439 104.561C80.439 104.561 74.0264 101.321 74.5658 98.0812C75.1052 94.8413 69.4117 84.2263 69.4117 84.2263C69.4117 84.2263 69.232 74.8065 71.749 73.0065C74.2661 71.2066 73.3072 67.4266 73.3072 67.4266C73.3072 67.4266 73.3192 67.3018 73.3576 67.0978C73.5134 66.2963 74.0768 64.2563 75.9442 63.5867C76.3223 63.4849 76.7191 63.4742 77.1021 63.5555C78.8928 63.8267 81.8342 65.1611 84.2674 66.3923C86.281 67.4122 87.9471 68.3602 88.3283 68.581L88.4098 68.6266C88.4098 68.6266 89.3088 70.7266 90.3875 70.0666C91.4663 69.4066 96.86 72.4665 97.8788 73.8465C98.8977 75.2265 98.1785 81.7063 97.9987 83.3263C97.8189 84.9463 99.0175 89.7462 100.336 92.5013C101.654 95.2565 103.992 102.101 103.992 102.101Z" fill="black"/>
<path d="M103.992 101.381C103.992 101.381 97.0997 104.141 94.9422 105.101C92.7847 106.061 80.439 103.841 80.439 103.841C80.439 103.841 74.0264 100.601 74.5658 97.3612C75.1052 94.1213 69.4117 83.5063 69.4117 83.5063C69.4117 83.5063 69.232 74.0865 71.749 72.2865C74.2661 70.4866 73.3072 66.7066 73.3072 66.7066C73.3072 66.7066 73.3192 66.5818 73.3576 66.3779C73.5134 65.5763 74.0768 63.5363 75.9442 62.8667C76.3223 62.7649 76.7191 62.7542 77.1021 62.8355C78.8928 63.1067 81.8342 64.4411 84.2674 65.6723C86.281 66.6922 87.9471 67.6402 88.3283 67.861L88.4098 67.9066C88.4098 67.9066 89.3088 70.0066 90.3875 69.3466C91.4663 68.6866 96.86 71.7465 97.8788 73.1265C98.8977 74.5065 98.1785 80.9864 97.9987 82.6063C97.8189 84.2263 99.0175 89.0262 100.336 91.7813C101.654 94.5365 103.992 101.381 103.992 101.381Z" fill="#DCE6F2"/>
<path d="M81.6784 92.1653C81.6784 92.1653 75.7644 101.765 74.8055 102.286L75.1651 105.646C75.1651 105.646 83.5962 103.884 84.1164 101.525C84.6366 99.166 84.3561 92.0453 84.3561 92.0453L81.6784 92.1653Z" fill="#575988"/>
<path opacity="0.2" d="M81.6784 92.1653C81.6784 92.1653 75.7644 101.765 74.8055 102.286L75.1651 105.646C75.1651 105.646 83.5962 103.884 84.1164 101.525C84.6366 99.166 84.3561 92.0453 84.3561 92.0453L81.6784 92.1653Z" fill="black"/>
<path opacity="0.1" d="M89.9991 79.9352C89.9991 79.9352 91.0467 83.9863 92.6961 85.3663C94.3454 86.7462 89.9991 79.9352 89.9991 79.9352Z" fill="black"/>
<path d="M79.7198 90.615C79.8709 90.8862 84.9338 97.786 90.2677 100.335C95.6015 102.884 107.499 105.886 107.499 105.886C107.499 105.886 117.148 107.686 118.795 108.375C120.442 109.063 122.542 105.975 112.202 101.566C101.863 97.1572 99.8566 95.2061 99.8566 95.2061C99.8566 95.2061 90.867 90.8214 89.4286 88.6614C87.9903 86.5014 79.7198 90.615 79.7198 90.615Z" fill="#FFC1C8"/>
<path opacity="0.1" d="M83.4955 124.181C83.6753 124.061 87.9903 119.441 88.5297 121.421C89.069 123.401 83.4955 124.181 83.4955 124.181Z" fill="black"/>
<path opacity="0.1" d="M86.0126 115.061C85.9527 115.241 85.3533 120.341 83.6154 120.941L86.0126 115.061Z" fill="black"/>
<path opacity="0.1" d="M87.8105 116.446C87.8105 116.446 86.2523 121.906 84.2746 122.261L87.8105 116.446Z" fill="black"/>
<path opacity="0.1" d="M79.8997 132.821C79.8997 132.821 82.5366 132.881 82.8962 131.201L79.8997 132.821Z" fill="black"/>
<path opacity="0.1" d="M83.4955 143.745C83.8551 143.805 89.4886 147.405 88.0502 148.125C86.6119 148.845 83.4955 143.745 83.4955 143.745Z" fill="black"/>
<path opacity="0.1" d="M84.0061 174.133V174.688C83.9773 175.532 83.9653 176.096 83.9653 176.096L74.8031 180.469L74.7624 174.69C74.7624 174.69 74.7624 174.664 74.7624 174.613V174.222L78.4301 174.34L84.0061 174.133Z" fill="black"/>
<path d="M85.7201 182.535L78.0778 185.463L74.6473 183.433L74.6833 180.654L74.7624 174.688L78.4302 174.805L84.0061 174.611V178.789L85.7201 182.535Z" fill="#FF748F"/>
<path opacity="0.1" d="M85.713 182.538L78.0706 185.466L74.6401 183.435L74.6761 180.656C75.1738 181.309 75.8099 181.844 76.5386 182.222C77.2672 182.599 78.0705 182.81 78.8904 182.84C78.8904 182.84 81.5801 179.48 83.2174 178.506C83.3337 178.436 83.463 178.391 83.5973 178.373C83.7317 178.355 83.8683 178.364 83.9989 178.4V178.792L85.713 182.538Z" fill="black"/>
<path d="M78.8976 183.318C78.8976 183.318 75.7812 183.359 74.2182 180.39C74.2182 180.39 71.996 182.538 71.9553 187.067C71.9145 191.595 71.996 191.751 71.996 191.751C71.996 191.751 80.964 191.401 82.6421 192.025C84.3202 192.649 98.3967 191.478 98.3967 191.478C98.3967 191.478 99.3316 189.018 95.0813 188.159C90.831 187.299 87.3215 182.771 87.204 182.576C87.0866 182.382 84.8643 178.016 83.227 178.976C81.5897 179.936 78.8976 183.318 78.8976 183.318Z" fill="#5D618C"/>
<path opacity="0.1" d="M87.1633 35.8241L86.2691 35.7017L86.8277 35.6873L87.1633 35.8241Z" fill="black"/>
<path opacity="0.1" d="M99.5378 50.4062C99.5382 51.43 99.42 52.4504 99.1854 53.4469C98.9853 53.3952 98.7938 53.3143 98.6172 53.2069C98.3607 53.0413 98.1042 52.8133 97.8022 52.8397C97.6251 52.8676 97.4591 52.944 97.3227 53.0605C95.9036 54.0997 94.8488 55.8085 93.1228 56.1397C93.2957 55.6339 93.3191 55.0888 93.1899 54.5701C92.8239 54.9386 92.3748 55.2138 91.8805 55.3725C91.3862 55.5311 90.861 55.5687 90.3492 55.4821C90.4739 55.1824 90.4884 54.8482 90.3899 54.5389C89.1745 55.2204 87.9091 55.8084 86.6047 56.2981C86.5592 56.0581 86.516 55.8373 86.4705 55.6069C84.6342 56.5044 84.778 59.55 82.9418 60.4476C81.8486 60.9828 80.3048 60.5988 79.5497 61.5635C79.5209 61.6019 79.4945 61.6403 79.4682 61.6811C77.506 60.4795 75.892 58.785 74.7865 56.7657C73.6809 54.7465 73.1222 52.4728 73.1658 50.1705C73.2095 47.8682 73.854 45.6174 75.0353 43.6416C76.2167 41.6658 77.8938 40.0338 79.9 38.9076C81.9063 37.7814 84.1719 37.2003 86.4719 37.2219C88.7719 37.2435 91.0263 37.8671 93.0111 39.0308C94.9959 40.1944 96.6421 41.8577 97.7862 43.8553C98.9303 45.8529 99.5325 48.1155 99.533 50.4182L99.5378 50.4062Z" fill="black"/>
<path d="M87.1632 35.3417C86.0557 34.8833 84.9314 34.4225 83.74 34.2857C82.5485 34.1489 81.2636 34.3817 80.3647 35.1761C79.6455 35.8097 79.0821 36.8273 78.1233 36.8561C77.6558 36.8729 77.2243 36.6377 76.8048 36.4337C75.6062 35.8577 74.1079 35.5313 73.0267 36.2945C72.1637 36.9065 71.8401 38.0296 71.6987 39.0784C71.5572 40.1272 71.5237 41.2384 71.0251 42.1623C70.7158 42.7383 70.246 43.2087 69.8576 43.7343C68.8705 45.0697 68.4066 46.7211 68.5535 48.3758C68.6536 49.1941 68.8286 50.0015 69.0761 50.7878L70.0542 54.2461C70.5504 56.0029 71.0562 57.7836 72.0007 59.346C72.9452 60.9084 74.398 62.2524 76.1719 62.6555C77.2411 62.8955 78.5356 62.6987 79.1349 61.7796C79.2883 61.5396 79.3866 61.2828 79.5544 61.0596C80.2975 60.0996 81.8533 60.4812 82.9465 59.946C84.7828 59.0484 84.6389 56.0029 86.4752 55.1053L86.6118 55.7941C87.9148 55.3038 89.1793 54.7166 90.3947 54.0373C90.4926 54.3465 90.479 54.6803 90.3563 54.9805C90.8678 55.066 91.3922 55.0278 91.886 54.8691C92.3797 54.7105 92.8284 54.436 93.1946 54.0685C93.3238 54.5872 93.3005 55.1323 93.1275 55.6381C94.8535 55.3045 95.9083 53.5957 97.3275 52.5565C97.4646 52.4417 97.6303 52.3663 97.8069 52.3381C98.1114 52.3117 98.3655 52.5397 98.622 52.7029C99.0662 52.973 99.5888 53.0842 100.104 53.0184C100.62 52.9525 101.098 52.7136 101.46 52.3405C102.215 51.5198 102.249 50.2574 102.007 49.1678C101.765 48.0782 101.288 47.0391 101.185 45.9279C101.034 44.4135 101.561 42.8319 101.077 41.392C100.667 40.1704 99.5928 39.2848 98.4398 38.704C97.2867 38.1232 96.0425 37.7848 94.8655 37.264C93.7484 36.7625 92.708 36.0905 91.5477 35.6945C89.8697 35.1209 88.0454 35.1665 86.2738 35.2145" fill="#794F6A"/>
<path d="M87.391 80.0456C87.391 80.0456 89.3088 67.1266 72.8877 67.765L64.6173 68.8666C64.6173 68.8666 72.5066 70.2874 74.4052 70.4962L74.6066 70.525C76.3637 70.8466 82.4383 70.4458 87.391 80.0456Z" fill="#6C63FF"/>
<path opacity="0.1" d="M76.9031 131.565V131.417C83.6369 125.587 76.9031 131.565 76.9031 131.565Z" fill="black"/>
<path d="M62.4167 132.019C61.4517 132.105 60.481 132.105 59.516 132.019L39.3433 102.624C39.7149 101.65 40.6043 101.069 41.4553 100.726L62.4167 132.019Z" fill="#575988"/>
<path d="M49.335 100.546L48.3761 101.686C48.3761 101.686 41.1029 89.5902 39.5399 83.4463C39.8372 82.7479 40.2855 82.5991 40.2855 82.5991C40.2855 82.5991 41.043 82.0399 42.2632 81.1592C42.7162 84.0487 44.2625 91.1142 49.335 100.546Z" fill="#575988"/>
<path d="M54.6688 96.8212L52.751 97.9012C47.5154 91.7669 47.0695 81.4615 47.1175 77.3552L48.4983 76.3616C48.6853 81.7543 54.6688 96.8212 54.6688 96.8212Z" fill="#575988"/>
<path opacity="0.1" d="M59.703 95.7461C59.6431 96.526 57.4257 104.446 60.6619 105.766C63.8982 107.086 59.703 95.7461 59.703 95.7461Z" fill="black"/>
<path opacity="0.1" d="M66.655 109.366C66.7748 109.786 67.8536 123.465 70.1909 122.386C72.5282 121.306 71.2696 105.706 71.2696 105.706L66.655 109.366Z" fill="black"/>
<path opacity="0.1" d="M178.085 55.4461C178.09 59.3306 176.588 63.0651 173.895 65.8618C172.798 66.0945 171.667 66.114 170.563 65.9194C169.998 65.8479 169.462 65.6322 169.005 65.2931C168.565 64.8865 168.22 64.3873 167.995 63.8315C167.12 61.9475 166.672 59.7708 165.445 58.158C164.217 56.5452 161.727 55.8372 160.542 57.4908C159.898 58.3884 159.79 59.7684 158.929 60.39C157.896 61.1387 156.532 60.258 155.729 59.19C153.356 56.07 154.168 49.9358 149.642 49.0742L149.46 49.043C150.911 45.9448 153.375 43.4347 156.443 41.9271C159.512 40.4195 163.002 40.0045 166.338 40.7507C169.674 41.4969 172.656 43.3596 174.791 46.0313C176.927 48.7031 178.089 52.0241 178.085 55.4461Z" fill="black"/>
<path d="M149.882 48.851C149.148 48.7094 148.297 48.7286 147.806 48.095C147.516 47.7206 147.432 47.2022 147.362 46.7102C147.068 44.5839 146.907 42.3015 147.753 40.3744C149.141 37.2136 152.713 36.1577 155.818 36.3929C158.922 36.6281 161.969 37.7872 165.073 37.5928C167.355 37.444 169.606 36.5609 171.881 36.8129C173.682 37.0144 175.36 37.9096 176.978 38.824C178.493 39.6784 180.041 40.5976 181.115 42.0807C182.693 44.2527 182.99 47.2526 183.033 50.0678C183.086 53.3725 182.853 56.8044 181.468 59.7132C179.459 63.9347 174.979 66.4474 170.803 65.6915C170.238 65.6199 169.702 65.4042 169.244 65.0651C168.806 64.6578 168.462 64.1588 168.238 63.6035C167.36 61.7171 166.912 59.5428 165.684 57.9276C164.457 56.3125 161.966 55.6093 160.782 57.2628C160.137 58.158 160.029 59.5404 159.169 60.162C158.136 60.9084 156.772 60.0276 155.969 58.962C153.595 55.8397 154.408 49.7102 149.882 48.851Z" fill="#945B79"/>
<path d="M186.363 41.8744C188.648 42.9663 190.232 45.0927 191.721 47.1398C192.96 48.8414 194.243 50.6606 194.406 52.7581C194.47 53.6173 194.343 54.4909 194.506 55.3357C195.079 58.3188 198.821 59.6556 199.915 62.4971C200.423 63.8363 200.262 65.3267 200.039 66.7426C199.719 68.7909 199.287 70.8203 198.747 72.8217C198.423 74.0217 198.057 75.2697 198.304 76.4888C198.493 77.4344 199.023 78.2648 199.445 79.1288C200.545 81.4591 200.734 84.1015 200.818 86.6766C200.902 89.2518 200.9 91.8725 201.669 94.3301C202.439 96.7876 204.136 99.1108 206.584 99.9052C205.762 100.466 204.809 100.805 203.817 100.889C203.671 101.693 204.129 102.512 204.776 103.02C205.423 103.529 206.214 103.793 206.986 104.045C206.46 104.417 205.854 104.662 205.217 104.76C204.579 104.859 203.928 104.808 203.314 104.611C202.29 104.275 201.444 103.555 200.626 102.85L196.031 98.8924C195.417 98.3948 194.85 97.8421 194.336 97.2412C191.364 93.5429 193.138 87.939 191.479 83.4967C190.127 79.8848 186.492 76.952 186.826 73.1097C186.917 72.0345 187.329 71.017 187.674 69.9898C188.899 66.2631 189.283 62.3112 188.8 58.418C188.317 54.5249 186.979 50.7871 184.881 47.4734C184.356 46.6575 183.748 45.8367 182.873 45.4167C181.542 44.7807 179.641 45.0543 178.886 43.7847C178.486 43.1151 178.407 41.9367 178.371 41.1856C180.811 40.6264 184.081 40.7824 186.363 41.8744Z" fill="#945B79"/>
<path opacity="0.1" d="M69.6203 82.5079C70.7422 75.1257 79.9596 72.4593 84.8523 78.1016C86.2667 79.7384 87.5204 81.5311 88.23 83.3239C90.6272 89.3838 90.807 89.9238 90.807 89.9238C90.807 89.9238 76.0041 92.8037 76.124 94.9637L69.4117 84.2239C69.4117 84.2239 69.4621 83.5519 69.6203 82.5079Z" fill="black"/>
<path d="M69.6203 81.7879C70.7422 74.4057 79.9596 71.7393 84.8523 77.3816C86.2667 79.0184 87.5204 80.8112 88.23 82.6039C90.6272 88.6638 90.807 89.2038 90.807 89.2038C90.807 89.2038 76.0041 92.0837 76.124 94.2437L69.4117 83.5039C69.4117 83.5039 69.4621 82.8319 69.6203 81.7879Z" fill="#DCE6F2"/>
<path opacity="0.1" d="M73.7867 72.3153C73.9665 72.6153 81.0383 81.2551 84.754 82.4863C88.4697 83.7175 73.7867 72.3153 73.7867 72.3153Z" fill="black"/>
<path opacity="0.1" d="M43.4019 100.246C43.4019 100.246 62.1002 122.326 64.4975 131.265L43.4019 100.246Z" fill="black"/>
<path opacity="0.1" d="M44.121 79.8464C44.121 79.8464 48.1963 100.966 56.1071 109.846C64.018 118.726 72.1685 133.845 72.1685 133.845" stroke="black" stroke-width="2" stroke-miterlimit="10"/>
<g opacity="0.1">
<path opacity="0.1" d="M101.897 49.1198C101.913 49.8217 101.67 50.5051 101.216 51.0398C100.854 51.4128 100.376 51.6517 99.86 51.7176C99.3444 51.7834 98.8218 51.6722 98.3775 51.4021C98.121 51.239 97.8669 51.011 97.5625 51.0374C97.3859 51.0655 97.2202 51.1409 97.083 51.2558C95.7334 52.2445 94.7122 53.8381 93.1276 54.2773C93.1837 54.7013 93.141 55.1325 93.0029 55.5373C94.7289 55.2037 95.7837 53.4949 97.2029 52.4557C97.3401 52.3409 97.5057 52.2655 97.6823 52.2373C97.9868 52.2109 98.2409 52.4389 98.4974 52.6021C98.9416 52.8722 99.4643 52.9834 99.9798 52.9175C100.495 52.8517 100.973 52.6128 101.336 52.2397C102.076 51.4237 102.122 50.195 101.897 49.1198Z" fill="black"/>
<path opacity="0.1" d="M100.94 44.6175C100.959 44.8143 100.993 45.0087 101.031 45.2031C101.031 44.0031 101.316 42.7551 101.031 41.6031C101.036 42.5823 100.839 43.6191 100.94 44.6175Z" fill="black"/>
<path opacity="0.1" d="M92.955 52.7581C92.5887 53.1256 92.14 53.4001 91.6463 53.5588C91.1526 53.7174 90.6281 53.7556 90.1167 53.6701C90.2394 53.3699 90.253 53.0361 90.155 52.7269C88.9396 53.4062 87.6751 53.9934 86.3722 54.4837L86.2355 53.7949C84.3993 54.6925 84.5431 57.738 82.7068 58.6356C81.6137 59.1708 80.0699 58.7844 79.3147 59.7492C79.1469 59.9676 79.0486 60.2292 78.8952 60.4692C78.2959 61.3884 77.0014 61.5876 75.9323 61.3452C74.1535 60.942 72.7032 59.598 71.7611 58.0356C70.819 56.4733 70.3107 54.6925 69.8145 52.9357L68.8365 49.4774C68.6758 48.9014 68.5128 48.3254 68.4073 47.7374C68.4073 47.915 68.4074 48.0902 68.4337 48.2654C68.5338 49.0837 68.7088 49.8911 68.9563 50.6774L69.9344 54.1357C70.4306 55.8925 70.9364 57.6732 71.8809 59.2356C72.8254 60.798 74.2782 62.1419 76.0521 62.5451C77.1213 62.7851 78.4158 62.5883 79.0151 61.6692C79.1685 61.4292 79.2668 61.1724 79.4346 60.9492C80.1777 59.9892 81.7335 60.3708 82.8267 59.8356C84.663 58.938 84.5191 55.8925 86.3554 54.9949L86.492 55.6837C87.7925 55.1931 89.0546 54.6058 90.2677 53.9269C90.3656 54.2361 90.3521 54.5699 90.2293 54.8701C90.7157 54.9507 91.214 54.9195 91.6867 54.779C92.1593 54.6385 92.5938 54.3922 92.9574 54.0589C93.0596 53.6313 93.0588 53.1854 92.955 52.7581Z" fill="black"/>
</g>
<path opacity="0.1" d="M88.3283 68.581C87.0386 69.325 84.0421 70.981 83.4356 70.6978C82.7883 70.3978 75.7261 67.9234 73.3672 67.0978C73.523 66.2963 74.0864 64.2563 75.9538 63.5867C76.3319 63.4849 76.7287 63.4742 77.1117 63.5555L84.2746 66.3923C86.2811 67.4122 87.9471 68.3602 88.3283 68.581Z" fill="black"/>
<path d="M88.3283 67.861C87.0386 68.605 84.0421 70.261 83.4356 69.9778C82.7883 69.6778 75.7261 67.2034 73.3672 66.3779C73.523 65.5763 74.0864 63.5363 75.9538 62.8667C76.3319 62.7649 76.7287 62.7542 77.1117 62.8355L84.2746 65.6723C86.2811 66.6922 87.9471 67.6402 88.3283 67.861Z" fill="#DCE6F2"/>
<path opacity="0.1" d="M183.04 49.7822C182.971 52.4869 182.604 55.1917 181.48 57.5556C179.471 61.7772 174.991 64.2899 170.815 63.5339C170.25 63.4623 169.714 63.2466 169.256 62.9075C168.818 62.5002 168.474 62.0012 168.25 61.446C167.372 59.5596 166.924 57.3852 165.696 55.7701C164.469 54.1549 161.978 53.4517 160.794 55.1053C160.149 56.0005 160.041 57.3828 159.181 58.0044C158.148 58.7508 156.784 57.87 155.98 56.8045C153.607 53.6845 154.42 47.5478 149.894 46.6887C149.16 46.5471 148.309 46.5663 147.818 45.9327C147.528 45.5583 147.444 45.0399 147.374 44.5479C147.293 43.9695 147.223 43.3791 147.183 42.7863C147.099 44.0966 147.164 45.412 147.374 46.7079C147.444 47.1998 147.528 47.7182 147.818 48.0926C148.309 48.7262 149.16 48.707 149.894 48.8486C154.42 49.7078 153.607 55.8373 155.98 58.9644C156.781 60.018 158.138 60.8988 159.181 60.1644C160.041 59.5428 160.14 58.1604 160.794 57.2652C161.978 55.6117 164.469 56.3173 165.696 57.93C166.924 59.5428 167.375 61.7195 168.25 63.6059C168.474 64.1612 168.818 64.6602 169.256 65.0675C169.714 65.4066 170.25 65.6223 170.815 65.6939C174.991 66.4499 179.471 63.9371 181.48 59.7156C182.865 56.8069 183.098 53.3749 183.045 50.0702C183.04 49.9646 183.04 49.8686 183.04 49.7822Z" fill="black"/>
<g opacity="0.1">
<path opacity="0.1" d="M198.716 61.302C199.224 62.6411 199.064 64.1315 198.841 65.5475C198.52 67.5941 198.089 69.6219 197.549 71.6218C197.225 72.8217 196.858 74.0697 197.105 75.2889C197.294 76.2345 197.824 77.0648 198.246 77.9288C199.346 80.2592 199.536 82.9015 199.62 85.4767C199.704 88.0518 199.701 90.6726 200.471 93.1301C200.969 94.805 201.922 96.3086 203.223 97.474C202.535 96.5522 202.01 95.5198 201.669 94.4213C200.9 91.9637 200.9 89.343 200.818 86.7678C200.737 84.1927 200.545 81.5504 199.445 79.2224C199.032 78.3512 198.486 77.5208 198.304 76.5825C198.064 75.3633 198.424 74.1129 198.747 72.9129C199.288 70.9075 199.719 68.8742 200.039 66.8219C200.262 65.4059 200.423 63.9131 199.915 62.5739C199.505 61.5012 198.716 60.654 197.86 59.8308C198.219 60.2747 198.507 60.7708 198.716 61.302Z" fill="black"/>
<path opacity="0.1" d="M206.584 100.001C205.943 99.789 205.341 99.4746 204.8 99.07C204.122 99.4232 203.38 99.6385 202.619 99.7036C202.472 100.508 202.93 101.326 203.578 101.835C203.706 101.938 203.842 102.032 203.985 102.116C203.818 101.764 203.762 101.37 203.824 100.985C204.813 100.898 205.763 100.559 206.584 100.001Z" fill="black"/>
<path opacity="0.1" d="M181.667 44.2359C180.754 43.7991 179.572 43.7895 178.675 43.4175C178.726 43.5843 178.794 43.7452 178.879 43.8975C179.634 45.1647 181.535 44.8911 182.865 45.5295C183.033 45.6139 183.194 45.7127 183.345 45.8247C182.929 45.1612 182.352 44.6145 181.667 44.2359Z" fill="black"/>
<path opacity="0.1" d="M205.006 103.301C204.088 103.693 203.059 103.742 202.108 103.438C201.084 103.102 200.238 102.382 199.421 101.676L194.825 97.7188C194.607 97.5316 194.391 97.342 194.18 97.15C194.228 97.2148 194.276 97.282 194.329 97.3468C194.842 97.9483 195.409 98.5011 196.024 98.998L200.619 102.958C201.437 103.661 202.283 104.383 203.307 104.719C203.921 104.915 204.572 104.966 205.21 104.867C205.847 104.768 206.453 104.523 206.979 104.151C206.285 103.96 205.621 103.674 205.006 103.301Z" fill="black"/>
<path opacity="0.1" d="M190.522 45.9423C191.762 47.6438 193.044 49.463 193.207 51.5606C193.272 52.4197 193.145 53.2933 193.308 54.1381C193.567 55.4893 194.48 56.5045 195.501 57.4716C195.008 56.8789 194.666 56.1745 194.506 55.4197C194.343 54.5725 194.47 53.6989 194.406 52.8397C194.243 50.7422 192.967 48.923 191.721 47.2238C190.819 45.9831 189.88 44.7159 188.775 43.6647C189.391 44.3943 189.964 45.1719 190.522 45.9423Z" fill="black"/>
</g>
<path opacity="0.1" d="M180.006 40.9672C180.006 40.9672 178.567 43.3671 182.643 45.3663L182.882 44.7255L180.006 40.9672Z" fill="black"/>
<path d="M179.766 40.9672C179.766 40.9672 178.327 43.3671 182.403 45.3663L182.642 44.7255L179.766 40.9672Z" fill="#FF6584"/>
<path d="M236.511 176.802C236.511 176.802 237.829 178.528 235.904 181.122C233.979 183.716 232.392 185.922 233.027 187.547C233.027 187.547 235.933 182.711 238.301 182.643C240.67 182.576 239.112 179.711 236.511 176.802Z" fill="#6C63FF"/>
<path opacity="0.1" d="M236.511 176.802C236.626 176.968 236.717 177.15 236.782 177.342C239.088 180.056 240.315 182.588 238.098 182.651C236.034 182.711 233.557 186.407 232.963 187.34C232.982 187.412 233.006 187.482 233.032 187.554C233.032 187.554 235.938 182.718 238.306 182.651C240.675 182.583 239.112 179.711 236.511 176.802Z" fill="black"/>
<path d="M238.961 179C238.961 179.608 238.891 180.1 238.807 180.1C238.723 180.1 238.656 179.62 238.656 179C238.656 178.381 238.74 178.679 238.824 178.679C238.908 178.679 238.961 178.393 238.961 179Z" fill="#FFD037"/>
<path d="M239.8 179.725C239.267 180.016 238.802 180.191 238.764 180.116C238.726 180.042 239.121 179.747 239.653 179.456C240.186 179.166 239.977 179.377 240.018 179.456C240.059 179.536 240.334 179.435 239.8 179.725Z" fill="#FFD037"/>
<path d="M229.547 176.802C229.547 176.802 228.228 178.528 230.153 181.122C232.078 183.716 233.665 185.922 233.03 187.547C233.03 187.547 230.127 182.711 227.756 182.643C225.385 182.576 226.955 179.711 229.547 176.802Z" fill="#6C63FF"/>
<path opacity="0.1" d="M229.547 176.802C229.432 176.968 229.341 177.15 229.276 177.342C226.97 180.056 225.742 182.588 227.96 182.651C230.024 182.711 232.5 186.407 233.095 187.34C233.075 187.413 233.051 187.484 233.023 187.554C233.023 187.554 230.12 182.718 227.749 182.651C225.378 182.583 226.955 179.711 229.547 176.802Z" fill="black"/>
<path d="M227.106 179C227.106 179.608 227.176 180.1 227.26 180.1C227.344 180.1 227.411 179.62 227.411 179C227.411 178.381 227.327 178.679 227.243 178.679C227.159 178.679 227.106 178.393 227.106 179Z" fill="#FFD037"/>
<path d="M226.267 179.725C226.799 180.016 227.262 180.191 227.303 180.116C227.344 180.042 226.946 179.747 226.413 179.456C225.881 179.166 226.09 179.377 226.049 179.456C226.008 179.536 225.735 179.435 226.267 179.725Z" fill="#FFD037"/>
<path d="M227.526 187.328C227.526 187.328 231.208 187.213 232.32 186.423C233.433 185.634 237.985 184.686 238.261 185.943C238.536 187.201 243.793 192.253 239.637 192.287C235.48 192.32 229.978 191.639 228.871 190.964C227.763 190.29 227.526 187.328 227.526 187.328Z" fill="#A8A8A8"/>
<path opacity="0.2" d="M239.709 191.859C235.552 191.893 230.05 191.211 228.943 190.537C228.099 190.021 227.763 188.175 227.65 187.326H227.526C227.526 187.326 227.766 190.299 228.868 190.976C229.971 191.653 235.477 192.332 239.634 192.299C240.833 192.299 241.248 191.862 241.226 191.228C241.053 191.619 240.6 191.859 239.709 191.859Z" fill="black"/>
<path d="M62.9608 183.097C63.401 182.739 63.722 182.255 63.8814 181.71C63.9988 181.158 63.7639 180.496 63.2389 180.294C62.6492 180.068 62.0187 180.479 61.5417 180.892C61.0646 181.304 60.5157 181.777 59.89 181.688C60.2118 181.397 60.4525 181.026 60.5886 180.614C60.7247 180.201 60.7516 179.76 60.6667 179.334C60.6394 179.157 60.5649 178.992 60.4509 178.854C60.1249 178.504 59.5304 178.655 59.1373 178.931C57.8907 179.807 57.5431 181.504 57.5383 183.027C57.4113 182.478 57.5167 181.904 57.5143 181.348C57.5119 180.791 57.3561 180.148 56.8815 179.855C56.5883 179.692 56.2577 179.609 55.9226 179.615C55.3616 179.593 54.7384 179.651 54.3548 180.061C53.8754 180.57 54.0024 181.427 54.4171 181.981C54.8318 182.535 55.4599 182.895 56.0376 183.282C56.5026 183.559 56.8992 183.937 57.1979 184.388C57.2328 184.452 57.2617 184.518 57.2842 184.587H60.7818C61.5721 184.192 62.3051 183.69 62.9608 183.097Z" fill="#6C63FF"/>
<path d="M35.0499 186.882C35.0499 186.882 31.6937 175.434 35.6803 167.005C37.38 163.482 37.8931 159.501 37.1427 155.661C36.7702 153.84 36.2326 152.058 35.5365 150.335" stroke="#535461" stroke-width="2" stroke-miterlimit="10"/>
<path d="M38.0272 145.01C38.0272 146.411 35.4886 150.482 35.4886 150.482C35.4886 150.482 32.9499 146.402 32.9499 145.01C32.9499 144.336 33.2174 143.689 33.6934 143.213C34.1695 142.736 34.8153 142.468 35.4886 142.468C36.1619 142.468 36.8076 142.736 37.2837 143.213C37.7598 143.689 38.0272 144.336 38.0272 145.01Z" fill="#6C63FF"/>
<path d="M42.2224 152.781C41.4601 153.959 37.1211 155.994 37.1211 155.994C37.1211 155.994 37.1978 151.195 37.9601 150.021C38.3327 149.471 38.9055 149.089 39.5559 148.957C40.2063 148.825 40.8826 148.953 41.4399 149.313C41.9972 149.674 42.3911 150.239 42.5374 150.887C42.6837 151.536 42.5706 152.215 42.2224 152.781Z" fill="#6C63FF"/>
<path d="M42.0378 166.065C40.7864 166.696 36.0135 166.259 36.0135 166.259C36.0135 166.259 38.5019 162.16 39.7532 161.526C40.0517 161.368 40.3786 161.271 40.715 161.241C41.0514 161.211 41.3903 161.248 41.7121 161.351C42.0339 161.453 42.3319 161.619 42.5889 161.839C42.8458 162.058 43.0564 162.327 43.2084 162.629C43.3604 162.93 43.4507 163.26 43.474 163.597C43.4973 163.934 43.4531 164.273 43.3441 164.593C43.2351 164.913 43.0634 165.208 42.8391 165.461C42.6148 165.713 42.3424 165.919 42.0378 166.065Z" fill="#6C63FF"/>
<path d="M39.6382 176.082C38.5115 176.917 33.7338 177.282 33.7338 177.282C33.7338 177.282 35.4934 172.821 36.6105 171.985C36.8765 171.767 37.1839 171.605 37.5143 171.51C37.8446 171.414 38.1909 171.386 38.5322 171.429C38.8735 171.471 39.2026 171.582 39.4996 171.756C39.7966 171.929 40.0553 172.162 40.26 172.438C40.4646 172.715 40.611 173.03 40.6902 173.365C40.7695 173.7 40.7799 174.048 40.7208 174.387C40.6618 174.726 40.5345 175.05 40.3468 175.338C40.159 175.627 39.9147 175.874 39.6286 176.065L39.6382 176.082Z" fill="#6C63FF"/>
<path d="M31.7921 156.266C32.7965 157.245 37.4807 158.258 37.4807 158.258C37.4807 158.258 36.3324 153.599 35.3232 152.62C35.0862 152.378 34.8032 152.185 34.4907 152.054C34.1782 151.923 33.8427 151.855 33.5038 151.856C33.165 151.857 32.8297 151.925 32.5177 152.058C32.2057 152.19 31.9234 152.384 31.6873 152.627C31.4513 152.87 31.2663 153.159 31.1432 153.475C31.0202 153.791 30.9616 154.128 30.9709 154.467C30.9802 154.807 31.0573 155.14 31.1975 155.449C31.3377 155.758 31.5382 156.036 31.7873 156.266H31.7921Z" fill="#6C63FF"/>
<path d="M29.1383 168.018C30.3897 168.649 35.1626 168.215 35.1626 168.215C35.1626 168.215 32.6766 164.113 31.4229 163.482C31.1254 163.332 30.8013 163.242 30.469 163.217C30.1368 163.193 29.8029 163.233 29.4865 163.338C29.17 163.442 28.8772 163.608 28.6248 163.826C28.3724 164.043 28.1652 164.309 28.0152 164.607C27.8652 164.904 27.7753 165.229 27.7505 165.562C27.7258 165.894 27.7667 166.228 27.871 166.545C27.9753 166.862 28.1409 167.155 28.3584 167.408C28.5758 167.661 28.8408 167.868 29.1383 168.018Z" fill="#6C63FF"/>
<path d="M28.1171 179.797C29.2438 180.63 34.0214 180.997 34.0214 180.997C34.0214 180.997 32.2619 176.533 31.1448 175.698C30.6026 175.336 29.9422 175.197 29.3001 175.309C28.6581 175.421 28.0837 175.775 27.6959 176.3C27.308 176.824 27.1364 177.478 27.2166 178.125C27.2968 178.773 27.6226 179.364 28.1266 179.778L28.1171 179.797Z" fill="#6C63FF"/>
<path d="M38.0272 145.01C38.0272 146.411 35.4886 150.482 35.4886 150.482C35.4886 150.482 32.9499 146.402 32.9499 145.01C32.9499 144.336 33.2174 143.689 33.6934 143.213C34.1695 142.736 34.8153 142.468 35.4886 142.468C36.1619 142.468 36.8076 142.736 37.2837 143.213C37.7598 143.689 38.0272 144.336 38.0272 145.01Z" fill="#6C63FF"/>
<path d="M42.2224 152.781C41.4601 153.959 37.1211 155.994 37.1211 155.994C37.1211 155.994 37.1978 151.195 37.9601 150.021C38.3327 149.471 38.9055 149.089 39.5559 148.957C40.2063 148.825 40.8826 148.953 41.4399 149.313C41.9972 149.674 42.3911 150.239 42.5374 150.887C42.6837 151.536 42.5706 152.215 42.2224 152.781Z" fill="#6C63FF"/>
<path d="M42.0378 166.065C40.7864 166.696 36.0135 166.259 36.0135 166.259C36.0135 166.259 38.5019 162.16 39.7532 161.526C40.0517 161.368 40.3786 161.271 40.715 161.241C41.0514 161.211 41.3903 161.248 41.7121 161.351C42.0339 161.453 42.3319 161.619 42.5889 161.839C42.8458 162.058 43.0564 162.327 43.2084 162.629C43.3604 162.93 43.4507 163.26 43.474 163.597C43.4973 163.934 43.4531 164.273 43.3441 164.593C43.2351 164.913 43.0634 165.208 42.8391 165.461C42.6148 165.713 42.3424 165.919 42.0378 166.065Z" fill="#6C63FF"/>
<path d="M39.6382 176.082C38.5115 176.917 33.7338 177.282 33.7338 177.282C33.7338 177.282 35.4934 172.821 36.6105 171.985C36.8765 171.767 37.1839 171.605 37.5143 171.51C37.8446 171.414 38.1909 171.386 38.5322 171.429C38.8735 171.471 39.2026 171.582 39.4996 171.756C39.7966 171.929 40.0553 172.162 40.26 172.438C40.4646 172.715 40.611 173.03 40.6902 173.365C40.7695 173.7 40.7799 174.048 40.7208 174.387C40.6618 174.726 40.5345 175.05 40.3468 175.338C40.159 175.627 39.9147 175.874 39.6286 176.065L39.6382 176.082Z" fill="#6C63FF"/>
<path d="M31.7921 156.266C32.7965 157.245 37.4807 158.258 37.4807 158.258C37.4807 158.258 36.3324 153.599 35.3232 152.62C35.0862 152.378 34.8032 152.185 34.4907 152.054C34.1782 151.923 33.8427 151.855 33.5038 151.856C33.165 151.857 32.8297 151.925 32.5177 152.058C32.2057 152.19 31.9234 152.384 31.6873 152.627C31.4513 152.87 31.2663 153.159 31.1432 153.475C31.0202 153.791 30.9616 154.128 30.9709 154.467C30.9802 154.807 31.0573 155.14 31.1975 155.449C31.3377 155.758 31.5382 156.036 31.7873 156.266H31.7921Z" fill="#6C63FF"/>
<path d="M29.1383 168.018C30.3897 168.649 35.1626 168.215 35.1626 168.215C35.1626 168.215 32.6766 164.113 31.4229 163.482C31.1254 163.332 30.8013 163.242 30.469 163.217C30.1368 163.193 29.8029 163.233 29.4865 163.338C29.17 163.442 28.8772 163.608 28.6248 163.826C28.3724 164.043 28.1652 164.309 28.0152 164.607C27.8652 164.904 27.7753 165.229 27.7505 165.562C27.7258 165.894 27.7667 166.228 27.871 166.545C27.9753 166.862 28.1409 167.155 28.3584 167.408C28.5758 167.661 28.8408 167.868 29.1383 168.018Z" fill="#6C63FF"/>
<path d="M28.1171 179.797C29.2438 180.63 34.0214 180.997 34.0214 180.997C34.0214 180.997 32.2619 176.533 31.1448 175.698C30.6026 175.336 29.9422 175.197 29.3001 175.309C28.6581 175.421 28.0837 175.775 27.6959 176.3C27.308 176.824 27.1364 177.478 27.2166 178.125C27.2968 178.773 27.6226 179.364 28.1266 179.778L28.1171 179.797Z" fill="#6C63FF"/>
<path d="M27.0887 186.162C27.0887 186.162 31.1903 185.346 32.2835 184.259C33.3766 183.171 38.3005 181.268 38.8471 182.627C39.3937 183.985 46.2306 188.607 41.5823 189.423C36.9341 190.239 30.6438 190.511 29.275 189.966C27.9061 189.421 27.0887 186.162 27.0887 186.162Z" fill="#A8A8A8"/>
<path opacity="0.2" d="M41.5823 188.917C36.9317 189.733 30.6438 190.004 29.275 189.462C28.2346 189.047 27.5106 187.062 27.2253 186.133L27.0887 186.162C27.0887 186.162 27.9085 189.423 29.275 189.966C30.6414 190.508 36.9317 190.239 41.5823 189.423C42.9224 189.183 43.3059 188.634 43.1621 187.935C43.0422 188.391 42.5796 188.739 41.5823 188.917Z" fill="black"/>
</g>
<defs>
<linearGradient id="paint0_linear" x1="123.071" y1="193.522" x2="123.071" y2="32.9465" gradientUnits="userSpaceOnUse">
<stop stop-color="#808080" stop-opacity="0.25"/>
<stop offset="0.54" stop-color="#808080" stop-opacity="0.12"/>
<stop offset="1" stop-color="#808080" stop-opacity="0.1"/>
</linearGradient>
<clipPath id="clip0">
<rect width="263" height="197" fill="white"/>
</clipPath>
</defs>
</svg>
