<svg width="275" height="219" viewBox="0 0 275 219" fill="none" xmlns="http://www.w3.org/2000/svg">
<g clip-path="url(#clip0)">
<path opacity="0.1" d="M161.278 37.0099C143.877 36.4039 127.302 30.7779 111.477 24.6212C95.652 18.4646 79.9775 11.6427 62.9937 8.38123C52.0699 6.28323 39.576 5.98698 30.7763 11.8528C22.3045 17.5085 19.5675 27.2444 18.0969 36.2881C16.9892 43.0912 16.3385 50.2497 19.374 56.6191C21.4791 61.0413 25.219 64.7579 27.8027 69.0078C36.8014 83.745 30.4429 101.919 20.6914 116.308C16.1208 123.06 10.8108 129.505 7.28337 136.685C3.75594 143.865 2.12127 152.104 5.20778 159.435C8.27008 166.706 15.5642 172.157 23.4633 175.995C39.5115 183.792 58.415 186.022 76.8614 187.285C117.682 190.083 158.718 188.871 199.647 187.659C214.794 187.21 230.006 186.754 244.907 184.409C253.182 183.105 261.724 181.039 267.733 176.046C275.358 169.709 277.248 158.977 272.139 151.032C263.565 137.703 239.876 134.393 233.875 120.087C230.579 112.215 233.967 103.446 238.758 96.1418C249.039 80.4781 266.27 66.7347 267.179 48.8304C267.803 36.5305 259.516 24.2172 246.708 18.3972C233.284 12.2756 214.663 13.0512 204.763 23.148C194.563 33.5518 176.64 37.5432 161.278 37.0099Z" fill="#6C63FF"/>
<path d="M117.075 185.965L25.0495 185.515L15.9056 164.032L48.2387 161.681L42.6034 138.126L106.554 129.823L45.3162 108.498L50.7256 107.211L149.195 123.303L143.772 160.062L136.021 180.264L117.075 185.965Z" fill="#6C63FF"/>
<path d="M26.4611 176.518C26.4611 176.518 32.1071 175.613 35.4947 179.609C35.4947 179.609 33.0105 181.57 27.6655 178.855L26.4611 176.518Z" fill="#6C63FF"/>
<path d="M25.8696 176.429C25.8696 176.429 22.2669 180.87 24.0414 185.814C24.0414 185.814 26.9773 184.637 27.2973 178.642L25.8696 176.429Z" fill="#6C63FF"/>
<path d="M22.6326 169.127C22.6326 169.127 24.891 164.977 33.9247 170.786C33.9247 170.786 32.7202 173.577 28.7303 173.35C24.7404 173.124 23.6865 171.314 22.6326 169.127Z" fill="#6C63FF"/>
<path d="M22.0492 168.828C22.0492 168.828 17.3629 168.29 16.9086 179.036C16.9086 179.036 19.8795 179.652 21.99 176.254C24.1005 172.855 23.2348 170.948 22.0492 168.828Z" fill="#6C63FF"/>
<path d="M19.3202 160.256C19.3202 160.256 21.955 152.941 31.5156 158.145C31.5156 158.145 29.3325 164.856 20.2988 162.745L19.3202 160.256Z" fill="#6C63FF"/>
<path d="M16.3843 149.322C16.3843 149.322 21.3528 141.931 30.1606 148.783C30.1606 148.783 27.0741 155.721 17.1371 151.95L16.3843 149.322Z" fill="#6C63FF"/>
<path d="M15.3303 138.915C15.3303 138.915 21.1269 132.126 29.8487 138.915C29.8487 138.915 24.3532 144.872 15.3303 140.65V138.915Z" fill="#6C63FF"/>
<path d="M14.427 128.808C14.427 128.808 20.2989 121.719 28.655 128.43C28.655 128.43 22.0303 134.689 14.427 130.467V128.808Z" fill="#6C63FF"/>
<path d="M14.954 119.834C14.954 119.834 21.1377 110.709 28.9562 116.893C28.9562 116.893 22.3315 124.735 14.954 121.568V119.834Z" fill="#6C63FF"/>
<path d="M16.3843 109.352C16.3843 109.352 22.9337 100.303 30.537 107.24C30.537 107.24 22.7831 115.083 16.3843 111.011V109.352Z" fill="#6C63FF"/>
<path d="M18.5674 99.9822C18.5674 99.9822 26.3213 91.4771 33.0858 94.8652C33.0858 94.8652 25.0066 103.898 18.2286 102.239L18.5674 99.9822Z" fill="#6C63FF"/>
<path d="M21.2775 91.1001C21.2775 91.1001 30.2251 80.6828 35.4302 84.1624C35.4302 84.1624 28.8378 92.242 20.6429 93.0499L21.2775 91.1001Z" fill="#6C63FF"/>
<path d="M25.1894 80.7986C25.1894 80.7986 33.0213 72.2935 38.7426 74.405C38.7426 74.405 32.0426 83.2278 24.1382 83.4541L25.1894 80.7986Z" fill="#6C63FF"/>
<path d="M28.7303 71.1624C28.7303 71.1624 37.3876 63.0181 41.1516 64.4509C41.1516 64.4509 34.9033 73.5001 28.3539 72.9722L28.7303 71.1624Z" fill="#6C63FF"/>
<path d="M32.1932 62.264C32.1932 62.264 39.646 52.5335 43.7139 53.2876C43.7139 53.2876 39.1943 61.9624 32.1932 63.2524V62.264Z" fill="#6C63FF"/>
<path d="M35.9518 50.2658C35.9518 50.2658 42.5389 42.8084 46.0986 42.8245C46.0986 42.8245 40.8989 52.7894 35.6803 52.6978L35.9518 50.2658Z" fill="#6C63FF"/>
<path d="M38.178 42.2778L44.5419 26.7434C44.5419 26.7434 44.8592 40.7858 37.3688 45.1595L38.178 42.2778Z" fill="#6C63FF"/>
<path d="M40.7618 25.1464C40.7618 25.1464 41.8157 12.1733 41.1382 11.1175C41.1382 11.1175 45.6873 21.9038 40.7188 30.8775L40.7618 25.1464Z" fill="#6C63FF"/>
<path d="M19.0729 160.084C19.0729 160.084 12.4751 155.987 8.20288 166.009C8.20288 166.009 14.0748 169.914 19.8499 162.639L19.0729 160.084Z" fill="#6C63FF"/>
<path d="M16.1719 148.904C16.1719 148.904 8.07928 145.206 4.15393 155.669C4.15393 155.669 10.4049 159.979 16.9086 151.549L16.1719 148.904Z" fill="#6C63FF"/>
<path d="M14.9539 139.537C14.9539 139.537 9.15734 132.748 0.435547 139.537C0.435547 139.537 5.93103 145.495 14.9539 141.272V139.537Z" fill="#6C63FF"/>
<path d="M14.228 128.808C14.228 128.808 8.35615 121.719 0 128.43C0 128.43 6.62469 134.689 14.228 130.467V128.808Z" fill="#6C63FF"/>
<path d="M14.9539 120.092C14.9539 120.092 10.835 109.872 1.88196 114.267C1.88196 114.267 6.72142 123.33 14.5882 121.789L14.9539 120.092Z" fill="#6C63FF"/>
<path d="M16.9032 109.301C16.9032 109.301 12.8085 98.9023 3.72913 103.723C3.72913 103.723 9.28914 113.254 16.4999 110.906L16.9032 109.301Z" fill="#6C63FF"/>
<path d="M19.4411 100.033C19.4411 100.033 17.828 88.6331 10.2999 87.6124C10.2999 87.6124 11.8969 99.6348 18.4275 102.088L19.4411 100.033Z" fill="#6C63FF"/>
<path d="M21.4685 91.1216C21.4685 91.1216 20.8393 77.3863 14.6152 76.9069C14.6152 76.9069 14.8249 87.3323 20.7667 93.0661L21.4685 91.1216Z" fill="#6C63FF"/>
<path d="M25.8348 80.4135C25.8348 80.4135 23.9796 68.9916 18.0378 67.5965C18.0378 67.5965 18.7745 78.6575 25.246 83.2171L25.8348 80.4135Z" fill="#6C63FF"/>
<path d="M29.4347 71.2566C29.4347 71.2566 29.3729 59.3581 25.7433 57.6102C25.7433 57.6102 23.4929 68.383 28.3835 72.7756L29.4347 71.2566Z" fill="#6C63FF"/>
<path d="M32.4701 62.1294C32.4701 62.1294 31.962 49.878 28.2033 48.1517C28.2033 48.1517 26.9182 57.8472 31.9082 62.9319L32.4701 62.1294Z" fill="#6C63FF"/>
<path d="M36.4761 51.2435C36.4761 51.2435 36.4545 41.2786 33.7713 38.9409C33.7713 38.9409 31.1042 49.8565 35.0753 53.2472L36.4761 51.2435Z" fill="#6C63FF"/>
<path d="M37.8635 41.7876L35.2529 25.2029C35.2529 25.2029 31.7066 38.7928 37.9872 44.7825L37.8635 41.7876Z" fill="#6C63FF"/>
<path d="M38.3716 25.3026C38.3716 25.3026 31.6716 14.1527 31.8087 12.9139C31.8087 12.9139 32.5212 24.5997 40.9499 30.4197L38.3716 25.3026Z" fill="#6C63FF"/>
<path d="M39.1566 22.0088C39.1566 22.0088 32.8331 6.17281 29.9724 4.89084C29.9724 4.89084 39.0061 9.49082 39.6836 21.5563L39.1566 22.0088Z" fill="#6C63FF"/>
<path d="M35.6481 52.7921L35.2152 52.6601C40.5521 35.227 41.8829 24.1122 38.9658 21.3247L39.275 20.9962C42.3695 23.9371 41.114 34.9308 35.6481 52.7921Z" fill="#444053"/>
<path d="M20.9521 93.6101L20.3123 93.3812C20.8795 91.7842 21.4899 90.1629 22.1297 88.5658C27.7005 74.6581 32.4432 61.72 35.484 51.7875L36.0405 51.5182C32.9943 61.4695 28.335 74.9032 22.7589 88.8297C22.1217 90.3972 21.5141 92.0104 20.9521 93.6101Z" fill="#444053"/>
<path d="M34.4167 189.563C34.3307 189.469 25.6815 179.712 19.6509 163.054C16.1174 153.302 14.1509 143.05 13.8248 132.68C13.4107 119.718 16.1262 105.245 20.7775 92.0966L21.2829 92.6891C10.8404 122.198 14.9889 147.485 20.4925 162.712C26.4585 179.219 35.0109 188.868 35.0942 188.965L34.4167 189.563Z" fill="#444053"/>
<path d="M169.578 168.847C169.578 168.847 163.483 176.299 168.322 187.565L119.658 208.707L114.988 209.687L112.838 200.261L114.276 188.365V181.864L169.578 168.847Z" fill="#D5D6DB"/>
<path d="M15.9056 164.032L83.2603 151.732L172.508 165.974L117.075 185.965L15.9056 164.032Z" fill="#6C63FF"/>
<path d="M15.9056 164.032L83.2603 151.732L172.508 165.974L117.075 185.965L15.9056 164.032Z" fill="#6C63FF"/>
<path d="M15.9057 164.029C15.9057 164.029 9.60636 175.984 16.8656 187.026L116.747 208.707C116.747 208.707 110.547 199.183 117.067 185.965L15.9057 164.029Z" fill="#6C63FF"/>
<path opacity="0.1" d="M15.9057 164.029C15.9057 164.029 9.60636 175.984 16.8656 187.026L116.747 208.707C116.747 208.707 110.547 199.183 117.067 185.965L15.9057 164.029Z" fill="black"/>
<path opacity="0.1" d="M18.882 168.174C18.882 168.174 15.282 176.921 18.882 182.583V168.174Z" fill="black"/>
<path d="M116.747 208.707L172.508 184.872C172.508 184.872 175.627 185.545 173.61 187.834C171.594 190.124 117.822 210.996 117.822 210.996L16.8655 187.026L116.747 208.707Z" fill="#6C63FF"/>
<path opacity="0.1" d="M116.747 208.707L172.508 184.872C172.508 184.872 175.627 185.545 173.61 187.834C171.594 190.124 117.822 210.996 117.822 210.996L16.8655 187.026L116.747 208.707Z" fill="black"/>
<path opacity="0.1" d="M112.176 188.373C112.176 188.373 106.799 194.837 112.176 204.532V188.373Z" fill="black"/>
<path opacity="0.1" d="M138.209 188.264L114.09 196.324L114.175 196.58L138.294 188.519L138.209 188.264Z" fill="black"/>
<path opacity="0.1" d="M143.04 187.462L114.082 198.492L114.178 198.744L143.136 187.713L143.04 187.462Z" fill="black"/>
<path opacity="0.1" d="M147.477 187.423L114.244 201.049L114.346 201.298L147.578 187.672L147.477 187.423Z" fill="black"/>
<path opacity="0.1" d="M152.301 186.256L114.632 203.302L114.743 203.547L152.412 186.502L152.301 186.256Z" fill="black"/>
<path opacity="0.1" d="M156.354 186.262L114.93 204.399L115.038 204.646L156.462 186.508L156.354 186.262Z" fill="black"/>
<path opacity="0.1" d="M165.22 184.753L115.555 206.241L115.661 206.488L165.327 185.001L165.22 184.753Z" fill="black"/>
<path opacity="0.3" d="M40.9285 165.346L88.2477 155.381L117.075 160.902L78.2999 173.426L40.9285 165.346Z" fill="white"/>
<path d="M172.508 165.974C172.508 165.974 174.955 166.962 173.519 168.489C172.083 170.016 117.067 185.965 117.067 185.965L172.508 165.974Z" fill="#6C63FF"/>
<path d="M196.273 142.944C196.273 142.944 190.18 150.394 195.02 161.662L146.356 182.803L141.686 183.789L139.535 174.363L140.995 162.47V155.96L196.273 142.944Z" fill="#D5D6DB"/>
<path d="M42.6035 138.126L109.955 125.829L199.206 140.07L143.773 160.062L42.6035 138.126Z" fill="#3A3768"/>
<path d="M42.5927 138.126C42.5927 138.126 36.2906 150.081 43.5498 161.123L143.431 182.803C143.431 182.803 137.234 173.272 143.762 160.059L42.5927 138.126Z" fill="#3A3768"/>
<path opacity="0.1" d="M42.5927 138.126C42.5927 138.126 36.2906 150.081 43.5498 161.123L143.431 182.803C143.431 182.803 137.234 173.272 143.762 160.059L112.176 153.211L42.5927 138.126Z" fill="black"/>
<path opacity="0.1" d="M45.577 142.271C45.577 142.271 41.9796 151.016 45.577 156.679V142.271Z" fill="black"/>
<path d="M143.442 182.803L199.206 158.969C199.206 158.969 202.322 159.642 200.305 161.931C198.289 164.22 144.517 185.093 144.517 185.093L43.5605 161.123L143.442 182.803Z" fill="#3A3768"/>
<path opacity="0.1" d="M143.442 182.803L199.206 158.969C199.206 158.969 202.322 159.642 200.305 161.931C198.289 164.22 144.517 185.093 144.517 185.093L43.5605 161.123L143.442 182.803Z" fill="black"/>
<path opacity="0.1" d="M138.871 162.47C138.871 162.47 133.494 168.933 138.871 178.629V162.47Z" fill="black"/>
<path opacity="0.1" d="M164.906 162.363L140.787 170.424L140.872 170.679L164.991 162.619L164.906 162.363Z" fill="black"/>
<path opacity="0.1" d="M169.741 161.56L140.783 172.59L140.878 172.842L169.836 161.812L169.741 161.56Z" fill="black"/>
<path opacity="0.1" d="M174.173 161.518L140.94 175.144L141.042 175.393L174.275 161.767L174.173 161.518Z" fill="black"/>
<path opacity="0.1" d="M179.001 160.351L141.331 177.397L141.442 177.642L179.111 160.597L179.001 160.351Z" fill="black"/>
<path opacity="0.1" d="M183.05 160.353L141.626 178.491L141.734 178.738L183.158 160.6L183.05 160.353Z" fill="black"/>
<path opacity="0.1" d="M191.918 158.845L142.253 180.333L142.359 180.58L192.025 159.092L191.918 158.845Z" fill="black"/>
<path opacity="0.45" d="M67.6261 139.443L114.945 129.478L143.772 134.999L104.998 147.523L67.6261 139.443Z" fill="white"/>
<path d="M199.206 140.07C199.206 140.07 201.65 141.059 200.217 142.583C198.784 144.108 143.772 160.059 143.772 160.059L199.206 140.07Z" fill="#3A3768"/>
<path d="M198.8 113.311C198.8 113.311 192.705 126.688 197.544 137.954L148.881 153.17L144.221 154.159L142.071 144.732L143.509 132.837V126.327L198.8 113.311Z" fill="#D5D6DB"/>
<path d="M45.1388 108.495L112.493 96.1956L201.744 110.437L146.308 130.429L45.1388 108.495Z" fill="#6C63FF"/>
<path d="M45.1388 108.493C45.1388 108.493 38.8287 120.448 46.0879 131.49L145.969 153.17C145.969 153.17 139.769 143.639 146.297 130.429L45.1388 108.493Z" fill="#6C63FF"/>
<path opacity="0.1" d="M45.1388 108.493C45.1388 108.493 38.8287 120.448 46.0879 131.49L145.969 153.17C145.969 153.17 139.769 143.639 146.297 130.429L45.1388 108.493Z" fill="black"/>
<path opacity="0.1" d="M48.115 112.638C48.115 112.638 44.515 121.385 48.115 127.046V112.638Z" fill="black"/>
<path d="M145.98 153.17L201.741 135.26C201.741 135.26 204.86 135.934 202.844 138.223C200.827 140.512 147.055 155.459 147.055 155.459L46.0986 131.49L145.98 153.17Z" fill="#6C63FF"/>
<path opacity="0.1" d="M145.98 153.17L201.741 135.26C201.741 135.26 204.86 135.934 202.844 138.223C200.827 140.512 147.055 155.459 147.055 155.459L46.0986 131.49L145.98 153.17Z" fill="black"/>
<path opacity="0.1" d="M141.409 132.837C141.409 132.837 136.032 139.3 141.409 148.996V132.837Z" fill="black"/>
<path opacity="0.1" d="M167.445 132.73L143.326 140.79L143.411 141.046L167.53 132.985L167.445 132.73Z" fill="black"/>
<path opacity="0.1" d="M172.277 131.928L143.32 142.958L143.415 143.21L172.373 132.179L172.277 131.928Z" fill="black"/>
<path opacity="0.1" d="M176.708 131.886L143.475 145.512L143.577 145.762L176.809 132.136L176.708 131.886Z" fill="black"/>
<path opacity="0.1" d="M181.539 130.718L143.87 147.763L143.98 148.009L181.65 130.963L181.539 130.718Z" fill="black"/>
<path opacity="0.1" d="M185.59 130.723L144.165 148.86L144.273 149.107L185.697 130.969L185.59 130.723Z" fill="black"/>
<path opacity="0.1" d="M194.457 129.216L144.791 150.704L144.898 150.951L194.563 129.463L194.457 129.216Z" fill="black"/>
<path opacity="0.3" d="M70.1615 109.81L117.481 99.8449L146.308 105.366L107.533 117.889L70.1615 109.81Z" fill="white"/>
<path d="M201.741 110.437C201.741 110.437 204.188 111.426 202.752 112.953C201.316 114.48 146.308 130.429 146.308 130.429L201.741 110.437Z" fill="#6C63FF"/>
<path d="M83.4593 28.6825C83.4593 28.6825 73.2426 28.0658 74.4364 35.2459C74.4364 35.2459 74.1971 36.5144 75.3451 37.0907C75.3451 37.0907 75.3639 36.5521 76.3937 36.7379C76.7611 36.8011 77.1349 36.8192 77.5067 36.7918C78.008 36.7574 78.4845 36.5608 78.8645 36.2316C78.8645 36.2316 81.7386 35.0412 82.8571 30.3335C82.8571 30.3335 83.6852 29.3074 83.6636 29.0434L81.9322 29.7814C81.9322 29.7814 82.521 31.0283 82.0585 32.0652C82.0585 32.0652 82.0021 29.8272 81.6687 29.8783C81.6015 29.8783 80.7734 30.3119 80.7734 30.3119C80.7734 30.3119 81.787 32.4853 81.0207 34.0635C81.0207 34.0635 81.3111 31.3865 80.4561 30.4681L79.2409 31.1791C79.2409 31.1791 80.4266 33.4226 79.6227 35.2539C79.6227 35.2539 79.8297 32.4449 78.9855 31.3515L77.8832 32.2133C77.8832 32.2133 78.9989 34.4244 78.3187 35.9434C78.3187 35.9434 78.23 32.6739 77.6466 32.4261C77.6466 32.4261 76.6814 33.2771 76.5362 33.6273C76.5362 33.6273 77.2997 35.2432 76.8238 36.0808C76.8238 36.0808 76.5362 33.902 76.2861 33.8912C76.2861 33.8912 75.3263 35.3347 75.2268 36.3151C75.2733 35.4011 75.5579 34.5153 76.0522 33.7458C75.499 33.8506 74.9887 34.1156 74.5842 34.5079C74.5842 34.5079 74.7321 33.4872 76.2915 33.3983C76.2915 33.3983 77.0846 32.3022 77.297 32.2376C77.297 32.2376 75.7457 32.1056 74.8074 32.523C74.8074 32.523 75.6355 31.5616 77.5793 31.9844L78.6548 31.0956C78.6548 31.0956 76.6168 30.8263 75.7511 31.1253C75.7511 31.1253 76.7486 30.2742 78.9478 30.8937L80.1335 30.1853C80.1335 30.1853 78.394 29.811 77.3589 29.9457C77.3589 29.9457 78.4505 29.3558 80.4803 29.9941L81.3246 29.6144C81.3246 29.6144 80.0529 29.3639 79.6791 29.3235C79.3054 29.2831 79.2866 29.1808 79.2866 29.1808C80.0938 29.048 80.9218 29.1412 81.6795 29.4501C81.6795 29.4501 83.4943 28.7957 83.4593 28.6825Z" fill="#6C63FF"/>
<path opacity="0.1" d="M227.191 58.1946C227.191 58.1946 216.975 57.5779 218.169 64.7579C218.169 64.7579 217.929 66.0264 219.077 66.6028C219.077 66.6028 219.096 66.0641 220.126 66.25C220.493 66.3117 220.867 66.3298 221.239 66.3038C221.736 66.2672 222.207 66.0707 222.583 65.7436C222.583 65.7436 225.46 64.5532 226.576 59.8455C226.576 59.8455 227.404 58.8194 227.382 58.5555L225.656 59.2934C225.656 59.2934 226.245 60.5404 225.783 61.5773C225.783 61.5773 225.726 59.3392 225.395 59.3904C225.328 59.3904 224.498 59.824 224.498 59.824C224.498 59.824 225.511 61.9974 224.748 63.5756C224.748 63.5756 225.038 60.8986 224.18 59.9802L222.965 60.6912C222.965 60.6912 224.151 62.9346 223.347 64.766C223.347 64.766 223.554 61.957 222.71 60.8636L221.61 61.7254C221.61 61.7254 222.723 63.9365 222.043 65.4555C222.043 65.4555 221.954 62.1859 221.371 61.9381C221.371 61.9381 220.408 62.7892 220.26 63.1393C220.26 63.1393 221.024 64.7552 220.551 65.5928C220.551 65.5928 220.26 63.414 220.013 63.4032C220.013 63.4032 219.053 64.8468 218.954 65.8271C219 64.9128 219.286 64.0268 219.782 63.2578C219.228 63.3629 218.717 63.6278 218.311 64.02C218.311 64.02 218.462 62.9993 220.018 62.9104C220.018 62.9104 220.811 61.8143 221.024 61.7469C221.024 61.7469 219.475 61.6177 218.534 62.0351C218.534 62.0351 219.362 61.0736 221.306 61.4965L222.382 60.6077C222.382 60.6077 220.341 60.3384 219.478 60.6373C219.478 60.6373 220.473 59.7863 222.675 60.4057L223.858 59.6974C223.858 59.6974 222.118 59.3231 221.083 59.4577C221.083 59.4577 222.175 58.8679 224.204 59.5062L225.051 59.1265C225.051 59.1265 223.777 58.876 223.403 58.8356C223.03 58.7952 223.011 58.6928 223.011 58.6928C223.818 58.5584 224.646 58.6516 225.404 58.9622C225.404 58.9622 227.224 58.3077 227.191 58.1946Z" fill="#6C63FF"/>
<path opacity="0.1" d="M100.666 73.0395C100.666 73.0395 96.214 63.7938 90.5465 68.3507C90.5465 68.3507 89.3232 68.76 89.3823 70.0447C89.3823 70.0447 89.8528 69.7996 90.1889 70.7907C90.3144 71.141 90.4805 71.4755 90.6836 71.7872C90.9587 72.2097 91.3635 72.5311 91.837 72.7029C91.837 72.7029 94.2756 74.6366 98.9241 73.3169C98.9241 73.3169 100.223 73.5404 100.435 73.3842L98.951 72.2342C98.951 72.2342 98.1445 73.3573 97.0206 73.457C97.0206 73.457 98.9456 72.3177 98.7386 72.0538C98.6956 71.9999 97.932 71.4801 97.932 71.4801C97.932 71.4801 96.5313 73.4273 94.7837 73.527C94.7837 73.527 97.2572 72.4766 97.639 71.2782L96.4291 70.5618C96.4291 70.5618 95.0499 72.6948 93.063 72.8833C93.063 72.8833 95.6118 71.6956 96.1522 70.4244L94.8671 69.8858C94.8671 69.8858 93.4824 71.938 91.8263 72.0861C91.8263 72.0861 94.6331 70.4136 94.5632 69.7807C94.5632 69.7807 93.3507 69.3552 92.9743 69.3956C92.9743 69.3956 91.9472 70.8472 90.9794 70.8472C90.9794 70.8472 92.735 69.5303 92.6275 69.3175C92.6275 69.3175 90.9014 69.1828 89.9926 69.5868C90.8115 69.1791 91.7227 68.9934 92.6355 69.0482C92.2734 68.6156 91.7931 68.2983 91.2536 68.1352C91.2536 68.1352 92.2161 67.7689 93.0523 69.0859C93.0523 69.0859 94.3965 69.2448 94.5552 69.3983C94.5552 69.3983 93.9126 67.9817 93.0926 67.3649C93.0926 67.3649 94.3347 67.6154 94.902 69.5195L96.206 70.0366C96.206 70.0366 95.4559 68.119 94.7649 67.5131C94.7649 67.5131 95.9909 67.9682 96.5259 70.2063L97.7197 70.8957C97.7197 70.8957 97.2008 69.1909 96.577 68.3533C96.577 68.3533 97.6229 69.0213 98.0557 71.1058L98.8005 71.6606C98.8005 71.6606 98.3972 70.4244 98.2627 70.0797C98.1283 69.735 98.1955 69.6649 98.1955 69.6649C98.707 70.3044 99.0309 71.0736 99.1312 71.8868C99.1312 71.8868 100.57 73.1203 100.666 73.0395Z" fill="#6C63FF"/>
<path opacity="0.1" d="M203.849 45.1326C203.849 45.1326 199.4 35.8868 193.729 40.4437C193.729 40.4437 192.509 40.8531 192.565 42.1378C192.565 42.1378 193.038 41.8954 193.372 42.8838C193.497 43.2356 193.664 43.571 193.869 43.883C194.143 44.3047 194.547 44.6253 195.02 44.7959C195.02 44.7959 197.461 46.7297 202.107 45.4127C202.107 45.4127 203.406 45.6335 203.621 45.4773L202.145 44.3246C202.145 44.3246 201.338 45.4504 200.217 45.55C200.217 45.55 202.139 44.4081 201.932 44.1442C201.889 44.0903 201.126 43.5705 201.126 43.5705C201.126 43.5705 199.728 45.5177 197.977 45.6174C197.977 45.6174 200.453 44.567 200.835 43.3712L199.607 42.6602C199.607 42.6602 198.23 44.7906 196.24 44.9818C196.24 44.9818 198.789 43.7914 199.332 42.5202L198.044 41.9816C198.044 41.9816 196.66 44.0365 195.006 44.1819C195.006 44.1819 197.811 42.5094 197.741 41.8792C197.741 41.8792 196.531 41.451 196.154 41.4941C196.154 41.4941 195.127 42.943 194.157 42.943C194.157 42.943 195.915 41.6261 195.808 41.4133C195.808 41.4133 194.081 41.2786 193.17 41.6826C193.989 41.2748 194.9 41.0891 195.813 41.144C195.452 40.7111 194.973 40.3937 194.434 40.231C194.434 40.231 195.396 39.8647 196.232 41.1817C196.232 41.1817 197.577 41.3433 197.735 41.4968C197.735 41.4968 197.093 40.0775 196.27 39.4607C196.27 39.4607 197.512 39.7139 198.079 41.6287L199.386 42.1458C199.386 42.1458 198.636 40.2256 197.945 39.6196C197.945 39.6196 199.171 40.0748 199.703 42.3128L200.9 43.0023C200.9 43.0023 200.378 41.3002 199.754 40.4599C199.754 40.4599 200.803 41.1278 201.233 43.2123L201.978 43.7671C201.978 43.7671 201.577 42.531 201.44 42.1862C201.303 41.8415 201.373 41.7742 201.373 41.7742C201.883 42.4142 202.206 43.1833 202.306 43.9961C202.306 43.9961 203.766 45.2188 203.849 45.1326Z" fill="#6C63FF"/>
<path opacity="0.1" d="M218.069 90.8658C218.069 90.8658 213.619 81.6173 207.941 86.1742C207.941 86.1742 206.72 86.5836 206.777 87.8682C206.777 87.8682 207.25 87.6259 207.584 88.6143C207.708 88.9659 207.874 89.3014 208.078 89.6134C208.352 90.0352 208.756 90.3557 209.229 90.5264C209.229 90.5264 211.67 92.4628 216.319 91.1432C216.319 91.1432 217.615 91.3667 217.83 91.2078L216.346 90.0578C216.346 90.0578 215.539 91.1836 214.415 91.2832C214.415 91.2832 216.338 90.1413 216.131 89.8774C216.088 89.8235 215.324 89.3037 215.324 89.3037C215.324 89.3037 213.926 91.2509 212.176 91.3532C212.176 91.3532 214.652 90.3002 215.034 89.1044L213.821 88.388C213.821 88.388 212.445 90.5211 210.455 90.7096C210.455 90.7096 213.004 89.5192 213.547 88.248L212.259 87.7093C212.259 87.7093 210.874 89.7616 209.221 89.9097C209.221 89.9097 212.028 88.2372 211.958 87.6043C211.958 87.6043 210.745 87.1761 210.369 87.2192C210.369 87.2192 209.342 88.6681 208.371 88.6681C208.371 88.6681 210.13 87.3512 210.022 87.1384C210.022 87.1384 208.296 87.0037 207.385 87.4077C208.204 87.0001 209.116 86.8145 210.03 86.8691C209.669 86.4356 209.188 86.1181 208.648 85.9561C208.648 85.9561 209.611 85.5871 210.447 86.9068C210.447 86.9068 211.791 87.0657 211.95 87.2192C211.95 87.2192 211.307 85.8026 210.487 85.1831C210.487 85.1831 211.729 85.4363 212.297 87.3512L213.601 87.8682C213.601 87.8682 212.851 85.948 212.16 85.3447C212.16 85.3447 213.386 85.7972 213.918 88.0379L215.114 88.7247C215.114 88.7247 214.593 87.0226 213.969 86.1823C213.969 86.1823 215.018 86.8502 215.45 88.9374L216.195 89.4761C216.195 89.4761 215.792 88.2399 215.657 87.8952C215.523 87.5505 215.59 87.4831 215.59 87.4831C216.101 88.1224 216.425 88.8919 216.523 89.705C216.523 89.705 217.986 90.9466 218.069 90.8658Z" fill="#6C63FF"/>
<path opacity="0.1" d="M54.2962 211.19C57.7099 211.19 60.4773 210.88 60.4773 210.498C60.4773 210.115 57.7099 209.805 54.2962 209.805C50.8825 209.805 48.1151 210.115 48.1151 210.498C48.1151 210.88 50.8825 211.19 54.2962 211.19Z" fill="#6C63FF"/>
<path opacity="0.1" d="M13.7763 199.426C17.19 199.426 19.9574 199.116 19.9574 198.734C19.9574 198.351 17.19 198.042 13.7763 198.042C10.3626 198.042 7.59521 198.351 7.59521 198.734C7.59521 199.116 10.3626 199.426 13.7763 199.426Z" fill="#6C63FF"/>
<path opacity="0.1" d="M85.1827 219.003C88.5964 219.003 91.3637 218.693 91.3637 218.311C91.3637 217.928 88.5964 217.618 85.1827 217.618C81.7689 217.618 79.0016 217.928 79.0016 218.311C79.0016 218.693 81.7689 219.003 85.1827 219.003Z" fill="#6C63FF"/>
<path opacity="0.1" d="M243.46 201.984C246.874 201.984 249.641 201.675 249.641 201.292C249.641 200.91 246.874 200.6 243.46 200.6C240.046 200.6 237.279 200.91 237.279 201.292C237.279 201.675 240.046 201.984 243.46 201.984Z" fill="#6C63FF"/>
<path opacity="0.1" d="M192.025 198.626C195.438 198.626 198.206 198.316 198.206 197.934C198.206 197.552 195.438 197.242 192.025 197.242C188.611 197.242 185.844 197.552 185.844 197.934C185.844 198.316 188.611 198.626 192.025 198.626Z" fill="#6C63FF"/>
<path opacity="0.1" d="M158.751 215.006C162.788 215.006 166.061 214.443 166.061 213.748C166.061 213.054 162.788 212.491 158.751 212.491C154.713 212.491 151.44 213.054 151.44 213.748C151.44 214.443 154.713 215.006 158.751 215.006Z" fill="#6C63FF"/>
<path d="M162.012 201.106C162.012 201.106 151.833 206.374 157.092 212.579C157.092 212.579 157.586 213.926 159.017 213.832C159.017 213.832 158.732 213.309 159.823 212.892C160.212 212.741 160.581 212.545 160.923 212.307C161.385 211.987 161.731 211.525 161.907 210.99C161.907 210.99 163.988 208.2 162.375 203.037C162.375 203.037 162.585 201.578 162.402 201.341L161.165 203.04C161.165 203.04 162.442 203.899 162.59 205.162C162.59 205.162 161.246 203.043 160.977 203.277C160.918 203.326 160.364 204.206 160.364 204.206C160.364 204.206 162.579 205.712 162.743 207.667C162.743 207.667 161.496 204.928 160.149 204.538L159.377 205.916C159.377 205.916 161.797 207.392 162.066 209.611C162.066 209.611 160.659 206.797 159.224 206.229L158.656 207.686C158.656 207.686 160.99 209.173 161.205 211.02C161.205 211.02 159.253 207.931 158.552 208.028C158.552 208.028 158.111 209.396 158.17 209.819C158.17 209.819 159.818 210.923 159.848 212.008C159.848 212.008 158.326 210.083 158.092 210.209C158.092 210.209 157.995 212.146 158.463 213.153C158.463 213.153 157.656 211.715 157.788 210.209C157.317 210.627 156.977 211.174 156.812 211.782C156.812 211.782 156.374 210.718 157.818 209.738C157.818 209.738 157.955 208.233 158.121 208.047C158.121 208.047 156.559 208.812 155.895 209.749C155.895 209.749 156.14 208.351 158.259 207.656L158.796 206.18C158.796 206.18 156.678 207.08 156.024 207.872C156.024 207.872 156.495 206.485 158.963 205.819L159.694 204.473C159.694 204.473 157.812 205.108 156.893 205.819C156.893 205.819 157.605 204.626 159.92 204.077L160.514 203.229C160.514 203.229 159.148 203.716 158.767 203.891C158.385 204.066 158.31 203.98 158.31 203.98C159.008 203.389 159.855 203.003 160.759 202.865C160.759 202.865 162.106 201.198 162.012 201.106Z" fill="#6C63FF"/>
<path d="M192.224 101.612C190.465 96.8258 180.786 96.376 176.587 97.596C173.602 98.4659 167.311 99.4463 163.95 99.9391L163.733 99.7318C164.168 99.6025 164.179 99.2847 164.125 98.8134C164.094 98.1922 164.103 97.5697 164.152 96.9497C166.212 97.5907 168.045 96.0744 168.045 96.0744C170.465 94.9971 169.814 90.3864 170.277 89.126C170.624 88.1833 170.997 82.63 171.164 79.8614H171.199L171.218 78.9322C171.242 78.5309 171.253 78.2966 171.253 78.2966C171.253 78.2966 171.489 71.5259 171.952 70.1551C172.382 68.8947 172.731 62.5441 172.785 61.5368C172.785 61.4507 172.785 61.4049 172.785 61.4049L172.75 60.8178C172.774 60.3895 172.785 59.9128 172.782 59.4119C172.782 57.1092 172.543 54.2087 172.514 53.74C172.514 53.6727 172.514 53.5919 172.514 53.495C172.532 52.5119 172.409 47.5888 168.228 45.7278C166.687 45.0383 164.835 44.2169 163.042 43.417C162.579 39.4176 161.523 35.4398 161.614 31.4108C161.614 30.8048 161.668 30.1988 161.727 29.5955C161.727 29.7706 161.708 29.9483 161.705 30.1342C161.705 30.5247 161.705 30.9179 161.705 31.3084C161.864 26.2694 163.765 21.2035 163.587 16.2723C163.571 16.7544 163.536 17.2392 163.491 17.7239C163.583 16.056 163.409 14.3839 162.974 12.7711C162.813 12.2029 162.595 11.6158 162.13 11.236C161.691 10.9302 161.186 10.7302 160.657 10.6516C159.385 10.3254 158.092 10.0843 156.788 9.92981C156.59 9.32216 156.296 8.75024 155.917 8.23579C153.191 4.48686 149.152 0.964163 144.377 0.156204C141.982 -0.247775 139.226 0.0888741 137.597 1.80444C137.427 1.95515 137.267 2.1171 137.118 2.28922C136.242 3.33687 135.865 4.71309 134.967 5.75805C134.908 5.82808 134.841 5.89271 134.777 5.96004C133.018 7.53556 130.278 7.86413 128.324 9.27806C127.979 9.53188 127.657 9.81384 127.359 10.121C126.571 10.9028 125.865 11.7628 125.251 12.6876C124.372 13.9265 123.468 15.2166 123.189 16.6951C122.627 19.6576 124.641 22.4666 125.014 25.448C125.848 32.1191 118.478 38.0387 119.874 44.6209C120.246 46.2379 121.068 47.7161 122.245 48.8842C119.371 51.4912 116.924 54.0201 116.924 54.0201V54.171H116.47L116.516 54.7096H116.47L116.72 57.6317L116.47 61.887C116.47 61.887 116.47 61.9327 116.47 62.0189V62.0405V62.1563C116.47 62.1563 116.47 62.2021 116.47 62.2883H116.486C116.569 63.8476 116.9 69.4548 117.293 70.6372C117.755 72.008 117.989 78.7787 117.989 78.7787C117.989 78.7787 118.5 88.3476 118.968 89.6134C119.435 90.8792 118.771 95.4765 121.199 96.5619C121.909 97.1076 122.75 97.4568 123.638 97.5745C123.514 98.5818 123.592 99.3116 123.993 99.5405C124.164 99.6415 124.358 99.6971 124.557 99.7021C124.392 99.9468 124.246 100.203 124.119 100.47C123.155 100.369 122.208 100.145 121.301 99.8045C118.693 98.7272 110.039 96.3033 107.525 98.0081C105.011 99.7129 98.9618 101.259 101.755 108.121C104.549 114.983 105.85 115.156 105.85 115.156C106.71 115.781 107.464 116.54 108.084 117.405C108.923 118.668 116.739 121.557 118.693 121.557C119.524 121.545 120.355 121.586 121.18 121.681C121.18 121.681 119.059 123.545 119.341 124.628C119.624 125.71 118.696 134.377 118.696 134.377C118.696 134.377 120.847 136.548 121.766 133.701L121.799 133.744C121.971 133.978 122.901 135.037 124.651 133.701C125.368 133.157 126.128 132.674 126.926 132.257L135.4 131.056C136.284 131.001 137.17 130.995 138.054 131.037C139.398 131.148 140.718 130.351 141.549 129.734C143.305 130.402 145.278 131.132 146.216 131.398C148.12 131.937 156.869 134.288 158.915 133.553C159.34 133.384 159.718 133.114 160.017 132.767L161.969 132.828L161.055 133.012C161.055 133.012 162.835 133.041 165.254 133.074L165.152 133.133L168.188 133.106C172.629 133.146 177.619 133.16 178.275 133.012C179.302 132.783 184.639 132.944 186.212 133.012H186.65C186.65 133.012 192.514 131.84 190.094 125.88C188.234 121.302 182.515 119.971 179.977 119.605C180.692 119.462 181.308 119.352 181.717 119.287C183.488 119.018 186.93 117.402 187.209 116.85C187.489 116.298 190.374 114.695 191.119 113.782C191.863 112.869 193.99 106.397 192.224 101.612ZM143.654 115.005L143.367 115.099L143.173 115.164L142.802 115.53C142.506 115.331 142.189 115.121 141.858 114.905C142.442 114.94 143.041 114.975 143.654 115.005Z" fill="url(#paint0_linear)"/>
<path d="M160.797 86.6078C160.797 86.6078 164.91 97.3806 167.249 96.3033C169.588 95.2261 168.954 90.6476 169.4 89.3926C169.846 88.1376 170.341 78.6198 170.341 78.6198C170.341 78.6198 170.567 71.8868 171.013 70.5241C171.427 69.2717 171.763 62.9562 171.82 61.9624C171.82 61.8762 171.82 61.8304 171.82 61.8304L171.376 54.0201L168.865 53.3926L163.042 55.5472L162.235 60.1606L161.92 61.9624L161.786 62.7299L160.797 86.6078Z" fill="#BE6F72"/>
<path opacity="0.1" d="M162.152 84.8034C162.152 84.8034 166.077 88.0217 167.26 88.3045C168.443 88.5873 169.169 91.0974 169.169 91.0974" fill="black"/>
<path d="M128.628 87.0791C128.628 87.0791 124.514 97.8519 122.175 96.7746C119.836 95.6974 120.47 91.1189 120.024 89.8639C119.578 88.6089 119.083 79.0911 119.083 79.0911C119.083 79.0911 118.857 72.3581 118.411 70.9954C117.997 69.743 117.661 63.4275 117.604 62.4337C117.604 62.3475 117.604 62.3017 117.604 62.3017L118.051 54.4915L120.562 53.8639L126.385 56.0185L127.192 60.6319L127.506 62.4337L127.641 63.2013L128.628 87.0791Z" fill="#BE6F72"/>
<path d="M155.414 29.4286H146.233V43.7645H155.414V29.4286Z" fill="#3E373A"/>
<path opacity="0.1" d="M155.414 29.4286H146.233V43.7645H155.414V29.4286Z" fill="black"/>
<path d="M127.014 97.8088C127.014 97.8088 123.877 101.264 125.041 101.892C126.205 102.519 133.736 114.28 133.736 114.28C133.736 114.28 158.471 117.332 163.136 112.753C167.8 108.175 167.706 99.9957 167.706 99.9957C167.706 99.9957 163.958 100.804 163.55 100.365C163.141 99.9257 160.896 97.8088 160.896 97.8088C160.896 97.8088 129.165 95.8805 127.014 97.8088Z" fill="#4B4B5B"/>
<path opacity="0.02" d="M127.014 97.8088C127.014 97.8088 123.877 101.264 125.041 101.892C126.205 102.519 133.736 114.28 133.736 114.28C133.736 114.28 158.471 117.332 163.136 112.753C167.8 108.175 167.706 99.9957 167.706 99.9957C167.706 99.9957 163.958 100.804 163.55 100.365C163.141 99.9257 160.896 97.8088 160.896 97.8088C160.896 97.8088 129.165 95.8805 127.014 97.8088Z" fill="black"/>
<path d="M171.543 54.1333L163.477 60.5969L161.039 60.7747L160.143 60.8393L145.106 61.9435L129.512 60.8016L127.192 60.6319L124.235 60.4165L118.051 54.4915C118.051 54.4915 122.428 49.7945 126.262 46.6246C127.773 45.3723 129.2 44.3596 130.241 43.9611L130.418 43.8991C131.073 43.6435 131.657 43.2354 132.123 42.7087C135.15 39.5819 137.949 31.8659 137.949 31.8659C137.949 31.8659 151.303 24.9552 149.69 34.0205C148.077 43.0858 155.694 40.845 155.694 40.845L158.205 41.9923L159.197 42.4475L161.727 43.6082L167.435 46.2314C171.914 48.2971 171.543 54.1333 171.543 54.1333Z" fill="#BE6F72"/>
<path opacity="0.1" d="M144.48 39.248C151.112 39.248 156.49 33.8617 156.49 27.2174C156.49 20.5732 151.112 15.1869 144.48 15.1869C137.847 15.1869 132.47 20.5732 132.47 27.2174C132.47 33.8617 137.847 39.248 144.48 39.248Z" fill="black"/>
<path opacity="0.1" d="M171.562 62.703H117.604C117.604 62.6168 117.604 62.571 117.604 62.571L118.051 54.7608C118.051 54.7608 122.428 50.0638 126.262 46.8939L160.138 45.5473L161.713 43.883L167.421 46.5061C171.903 48.5691 171.543 54.4053 171.543 54.4053C171.543 54.4053 172.156 61.1679 171.562 62.703Z" fill="black"/>
<path d="M171.562 62.4337H117.604C117.604 62.3475 117.604 62.3017 117.604 62.3017L118.051 54.4915C118.051 54.4915 122.428 49.7945 126.262 46.6246L160.138 45.278L161.713 43.6136L167.421 46.2368C171.903 48.2998 171.543 54.136 171.543 54.136C171.543 54.136 172.156 60.8986 171.562 62.4337Z" fill="#E7C7CA"/>
<path opacity="0.1" d="M135.83 40.5326C135.83 40.5326 144.342 51.397 155.68 40.3091C167.018 29.2212 156.936 65.0407 156.936 65.0407L132.47 67.9494L135.83 40.5326Z" fill="black"/>
<path d="M135.83 41.0713C135.83 41.0713 144.342 51.9356 155.68 40.8477C167.018 29.7598 156.936 65.5793 156.936 65.5793L132.47 68.488L135.83 41.0713Z" fill="#E7C7CA"/>
<path opacity="0.1" d="M159.183 42.978L160.084 56.7376L161.049 61.316L161.786 64.8172C161.786 64.8172 163.668 91.7492 163.13 93.0958C162.593 94.4424 163.399 95.5196 163.512 96.236C163.625 96.9524 163.399 98.7515 163.488 99.5594C163.577 100.367 163.488 100.726 161.428 100.437C159.369 100.149 156.498 99.6483 156.498 99.6483C156.498 99.6483 149.238 100.187 146.73 99.2901C144.221 98.3933 139.471 98.3906 139.471 98.3906C139.471 98.3906 132.3 98.571 129.972 98.3017C127.644 98.0324 126.385 101.175 124.864 100.276C123.342 99.3763 126.654 90.6719 127.73 88.1564C128.805 85.641 126.297 79.2689 126.297 79.2689L129.523 61.3403L130.241 57.2762V44.4997L130.418 44.4377C131.073 44.1821 131.657 43.774 132.123 43.2474L132.929 56.1047L158.202 57.0042V42.5337" fill="black"/>
<path d="M159.183 42.4394L160.084 56.1989L161.049 60.7774L161.786 64.2785C161.786 64.2785 163.668 91.2105 163.13 92.5571C162.593 93.9037 163.399 94.981 163.512 95.6974C163.625 96.4137 163.399 98.2128 163.488 99.0208C163.577 99.8287 163.488 100.187 161.428 99.8987C159.369 99.6106 156.498 99.1096 156.498 99.1096C156.498 99.1096 149.238 99.6483 146.73 98.7514C144.221 97.8546 139.471 97.8519 139.471 97.8519C139.471 97.8519 132.3 98.0324 129.972 97.763C127.644 97.4937 126.385 100.637 124.864 99.7372C123.342 98.8376 126.654 90.1332 127.73 87.6178C128.805 85.1023 126.297 78.7302 126.297 78.7302L129.523 60.8016L130.241 56.7376V43.9611L130.418 43.8991C131.073 43.6435 131.657 43.2354 132.123 42.7087L132.929 55.566L158.202 56.4656V41.995" fill="#E7C7CA"/>
<path opacity="0.1" d="M162.09 13.7245C161.937 13.1617 161.724 12.5772 161.283 12.2002C160.862 11.8973 160.376 11.698 159.864 11.6185C158.637 11.2954 157.391 11.0561 156.132 10.9021C155.952 10.304 155.68 9.7379 155.325 9.2242C152.691 5.49681 148.792 1.98219 144.205 1.1877C141.804 0.770256 139.022 1.14461 137.484 3.04062C136.64 4.08289 136.277 5.4645 135.424 6.48791C133.782 8.47549 130.816 8.72057 128.746 10.2584C127.641 11.0663 126.84 12.2379 126.057 13.3744C125.21 14.6052 124.339 15.8872 124.07 17.3577C123.533 20.2959 125.471 23.0969 125.829 26.0621C126.635 32.6954 119.538 38.58 120.879 45.1245C121.662 48.9408 125.181 51.6286 128.821 52.9913C130.104 53.4734 131.569 53.9528 132.169 55.1863C132.437 55.7249 132.483 56.3471 132.736 56.8911C133.585 58.7063 136.379 58.7763 137.879 57.454C139.379 56.1316 139.853 53.9932 140.03 51.9975C140.751 43.2824 137.266 34.6722 137.672 25.9355C137.793 23.2935 138.535 20.2959 140.898 19.1001C144.079 17.4842 147.905 20.1774 151.405 19.663C153.062 23.7005 153.414 28.1565 152.411 32.4045C151.854 34.7288 150.892 36.983 150.822 39.3799C150.717 43.0292 152.683 46.3634 154.382 49.5898C154.746 50.1932 154.99 50.8619 155.1 51.5585C155.126 52.2654 154.995 52.9694 154.715 53.6188C153.755 56.207 152.099 58.6093 151.911 61.3645C151.856 61.6861 151.928 62.0166 152.113 62.2856C152.302 62.4651 152.546 62.5752 152.806 62.598C155.71 63.0962 158.221 60.5188 159.638 57.9307C161.218 55.0721 162.138 51.8953 162.332 48.6337C162.625 43.1504 160.662 37.7559 160.783 32.2672C160.923 26.027 163.738 19.7438 162.09 13.7245Z" fill="black"/>
<path d="M162.359 13.4552C162.206 12.8923 161.993 12.3079 161.552 11.9309C161.131 11.628 160.645 11.4287 160.133 11.3491C158.906 11.0261 157.66 10.7868 156.401 10.6327C156.221 10.0347 155.949 9.46858 155.594 8.95488C152.959 5.2275 149.061 1.71288 144.474 0.918382C142.073 0.500936 139.291 0.87529 137.753 2.7713C136.909 3.81357 136.546 5.19518 135.693 6.21859C134.051 8.20617 131.085 8.45126 129.015 9.98907C127.91 10.797 127.109 11.9686 126.326 13.1051C125.479 14.3359 124.608 15.6179 124.339 17.0883C123.802 20.0266 125.74 22.8275 126.098 25.7928C126.904 32.4261 119.806 38.3107 121.148 44.8552C121.93 48.6715 125.45 51.3593 129.09 52.722C130.373 53.2041 131.838 53.6835 132.437 54.917C132.706 55.4556 132.752 56.0778 133.005 56.6218C133.854 58.437 136.648 58.507 138.148 57.1847C139.648 55.8623 140.121 53.7239 140.299 51.7282C141.019 43.0131 137.535 34.4029 137.941 25.6662C138.062 23.0241 138.804 20.0266 141.167 18.8308C144.348 17.2149 148.174 19.9081 151.674 19.3937C153.331 23.4312 153.682 27.8872 152.68 32.1352C152.123 34.4595 151.161 36.7137 151.091 39.1106C150.986 42.7599 152.951 46.0941 154.651 49.3205C155.015 49.9239 155.259 50.5926 155.368 51.2893C155.395 51.9961 155.264 52.7001 154.984 53.3495C154.024 55.9377 152.368 58.34 152.18 61.0952C152.125 61.4168 152.197 61.7473 152.381 62.0163C152.571 62.1958 152.815 62.3059 153.075 62.3287C155.979 62.8269 158.49 60.2495 159.907 57.6614C161.487 54.8028 162.407 51.626 162.601 48.3644C162.894 42.8811 160.931 37.4866 161.052 31.9979C161.192 25.7577 164.007 19.4745 162.359 13.4552Z" fill="#3E373A"/>
<path d="M156.42 132.702L167.085 133.044L165.555 125.121L157.385 125.899L156.42 132.702Z" fill="#C3C7D9"/>
<path d="M189.468 113.922C188.75 114.819 185.973 116.435 185.704 116.974C185.435 117.512 182.12 119.128 180.415 119.397C178.711 119.667 173.336 120.836 172.349 121.463C171.642 121.916 165.967 123.348 162.238 124.143C161.228 124.382 160.205 124.567 159.175 124.695C157.562 124.784 139.909 118.77 139.909 118.77L143.313 115.269L143.501 115.204C144.463 114.878 148.91 113.373 151.378 112.656C154.158 111.848 157.385 108.528 157.385 108.528C157.385 108.528 162.133 106.912 162.762 106.731C163.391 106.551 161.149 100.448 161.149 100.448C161.149 100.448 171.454 99.0154 175.487 97.8008C179.52 96.5861 188.841 97.0359 190.543 101.795C192.245 106.554 190.196 113.025 189.468 113.922Z" fill="#4B4B5B"/>
<path d="M142.506 129.093C142.506 129.093 140.447 131.248 138.384 131.07C136.322 130.892 129.112 131.608 129.112 131.608C127.805 132.131 126.581 132.841 125.479 133.717C123.794 135.048 122.898 133.987 122.732 133.76L122.702 133.717C121.804 136.548 119.745 134.391 119.745 134.391C119.745 134.391 120.64 125.772 120.366 124.695C120.091 123.618 122.137 121.768 122.137 121.768L124.557 121.151L130.687 119.578L139.471 122.629L142.506 129.093Z" fill="#E7C7CA"/>
<path opacity="0.1" d="M124.546 121.151L122.732 133.76L122.702 133.717C121.804 136.548 119.745 134.391 119.745 134.391C119.745 134.391 120.64 125.772 120.366 124.695C120.091 123.618 122.137 121.768 122.137 121.768L124.546 121.151Z" fill="black"/>
<path opacity="0.1" d="M137.231 85.2828C137.231 85.2828 141.979 86.8987 146.103 85.2828H137.231Z" fill="black"/>
<path opacity="0.1" d="M153.441 88.3369C153.441 88.3369 155.411 89.3226 156.936 88.3369H153.441Z" fill="black"/>
<path opacity="0.1" d="M153.441 90.6746C153.441 90.6746 156.756 91.1189 157.385 90.2221L153.441 90.6746Z" fill="black"/>
<path opacity="0.1" d="M152.365 95.6974C152.365 95.6974 158.592 94.8894 160.138 93.8121L152.365 95.6974Z" fill="black"/>
<path opacity="0.1" d="M133.365 93.8121C133.365 93.8121 136.86 95.7862 139.46 95.6974L133.365 93.8121Z" fill="black"/>
<path opacity="0.1" d="M162.235 124.143C161.225 124.382 160.203 124.567 159.173 124.695C157.56 124.784 139.906 118.77 139.906 118.77L143.31 115.269L143.498 115.204C144.036 115.584 144.477 115.91 144.791 116.158C146.273 117.326 147.703 115.799 148.241 115.799C148.779 115.799 153.438 119.659 153.438 119.659C153.438 119.659 157.74 120.647 158.458 121.544C159.175 122.441 161.684 122.263 162.13 122.891C162.265 123.084 162.281 123.561 162.235 124.143Z" fill="black"/>
<path d="M129.112 100.814C129.112 100.814 124.761 101.065 122.253 100.006C119.745 98.9481 111.41 96.5053 108.99 98.2209C106.57 99.9365 100.744 101.453 103.433 108.277C106.121 115.102 107.377 115.28 107.377 115.28C108.209 115.905 108.935 116.659 109.528 117.515C110.334 118.773 117.863 121.644 119.745 121.644C121.627 121.644 124.942 121.644 129.601 124.875C134.26 128.107 138.473 128.468 138.473 128.468C138.473 128.468 144.388 130.892 146.23 131.431C148.072 131.969 156.487 134.302 158.46 133.585C160.434 132.869 161.687 128.377 161.687 128.377C161.687 128.377 162.582 124.337 162.133 123.709C161.684 123.082 159.175 123.26 158.46 122.363C157.745 121.466 153.441 120.477 153.441 120.477C153.441 120.477 148.792 116.615 148.254 116.615C147.717 116.615 146.286 118.14 144.805 116.974C141.854 114.784 138.754 112.804 135.527 111.049C132.123 109.252 129.112 100.814 129.112 100.814Z" fill="#4B4B5B"/>
<path opacity="0.1" d="M120.366 103.419C121.14 103.26 121.941 103.283 122.705 103.485C123.469 103.688 124.177 104.064 124.772 104.585C126.923 106.381 134.161 109.987 134.161 109.987" fill="black"/>
<path opacity="0.1" d="M174.143 103.306C174.143 103.306 164.553 104.76 162.762 106.734L174.143 103.306Z" fill="black"/>
<path d="M185.166 133.044H184.744C183.228 132.99 178.09 132.828 177.1 133.044C175.936 133.313 160.52 133.044 160.52 133.044L163.534 132.416C163.534 132.416 162.415 128.49 163.125 128.164C163.125 128.164 159.092 125.503 162.133 123.707C165.174 121.91 168.451 122.667 168.451 122.667L176.084 120.076L177.549 119.578C177.549 119.578 186.153 120.028 188.481 125.953C190.809 131.878 185.166 133.044 185.166 133.044Z" fill="#E7C7CA"/>
<path opacity="0.1" d="M185.166 133.044H184.744C187.247 130.976 192.909 124.679 176.084 120.09L177.549 119.591C177.549 119.591 186.153 120.041 188.481 125.966C190.809 131.891 185.166 133.044 185.166 133.044Z" fill="black"/>
<path d="M169.349 126.063C169.609 126.063 169.82 125.852 169.82 125.592C169.82 125.332 169.609 125.121 169.349 125.121C169.089 125.121 168.879 125.332 168.879 125.592C168.879 125.852 169.089 126.063 169.349 126.063Z" fill="#4B4B5B"/>
<path d="M166.615 126.841C166.875 126.841 167.085 126.63 167.085 126.37C167.085 126.11 166.875 125.899 166.615 125.899C166.355 125.899 166.144 126.11 166.144 126.37C166.144 126.63 166.355 126.841 166.615 126.841Z" fill="#4B4B5B"/>
<g opacity="0.1">
<path opacity="0.1" d="M153.293 26.7731C153.397 23.8108 152.871 20.8602 151.75 18.1171C148.254 18.6396 144.426 15.9383 141.242 17.5543C138.887 18.75 138.148 21.7476 138.016 24.3896C137.984 25.0871 137.979 25.7847 137.992 26.4822C137.992 26.2344 137.992 25.984 138.016 25.7362C138.14 23.0942 138.879 20.0966 141.242 18.9009C144.426 17.2849 148.249 19.9781 151.75 19.4637C152.699 21.7872 153.222 24.2634 153.293 26.7731Z" fill="black"/>
<path opacity="0.1" d="M126.208 26.2802C126.254 25.6934 126.242 25.1034 126.173 24.5189C125.888 22.1489 124.595 19.8839 124.361 17.5731C124.06 20.3606 125.831 23.0376 126.173 25.8655C126.208 26.0109 126.208 26.1402 126.208 26.2802Z" fill="black"/>
<path opacity="0.1" d="M140.374 50.449C140.207 52.4473 139.737 54.583 138.223 55.9081C136.71 57.2331 133.921 57.1604 133.08 55.3452C132.811 54.8066 132.771 54.179 132.51 53.6404C131.913 52.4069 130.445 51.9275 129.163 51.4454C125.52 50.08 122.006 47.4057 121.223 43.5786C121.153 43.2319 121.106 42.8811 121.081 42.5283C121.015 43.33 121.063 44.137 121.223 44.9252C122.006 48.7415 125.525 51.4266 129.163 52.792C130.445 53.2741 131.913 53.7535 132.51 54.987C132.779 55.5256 132.825 56.1478 133.08 56.6918C133.927 58.507 136.72 58.577 138.223 57.2547C139.726 55.9323 140.194 53.7939 140.374 51.7956C140.456 50.7438 140.484 49.6884 140.457 48.6337C140.457 49.2451 140.423 49.8484 140.374 50.449Z" fill="black"/>
<path opacity="0.1" d="M161.141 30.7213C161.141 31.1118 161.141 31.4996 161.141 31.8875C161.291 26.8781 163.125 21.8418 162.945 16.9375C162.805 21.4729 161.243 26.1105 161.141 30.7213Z" fill="black"/>
<path opacity="0.1" d="M155.371 50.9849C155.437 50.6654 155.458 50.3381 155.433 50.0127C155.325 49.3157 155.081 48.6468 154.715 48.0439C153.161 45.0814 151.389 42.0489 151.18 38.7605C151.18 38.9005 151.161 39.0298 151.158 39.1806C151.05 42.8272 153.016 46.1641 154.715 49.3905C155.004 49.8903 155.224 50.4265 155.371 50.9849Z" fill="black"/>
<path opacity="0.1" d="M162.687 47.0879C162.486 50.3507 161.559 53.5273 159.974 56.3848C158.554 58.9729 156.046 61.5503 153.14 61.0521C152.879 61.0296 152.634 60.9184 152.446 60.737C152.391 60.6753 152.348 60.6041 152.319 60.5269C152.287 60.737 152.26 60.9497 152.244 61.1652C152.189 61.486 152.261 61.8158 152.446 62.0836C152.634 62.265 152.879 62.3762 153.14 62.3987C156.046 62.8969 158.554 60.3195 159.974 57.7314C161.559 54.8739 162.486 51.6973 162.687 48.4345C162.719 47.8042 162.722 47.1767 162.703 46.5492C162.697 46.7297 162.697 46.9074 162.687 47.0879Z" fill="black"/>
</g>
<path opacity="0.1" d="M163.125 128.164C163.125 128.164 169.93 131.024 174.417 124.695" stroke="black" stroke-miterlimit="10"/>
<path opacity="0.1" d="M164.464 133.162C164.464 133.162 170.021 129.543 177.1 133.044" stroke="black" stroke-miterlimit="10"/>
<path opacity="0.1" d="M127.265 132.341C127.265 132.341 129.598 127.068 135.83 131.089" stroke="black" stroke-miterlimit="10"/>
<path opacity="0.1" d="M119.699 54.3568L124.458 50.0477C124.458 50.0477 142.909 48.8357 143.673 55.119C143.673 55.119 150.214 47.6696 163.972 49.3286L169.793 53.9717L153.704 61.044L138.07 66.4762L126.555 61.3133L119.699 54.3568Z" fill="black"/>
<path d="M119.699 54.6261L124.458 50.317C124.458 50.317 142.909 49.1051 143.673 55.3883C143.673 55.3883 150.214 47.9389 163.972 49.5979L169.793 54.241L153.704 61.3133L138.07 66.7455L126.555 61.5826L119.699 54.6261Z" fill="#D5D6DB"/>
<path opacity="0.1" d="M117.594 55.1648L119.699 80.3919L142.014 81.515L141.046 56.3955L141.027 55.9727L117.594 55.1648Z" fill="black"/>
<path d="M117.594 54.6261L119.699 79.8533L142.014 80.9764L141.046 55.8569L141.027 55.4341L117.594 54.6261Z" fill="#6C63FF"/>
<path opacity="0.1" d="M170.814 54.6261L147.795 58.0842V83.4245L170.29 80.1684L170.814 54.6261Z" fill="black"/>
<path d="M170.814 54.0875L147.795 57.5455V82.8858L170.29 79.6298L170.814 54.0875Z" fill="#6C63FF"/>
<path opacity="0.3" d="M165.386 60.2711L152.951 61.6554L153.223 65.8998L165.378 64.5694L165.386 60.2711Z" fill="white"/>
<path d="M120.909 93.3624L122.175 96.7746C122.175 96.7746 124.057 98.3906 126.117 97.5826C128.176 96.7746 129.972 96.3734 130.867 95.5869C131.763 94.8005 133.018 90.8496 133.018 90.8496C133.018 90.8496 134.274 86.5405 135.527 85.4632C136.78 84.3859 140.097 69.5437 135.527 70.9954C130.956 72.447 127.461 85.913 127.461 85.913C127.461 85.913 126.654 86.8987 125.49 86.9903C124.326 87.0818 121.995 86.8098 121.546 87.7982C121.097 88.7866 119.564 91.3882 120.909 93.3624Z" fill="#BE6F72"/>
<path opacity="0.1" d="M147.795 58.0815C146.616 58.3475 145.392 58.3336 144.219 58.0409C143.047 57.7481 141.96 57.1847 141.044 56.3955L142.014 81.5123C142.014 81.5123 144.299 83.99 147.795 83.4245V58.0815Z" fill="black"/>
<path d="M147.795 57.5428C146.616 57.8089 145.392 57.795 144.219 57.5022C143.047 57.2095 141.96 56.646 141.044 55.8569L142.014 80.9737C142.014 80.9737 144.299 83.4514 147.795 82.8858V57.5428Z" fill="#6C63FF"/>
<path opacity="0.1" d="M147.795 57.5428C146.616 57.8089 145.392 57.795 144.219 57.5022C143.047 57.2095 141.96 56.646 141.044 55.8569L142.014 80.9737C142.014 80.9737 144.299 83.4514 147.795 82.8858V57.5428Z" fill="black"/>
<path opacity="0.1" d="M148.332 54.7123C148.332 54.7123 157.697 51.844 160.138 52.248L148.332 54.7123Z" fill="black"/>
<path opacity="0.1" d="M137.858 53.46C137.858 53.46 128.781 51.3054 127.265 51.9168L137.858 53.46Z" fill="black"/>
<path opacity="0.1" d="M154.237 55.0705C154.237 55.0705 160.498 52.7705 162.762 53.8639L154.237 55.0705Z" fill="black"/>
<path opacity="0.1" d="M151.083 112.767C152.053 112.037 153.086 111.394 154.169 110.847C155.782 110.068 158.74 108.048 158.74 108.048" fill="black"/>
<path opacity="0.1" d="M127.265 85.2828C127.265 85.2828 123.337 88.5011 122.156 88.7839C120.976 89.0667 120.247 91.5768 120.247 91.5768" fill="black"/>
<path d="M168.505 92.883L167.252 96.3034C167.252 96.3034 165.37 97.9193 163.308 97.1113C161.246 96.3034 159.455 95.9021 158.557 95.1157C157.659 94.3292 156.406 90.3783 156.406 90.3783C156.406 90.3783 155.153 86.0692 153.898 84.9919C152.642 83.9146 149.327 69.0724 153.898 70.5241C158.468 71.9757 161.964 85.4417 161.964 85.4417C161.964 85.4417 162.77 86.4274 163.934 86.519C165.098 86.6105 167.429 86.3385 167.878 87.3269C168.327 88.3153 169.849 90.917 168.505 92.883Z" fill="#BE6F72"/>
<path opacity="0.1" d="M166.308 86.5917C166.308 86.5917 168.876 88.2453 168.865 90.2221L166.308 86.5917Z" fill="black"/>
<path d="M144.523 38.6582C151.156 38.6582 156.533 33.2719 156.533 26.6276C156.533 19.9834 151.156 14.5971 144.523 14.5971C137.89 14.5971 132.513 19.9834 132.513 26.6276C132.513 33.2719 137.89 38.6582 144.523 38.6582Z" fill="#BE6F72"/>
<path d="M136.981 23.3985C138.438 23.1696 139.715 22.3212 141.108 21.8337C144.224 20.7376 147.671 21.489 150.825 22.4774C152.035 22.8572 153.263 23.2854 154.532 23.2854C155.801 23.2854 157.148 22.7656 157.796 21.6695C158.393 20.6622 158.277 19.3533 157.775 18.2949C157.272 17.2365 156.43 16.3854 155.581 15.5828C152.785 12.9381 149.316 10.4658 145.48 10.7351C143.936 10.8455 142.46 11.3976 141.041 12.009C139.253 12.7806 137.513 13.6583 135.83 14.6375C134.537 15.3889 132.142 16.3935 131.397 17.767C129.703 20.8615 134.346 23.8132 136.981 23.3985Z" fill="#3E373A"/>
<path opacity="0.1" d="M157.796 20.5383C157.148 21.6345 155.801 22.1542 154.532 22.1542C153.263 22.1542 152.034 21.7422 150.822 21.3624C147.668 20.374 144.224 19.6199 141.105 20.7188C139.715 21.2062 138.436 22.0654 136.978 22.2808C134.854 22.6148 131.435 20.7619 131.063 18.4053C130.647 21.1281 134.612 23.4604 136.978 23.0888C138.436 22.8599 139.715 22.0115 141.105 21.5267C144.224 20.4279 147.668 21.182 150.822 22.1704C152.034 22.5501 153.26 22.9784 154.532 22.9622C155.804 22.946 157.148 22.4451 157.796 21.3463C158.132 20.7485 158.264 20.0573 158.173 19.3776C158.131 19.7868 158.002 20.1825 157.796 20.5383Z" fill="black"/>
<path d="M255.26 166.496C255.26 166.496 256.855 168.583 254.524 171.737C252.193 174.891 250.273 177.552 251.047 179.518C251.047 179.518 254.564 173.663 257.425 173.579C260.285 173.496 258.403 170.016 255.26 166.496Z" fill="#6C63FF"/>
<path opacity="0.1" d="M255.26 166.496C255.399 166.698 255.509 166.918 255.586 167.151C258.376 170.436 259.866 173.504 257.18 173.579C254.68 173.652 251.682 178.131 250.964 179.259C250.987 179.35 251.015 179.44 251.047 179.529C251.047 179.529 254.564 173.673 257.425 173.59C260.285 173.507 258.403 170.016 255.26 166.496Z" fill="black"/>
<path d="M258.218 169.157C258.218 169.892 258.134 170.487 258.035 170.487C257.935 170.487 257.849 169.892 257.849 169.157C257.849 168.422 257.952 168.769 258.054 168.769C258.156 168.769 258.218 168.422 258.218 169.157Z" fill="#FFD037"/>
<path d="M259.237 170.035C258.594 170.385 258.032 170.598 257.984 170.509C257.935 170.42 258.417 170.062 259.059 169.701C259.702 169.34 259.449 169.604 259.498 169.701C259.546 169.798 259.882 169.682 259.237 170.035Z" fill="#FFD037"/>
<path d="M246.834 166.496C246.834 166.496 245.24 168.583 247.571 171.737C249.902 174.891 251.822 177.552 251.045 179.518C251.045 179.518 247.531 173.663 244.667 173.579C241.804 173.496 243.699 170.016 246.834 166.496Z" fill="#6C63FF"/>
<path opacity="0.1" d="M246.834 166.496C246.696 166.698 246.586 166.918 246.509 167.151C243.718 170.436 242.229 173.504 244.915 173.579C247.412 173.652 250.413 178.131 251.131 179.259C251.108 179.351 251.079 179.441 251.045 179.529C251.045 179.529 247.531 173.673 244.667 173.59C241.804 173.507 243.699 170.016 246.834 166.496Z" fill="black"/>
<path d="M243.871 169.157C243.871 169.892 243.952 170.487 244.054 170.487C244.156 170.487 244.24 169.892 244.24 169.157C244.24 168.422 244.135 168.769 244.035 168.769C243.936 168.769 243.871 168.422 243.871 169.157Z" fill="#FFD037"/>
<path d="M242.855 170.035C243.498 170.385 244.06 170.598 244.108 170.509C244.156 170.42 243.675 170.062 243.033 169.701C242.39 169.34 242.643 169.604 242.594 169.701C242.546 169.798 242.21 169.682 242.855 170.035Z" fill="#FFD037"/>
<path opacity="0.1" d="M251.047 195.494C260.254 195.494 267.717 194.347 267.717 192.933C267.717 191.518 260.254 190.371 251.047 190.371C241.841 190.371 234.378 191.518 234.378 192.933C234.378 194.347 241.841 195.494 251.047 195.494Z" fill="#6C63FF"/>
<path d="M259.627 176.703L259.546 177.355L259.433 178.276L259.387 178.661L259.274 179.582L259.226 179.968L259.116 180.886L257.839 191.362C257.726 192.297 256.201 193.027 254.36 193.027H247.732C245.891 193.027 244.369 192.297 244.253 191.362L242.976 180.886L242.863 179.968L242.818 179.582L242.705 178.661L242.656 178.276L242.546 177.355L242.465 176.703C242.403 176.165 243.226 175.728 244.269 175.728H257.825C258.866 175.728 259.691 176.173 259.627 176.703Z" fill="#65617D"/>
<path d="M259.546 177.355L259.436 178.276H242.659L242.546 177.355H259.546Z" fill="#9D9CB5"/>
<path d="M259.387 178.661L259.277 179.582H242.818L242.705 178.661H259.387Z" fill="#9D9CB5"/>
<path d="M259.229 179.967L259.116 180.889H242.976L242.866 179.967H259.229Z" fill="#9D9CB5"/>
</g>
<defs>
<linearGradient id="paint0_linear" x1="146.969" y1="135.177" x2="146.969" y2="-1.94224e-06" gradientUnits="userSpaceOnUse">
<stop stop-color="#808080" stop-opacity="0.25"/>
<stop offset="0.54" stop-color="#808080" stop-opacity="0.12"/>
<stop offset="1" stop-color="#808080" stop-opacity="0.1"/>
</linearGradient>
<clipPath id="clip0">
<rect width="275" height="219" fill="white"/>
</clipPath>
</defs>
</svg>
